Vaigai-Regular.ufo
<glyph name="exclam" format="2">
  <advance width="255"/>
  <unicode hex="0021"/>
  <outline>
    <contour>
      <point x="150" y="174" type="curve"/>
      <point x="176" y="638" type="line"/>
      <point x="156" y="650" type="line"/>
      <point x="135" y="642"/>
      <point x="99" y="624"/>
      <point x="76" y="609" type="curve"/>
      <point x="101" y="166" type="line"/>
      <point x="113" y="157" type="line"/>
      <point x="128" y="161"/>
      <point x="139" y="166"/>
    </contour>
    <contour>
      <point x="183" y="55" type="curve" smooth="yes"/>
      <point x="183" y="90"/>
      <point x="163" y="108"/>
      <point x="133" y="108" type="curve" smooth="yes"/>
      <point x="97" y="108"/>
      <point x="66" y="76"/>
      <point x="66" y="34" type="curve" smooth="yes"/>
      <point x="66" y="0"/>
      <point x="84" y="-17"/>
      <point x="116" y="-17" type="curve" smooth="yes"/>
      <point x="154" y="-17"/>
      <point x="183" y="12"/>
    </contour>
  </outline>
</glyph>
<glyph name="quotedbl" format="2">
  <advance width="266"/>
  <unicode hex="0022"/>
  <outline>
    <contour>
      <point x="232" y="532" type="line"/>
      <point x="232" y="556"/>
      <point x="219" y="571"/>
      <point x="197" y="571" type="curve" smooth="yes"/>
      <point x="176" y="571"/>
      <point x="164" y="556"/>
      <point x="164" y="532" type="curve"/>
      <point x="191" y="336" type="line"/>
      <point x="203" y="336" type="line"/>
    </contour>
    <contour>
      <point x="102" y="532" type="line"/>
      <point x="102" y="556"/>
      <point x="91" y="571"/>
      <point x="68" y="571" type="curve" smooth="yes"/>
      <point x="47" y="571"/>
      <point x="34" y="556"/>
      <point x="34" y="532" type="curve"/>
      <point x="62" y="336" type="line"/>
      <point x="75" y="336" type="line"/>
    </contour>
  </outline>
</glyph>
<glyph name="numbersign" format="2">
  <advance width="594"/>
  <unicode hex="0023"/>
  <outline>
    <contour>
      <point x="545" y="336" type="line"/>
      <point x="545" y="377" type="line"/>
      <point x="433" y="377" type="line"/>
      <point x="494" y="553" type="line"/>
      <point x="451" y="566" type="line"/>
      <point x="388" y="377" type="line"/>
      <point x="271" y="377" type="line"/>
      <point x="333" y="553" type="line"/>
      <point x="292" y="566" type="line"/>
      <point x="228" y="377" type="line"/>
      <point x="85" y="377" type="line"/>
      <point x="85" y="336" type="line"/>
      <point x="215" y="336" type="line"/>
      <point x="176" y="222" type="line"/>
      <point x="49" y="222" type="line"/>
      <point x="49" y="182" type="line"/>
      <point x="163" y="182" type="line"/>
      <point x="99" y="-4" type="line"/>
      <point x="138" y="-18" type="line"/>
      <point x="206" y="182" type="line"/>
      <point x="322" y="182" type="line"/>
      <point x="260" y="-5" type="line"/>
      <point x="300" y="-18" type="line"/>
      <point x="367" y="182" type="line"/>
      <point x="510" y="182" type="line"/>
      <point x="510" y="222" type="line"/>
      <point x="381" y="222" type="line"/>
      <point x="419" y="336" type="line"/>
    </contour>
    <contour>
      <point x="375" y="336" type="line"/>
      <point x="335" y="222" type="line"/>
      <point x="219" y="222" type="line"/>
      <point x="259" y="336" type="line"/>
    </contour>
  </outline>
</glyph>
<glyph name="dollar" format="2">
  <advance width="450"/>
  <unicode hex="0024"/>
  <outline>
    <contour>
      <point x="403" y="151" type="curve" smooth="yes"/>
      <point x="403" y="261"/>
      <point x="315" y="286"/>
      <point x="245" y="307" type="curve"/>
      <point x="245" y="497" type="line"/>
      <point x="287" y="497"/>
      <point x="316" y="490"/>
      <point x="328" y="476" type="curve"/>
      <point x="339" y="392" type="line"/>
      <point x="381" y="392" type="line"/>
      <point x="381" y="518" type="line"/>
      <point x="381" y="518"/>
      <point x="314" y="536"/>
      <point x="245" y="536" type="curve"/>
      <point x="245" y="594" type="line"/>
      <point x="208" y="594" type="line"/>
      <point x="208" y="534" type="line"/>
      <point x="145" y="524"/>
      <point x="59" y="483"/>
      <point x="59" y="387" type="curve" smooth="yes"/>
      <point x="59" y="295"/>
      <point x="138" y="257"/>
      <point x="207" y="241" type="curve"/>
      <point x="207" y="39" type="line"/>
      <point x="164" y="39"/>
      <point x="115" y="49"/>
      <point x="100" y="67" type="curve"/>
      <point x="86" y="156" type="line"/>
      <point x="46" y="156" type="line"/>
      <point x="46" y="20" type="line"/>
      <point x="100" y="4"/>
      <point x="167" y="2"/>
      <point x="207" y="0" type="curve"/>
      <point x="207" y="-82" type="line"/>
      <point x="244" y="-82" type="line"/>
      <point x="244" y="0" type="line"/>
      <point x="297" y="3"/>
      <point x="403" y="53"/>
    </contour>
    <contour>
      <point x="208" y="317" type="line"/>
      <point x="176" y="329"/>
      <point x="133" y="351"/>
      <point x="133" y="403" type="curve" smooth="yes"/>
      <point x="133" y="455"/>
      <point x="166" y="485"/>
      <point x="208" y="494" type="curve"/>
    </contour>
    <contour>
      <point x="331" y="136" type="curve" smooth="yes"/>
      <point x="331" y="79"/>
      <point x="290" y="50"/>
      <point x="244" y="42" type="curve"/>
      <point x="244" y="232" type="line"/>
      <point x="290" y="217"/>
      <point x="331" y="195"/>
    </contour>
  </outline>
</glyph>
<glyph name="ampersand" format="2">
  <advance width="607"/>
  <unicode hex="0026"/>
  <outline>
    <contour>
      <point x="601" y="328" type="curve"/>
      <point x="590" y="345" type="line"/>
      <point x="389" y="345" type="line"/>
      <point x="377" y="341"/>
      <point x="361" y="327"/>
      <point x="354" y="319" type="curve"/>
      <point x="365" y="306" type="line"/>
      <point x="399" y="306"/>
      <point x="434" y="269"/>
      <point x="434" y="220" type="curve" smooth="yes"/>
      <point x="434" y="146"/>
      <point x="354" y="41"/>
      <point x="238" y="41" type="curve" smooth="yes"/>
      <point x="178" y="41"/>
      <point x="118" y="81"/>
      <point x="118" y="163" type="curve" smooth="yes"/>
      <point x="118" y="232"/>
      <point x="152" y="288"/>
      <point x="274" y="365" type="curve"/>
      <point x="344" y="408"/>
      <point x="393" y="468"/>
      <point x="393" y="529" type="curve" smooth="yes"/>
      <point x="393" y="585"/>
      <point x="364" y="637"/>
      <point x="284" y="637" type="curve" smooth="yes"/>
      <point x="204" y="637"/>
      <point x="132" y="566"/>
      <point x="132" y="471" type="curve" smooth="yes"/>
      <point x="132" y="268"/>
      <point x="427" y="-13"/>
      <point x="473" y="-13" type="curve" smooth="yes"/>
      <point x="486" y="-13"/>
      <point x="533" y="0"/>
      <point x="584" y="21" type="curve"/>
      <point x="578" y="45" type="line"/>
      <point x="546" y="37"/>
      <point x="518" y="43"/>
      <point x="493" y="64" type="curve"/>
      <point x="385" y="152"/>
      <point x="202" y="357"/>
      <point x="202" y="496" type="curve" smooth="yes"/>
      <point x="202" y="542"/>
      <point x="221" y="586"/>
      <point x="260" y="586" type="curve" smooth="yes"/>
      <point x="297" y="586"/>
      <point x="318" y="555"/>
      <point x="318" y="514" type="curve" smooth="yes"/>
      <point x="318" y="475"/>
      <point x="300" y="429"/>
      <point x="225" y="388" type="curve" smooth="yes"/>
      <point x="99" y="317"/>
      <point x="32" y="233"/>
      <point x="32" y="154" type="curve" smooth="yes"/>
      <point x="32" y="44"/>
      <point x="107" y="-13"/>
      <point x="221" y="-13" type="curve" smooth="yes"/>
      <point x="374" y="-13"/>
      <point x="496" y="136"/>
      <point x="496" y="238" type="curve" smooth="yes"/>
      <point x="496" y="268"/>
      <point x="494" y="283"/>
      <point x="482" y="303" type="curve"/>
      <point x="502" y="302"/>
      <point x="534" y="294"/>
      <point x="555" y="284" type="curve"/>
      <point x="570" y="294"/>
      <point x="586" y="310"/>
    </contour>
  </outline>
</glyph>
<glyph name="quotesingle" format="2">
  <advance width="231"/>
  <unicode hex="0027"/>
  <outline>
    <contour>
      <point x="141" y="366" type="curve"/>
      <point x="164" y="640" type="line"/>
      <point x="144" y="650" type="line"/>
      <point x="132" y="647"/>
      <point x="80" y="629"/>
      <point x="67" y="622" type="curve"/>
      <point x="94" y="357" type="line"/>
      <point x="108" y="357"/>
      <point x="132" y="361"/>
    </contour>
  </outline>
</glyph>
<glyph name="parenleft" format="2">
  <advance width="289"/>
  <unicode hex="0028"/>
  <outline>
    <contour>
      <point x="257" y="-138" type="curve"/>
      <point x="274" y="-114" type="line"/>
      <point x="187" y="-38"/>
      <point x="138" y="115"/>
      <point x="138" y="286" type="curve" smooth="yes"/>
      <point x="138" y="474"/>
      <point x="200" y="613"/>
      <point x="274" y="678" type="curve"/>
      <point x="257" y="703" type="line"/>
      <point x="132" y="634"/>
      <point x="50" y="466"/>
      <point x="50" y="273" type="curve" smooth="yes"/>
      <point x="50" y="87"/>
      <point x="120" y="-71"/>
    </contour>
  </outline>
</glyph>
<glyph name="parenright" format="2">
  <advance width="289"/>
  <unicode hex="0029"/>
  <outline>
    <contour>
      <point x="239" y="291" type="curve"/>
      <point x="239" y="477"/>
      <point x="169" y="637"/>
      <point x="32" y="703" type="curve"/>
      <point x="15" y="678" type="line"/>
      <point x="103" y="603"/>
      <point x="151" y="449"/>
      <point x="151" y="278" type="curve" smooth="yes"/>
      <point x="151" y="90"/>
      <point x="89" y="-48"/>
      <point x="15" y="-114" type="curve"/>
      <point x="32" y="-138" type="line"/>
      <point x="157" y="-70"/>
      <point x="239" y="98"/>
    </contour>
  </outline>
</glyph>
<glyph name="asterisk" format="2">
  <advance width="400"/>
  <unicode hex="002A"/>
  <outline>
    <contour>
      <point x="216" y="526" type="line"/>
      <point x="236" y="674" type="line"/>
      <point x="219" y="685" type="line"/>
      <point x="206" y="682"/>
      <point x="177" y="669"/>
      <point x="164" y="662" type="curve"/>
      <point x="183" y="526" type="line"/>
      <point x="65" y="617" type="line"/>
      <point x="47" y="607" type="line"/>
      <point x="43" y="596"/>
      <point x="41" y="563"/>
      <point x="40" y="549" type="curve"/>
      <point x="168" y="497" type="line"/>
      <point x="29" y="441" type="line"/>
      <point x="29" y="420" type="line"/>
      <point x="37" y="411"/>
      <point x="63" y="393"/>
      <point x="76" y="385" type="curve"/>
      <point x="184" y="469" type="line"/>
      <point x="164" y="321" type="line"/>
      <point x="182" y="311" type="line"/>
      <point x="195" y="314"/>
      <point x="223" y="327"/>
      <point x="235" y="334" type="curve"/>
      <point x="217" y="469" type="line"/>
      <point x="334" y="378" type="line"/>
      <point x="353" y="388" type="line"/>
      <point x="357" y="401"/>
      <point x="359" y="432"/>
      <point x="360" y="447" type="curve"/>
      <point x="233" y="498" type="line"/>
      <point x="371" y="555" type="line"/>
      <point x="371" y="575" type="line"/>
      <point x="362" y="585"/>
      <point x="337" y="603"/>
      <point x="324" y="611" type="curve"/>
    </contour>
  </outline>
</glyph>
<glyph name="plus" format="2">
  <advance width="372"/>
  <unicode hex="002B"/>
  <outline>
    <contour>
      <point x="346" y="262" type="curve"/>
      <point x="334" y="273" type="line"/>
      <point x="41" y="273" type="line"/>
      <point x="36" y="262"/>
      <point x="28" y="244"/>
      <point x="25" y="232" type="curve"/>
      <point x="37" y="220" type="line"/>
      <point x="331" y="220" type="line"/>
      <point x="335" y="230"/>
      <point x="343" y="249"/>
    </contour>
    <contour>
      <point x="213" y="102" type="curve"/>
      <point x="213" y="395" type="line"/>
      <point x="202" y="407" type="line"/>
      <point x="189" y="403"/>
      <point x="169" y="396"/>
      <point x="158" y="393" type="curve"/>
      <point x="158" y="98" type="line"/>
      <point x="170" y="87" type="line"/>
      <point x="183" y="89"/>
      <point x="202" y="96"/>
    </contour>
  </outline>
</glyph>
<glyph name="comma" format="2">
  <advance width="218"/>
  <unicode hex="002C"/>
  <outline>
    <contour>
      <point x="184" y="30" type="curve"/>
      <point x="184" y="68"/>
      <point x="174" y="91"/>
      <point x="146" y="105" type="curve"/>
      <point x="122" y="105"/>
      <point x="48" y="76"/>
      <point x="38" y="63" type="curve"/>
      <point x="45" y="38" type="line"/>
      <point x="83" y="40"/>
      <point x="101" y="20"/>
      <point x="101" y="-5" type="curve" smooth="yes"/>
      <point x="101" y="-56"/>
      <point x="85" y="-89"/>
      <point x="53" y="-127" type="curve"/>
      <point x="76" y="-145" type="line"/>
      <point x="140" y="-99"/>
      <point x="184" y="-20"/>
    </contour>
  </outline>
</glyph>
<glyph name="hyphen" format="2">
  <advance width="328"/>
  <unicode hex="002D"/>
  <outline>
    <contour>
      <point x="304" y="190" type="line"/>
      <point x="304" y="261" type="line"/>
      <point x="24" y="261" type="line"/>
      <point x="24" y="190" type="line"/>
    </contour>
  </outline>
</glyph>
<glyph name="period" format="2">
  <advance width="206"/>
  <unicode hex="002E"/>
  <outline>
    <contour>
      <point x="162" y="54" type="curve"/>
      <point x="162" y="85"/>
      <point x="147" y="103"/>
      <point x="118" y="103" type="curve" smooth="yes"/>
      <point x="85" y="103"/>
      <point x="57" y="71"/>
      <point x="57" y="31" type="curve" smooth="yes"/>
      <point x="57" y="0"/>
      <point x="70" y="-17"/>
      <point x="101" y="-17" type="curve" smooth="yes"/>
      <point x="135" y="-17"/>
      <point x="162" y="13"/>
    </contour>
  </outline>
</glyph>
<glyph name="slash" format="2">
  <advance width="424"/>
  <unicode hex="002F"/>
  <outline>
    <contour>
      <point x="97" y="-123" type="curve"/>
      <point x="403" y="692" type="line"/>
      <point x="386" y="703" type="line"/>
      <point x="369" y="698"/>
      <point x="343" y="690"/>
      <point x="327" y="680" type="curve"/>
      <point x="19" y="-135" type="line"/>
      <point x="36" y="-147" type="line"/>
      <point x="51" y="-142"/>
      <point x="85" y="-131"/>
    </contour>
  </outline>
</glyph>
<glyph name="zero" format="2">
  <advance width="433"/>
  <unicode hex="0030"/>
  <outline>
    <contour>
      <point x="402" y="264" type="curve"/>
      <point x="402" y="417"/>
      <point x="340" y="542"/>
      <point x="224" y="542" type="curve" smooth="yes"/>
      <point x="107" y="542"/>
      <point x="31" y="415"/>
      <point x="31" y="264" type="curve" smooth="yes"/>
      <point x="31" y="113"/>
      <point x="94" y="-13"/>
      <point x="209" y="-13" type="curve" smooth="yes"/>
      <point x="324" y="-13"/>
      <point x="402" y="113"/>
    </contour>
    <contour>
      <point x="315" y="248" type="curve"/>
      <point x="315" y="99"/>
      <point x="283" y="39"/>
      <point x="224" y="39" type="curve" smooth="yes"/>
      <point x="161" y="39"/>
      <point x="117" y="122"/>
      <point x="117" y="283" type="curve" smooth="yes"/>
      <point x="117" y="430"/>
      <point x="151" y="489"/>
      <point x="209" y="489" type="curve" smooth="yes"/>
      <point x="266" y="489"/>
      <point x="315" y="408"/>
    </contour>
  </outline>
</glyph>
<glyph name="one" format="2">
  <advance width="433"/>
  <unicode hex="0031"/>
  <outline>
    <contour>
      <point x="72" y="0" type="line"/>
      <point x="380" y="0" type="line"/>
      <point x="380" y="27" type="line"/>
      <point x="291" y="38"/>
      <point x="270" y="55"/>
      <point x="270" y="67" type="curve" smooth="yes"/>
      <point x="270" y="530" type="line"/>
      <point x="252" y="547" type="line"/>
      <point x="213" y="526"/>
      <point x="108" y="485"/>
      <point x="58" y="472" type="curve"/>
      <point x="69" y="445" type="line"/>
      <point x="146" y="461"/>
      <point x="176" y="459"/>
      <point x="183" y="451" type="curve" smooth="yes"/>
      <point x="190" y="443"/>
      <point x="191" y="431"/>
      <point x="191" y="408" type="curve" smooth="yes"/>
      <point x="191" y="67" type="line" smooth="yes"/>
      <point x="191" y="54"/>
      <point x="164" y="38"/>
      <point x="72" y="27" type="curve"/>
    </contour>
  </outline>
</glyph>
<glyph name="two" format="2">
  <advance width="422"/>
  <unicode hex="0032"/>
  <outline>
    <contour>
      <point x="360" y="0" type="line"/>
      <point x="367" y="126" type="line"/>
      <point x="345" y="131" type="line"/>
      <point x="345" y="131"/>
      <point x="340" y="53"/>
      <point x="300" y="53" type="curve" smooth="yes"/>
      <point x="116" y="53" type="line"/>
      <point x="297" y="264"/>
      <point x="361" y="340"/>
      <point x="361" y="418" type="curve" smooth="yes"/>
      <point x="361" y="504"/>
      <point x="305" y="542"/>
      <point x="235" y="542" type="curve" smooth="yes"/>
      <point x="145" y="542"/>
      <point x="54" y="462"/>
      <point x="54" y="402" type="curve"/>
      <point x="66" y="388" type="line"/>
      <point x="93" y="391"/>
      <point x="103" y="399"/>
      <point x="123" y="410" type="curve"/>
      <point x="123" y="451"/>
      <point x="157" y="503"/>
      <point x="205" y="503" type="curve" smooth="yes"/>
      <point x="268" y="503"/>
      <point x="293" y="460"/>
      <point x="293" y="406" type="curve" smooth="yes"/>
      <point x="293" y="339"/>
      <point x="251" y="274"/>
      <point x="43" y="32" type="curve"/>
      <point x="55" y="0" type="line"/>
    </contour>
  </outline>
</glyph>
<glyph name="three" format="2">
  <advance width="433"/>
  <unicode hex="0033"/>
  <outline>
    <contour>
      <point x="375" y="167" type="curve"/>
      <point x="375" y="238"/>
      <point x="325" y="298"/>
      <point x="257" y="306" type="curve"/>
      <point x="313" y="330"/>
      <point x="350" y="377"/>
      <point x="350" y="420" type="curve" smooth="yes"/>
      <point x="350" y="480"/>
      <point x="311" y="542"/>
      <point x="217" y="542" type="curve" smooth="yes"/>
      <point x="122" y="542"/>
      <point x="45" y="471"/>
      <point x="45" y="421" type="curve"/>
      <point x="58" y="403" type="line"/>
      <point x="86" y="405"/>
      <point x="110" y="414"/>
      <point x="131" y="425" type="curve"/>
      <point x="123" y="465"/>
      <point x="151" y="499"/>
      <point x="192" y="499" type="curve" smooth="yes"/>
      <point x="244" y="499"/>
      <point x="266" y="453"/>
      <point x="266" y="413" type="curve" smooth="yes"/>
      <point x="266" y="377"/>
      <point x="251" y="326"/>
      <point x="145" y="298" type="curve"/>
      <point x="152" y="267" type="line"/>
      <point x="170" y="270"/>
      <point x="168" y="270"/>
      <point x="184" y="270" type="curve" smooth="yes"/>
      <point x="232" y="270"/>
      <point x="291" y="240"/>
      <point x="291" y="154" type="curve" smooth="yes"/>
      <point x="291" y="79"/>
      <point x="244" y="36"/>
      <point x="178" y="36" type="curve" smooth="yes"/>
      <point x="134" y="36"/>
      <point x="100" y="48"/>
      <point x="47" y="88" type="curve"/>
      <point x="30" y="54" type="line"/>
      <point x="83" y="3"/>
      <point x="139" y="-13"/>
      <point x="186" y="-13" type="curve" smooth="yes"/>
      <point x="306" y="-13"/>
      <point x="375" y="68"/>
    </contour>
  </outline>
</glyph>
<glyph name="four" format="2">
  <advance width="433"/>
  <unicode hex="0034"/>
  <outline>
    <contour>
      <point x="396" y="191" type="curve"/>
      <point x="384" y="204" type="line"/>
      <point x="329" y="204" type="line"/>
      <point x="329" y="530" type="line"/>
      <point x="312" y="547" type="line"/>
      <point x="292" y="538"/>
      <point x="265" y="525"/>
      <point x="239" y="514" type="curve"/>
      <point x="24" y="167" type="line"/>
      <point x="39" y="151" type="line"/>
      <point x="254" y="151" type="line"/>
      <point x="254" y="54" type="line" smooth="yes"/>
      <point x="254" y="44"/>
      <point x="239" y="36"/>
      <point x="162" y="23" type="curve"/>
      <point x="162" y="0" type="line"/>
      <point x="390" y="0" type="line"/>
      <point x="390" y="23" type="line"/>
      <point x="342" y="34"/>
      <point x="329" y="41"/>
      <point x="329" y="50" type="curve" smooth="yes"/>
      <point x="329" y="151" type="line"/>
      <point x="358" y="151" type="line"/>
      <point x="371" y="161"/>
      <point x="383" y="172"/>
    </contour>
    <contour>
      <point x="254" y="448" type="line"/>
      <point x="254" y="204" type="line"/>
      <point x="99" y="204" type="line"/>
    </contour>
  </outline>
</glyph>
<glyph name="five" format="2">
  <advance width="433"/>
  <unicode hex="0035"/>
  <outline>
    <contour>
      <point x="379" y="180" type="curve"/>
      <point x="379" y="266"/>
      <point x="321" y="344"/>
      <point x="211" y="344" type="curve" smooth="yes"/>
      <point x="179" y="344"/>
      <point x="145" y="339"/>
      <point x="121" y="331" type="curve"/>
      <point x="126" y="357"/>
      <point x="137" y="430"/>
      <point x="139" y="464" type="curve"/>
      <point x="315" y="464" type="line"/>
      <point x="329" y="474"/>
      <point x="355" y="504"/>
      <point x="368" y="523" type="curve"/>
      <point x="354" y="537" type="line"/>
      <point x="354" y="537"/>
      <point x="334" y="529"/>
      <point x="301" y="529" type="curve" smooth="yes"/>
      <point x="96" y="529" type="line"/>
      <point x="92" y="467"/>
      <point x="71" y="333"/>
      <point x="60" y="269" type="curve"/>
      <point x="81" y="254" type="line"/>
      <point x="111" y="278"/>
      <point x="149" y="291"/>
      <point x="181" y="291" type="curve" smooth="yes"/>
      <point x="257" y="291"/>
      <point x="297" y="241"/>
      <point x="297" y="161" type="curve" smooth="yes"/>
      <point x="297" y="94"/>
      <point x="258" y="35"/>
      <point x="188" y="35" type="curve" smooth="yes"/>
      <point x="154" y="35"/>
      <point x="114" y="43"/>
      <point x="52" y="86" type="curve"/>
      <point x="34" y="53" type="line"/>
      <point x="85" y="6"/>
      <point x="143" y="-13"/>
      <point x="197" y="-13" type="curve" smooth="yes"/>
      <point x="317" y="-13"/>
      <point x="379" y="78"/>
    </contour>
  </outline>
</glyph>
<glyph name="six" format="2">
  <advance width="433"/>
  <unicode hex="0036"/>
  <outline>
    <contour>
      <point x="400" y="181" type="curve"/>
      <point x="400" y="277"/>
      <point x="343" y="340"/>
      <point x="247" y="340" type="curve" smooth="yes"/>
      <point x="211" y="340"/>
      <point x="150" y="318"/>
      <point x="104" y="256" type="curve"/>
      <point x="111" y="209" type="line"/>
      <point x="145" y="263"/>
      <point x="192" y="287"/>
      <point x="226" y="287" type="curve" smooth="yes"/>
      <point x="267" y="287"/>
      <point x="320" y="262"/>
      <point x="320" y="152" type="curve" smooth="yes"/>
      <point x="320" y="98"/>
      <point x="302" y="36"/>
      <point x="243" y="36" type="curve" smooth="yes"/>
      <point x="176" y="36"/>
      <point x="130" y="97"/>
      <point x="130" y="235" type="curve" smooth="yes"/>
      <point x="130" y="356"/>
      <point x="200" y="481"/>
      <point x="364" y="518" type="curve"/>
      <point x="355" y="548" type="line"/>
      <point x="146" y="519"/>
      <point x="46" y="373"/>
      <point x="46" y="207" type="curve" smooth="yes"/>
      <point x="46" y="75"/>
      <point x="127" y="-13"/>
      <point x="228" y="-13" type="curve" smooth="yes"/>
      <point x="341" y="-13"/>
      <point x="400" y="98"/>
    </contour>
  </outline>
</glyph>
<glyph name="seven" format="2">
  <advance width="332"/>
  <unicode hex="0037"/>
  <outline>
    <contour>
      <point x="102" y="391" type="curve" smooth="yes"/>
      <point x="246" y="391" type="line"/>
      <point x="246" y="389"/>
      <point x="115" y="-1"/>
      <point x="114" y="-5" type="curve"/>
      <point x="158" y="-5" type="line"/>
      <point x="299" y="430" type="line"/>
      <point x="299" y="440" type="line"/>
      <point x="53" y="440" type="line"/>
      <point x="13" y="342" type="line"/>
      <point x="25" y="337" type="line"/>
      <point x="49" y="375"/>
      <point x="63" y="391"/>
    </contour>
  </outline>
</glyph>
<glyph name="eight" format="2">
  <advance width="433"/>
  <unicode hex="0038"/>
  <outline>
    <contour>
      <point x="394" y="154" type="curve"/>
      <point x="394" y="336"/>
      <point x="132" y="306"/>
      <point x="132" y="417" type="curve" smooth="yes"/>
      <point x="132" y="457"/>
      <point x="156" y="498"/>
      <point x="204" y="498" type="curve" smooth="yes"/>
      <point x="255" y="498"/>
      <point x="291" y="473"/>
      <point x="292" y="412" type="curve" smooth="yes"/>
      <point x="292" y="378"/>
      <point x="273" y="344"/>
      <point x="226" y="311" type="curve"/>
      <point x="262" y="292" type="line"/>
      <point x="324" y="332"/>
      <point x="372" y="372"/>
      <point x="372" y="425" type="curve" smooth="yes"/>
      <point x="372" y="493"/>
      <point x="320" y="542"/>
      <point x="225" y="542" type="curve" smooth="yes"/>
      <point x="133" y="542"/>
      <point x="61" y="483"/>
      <point x="61" y="402" type="curve" smooth="yes"/>
      <point x="61" y="243"/>
      <point x="309" y="293"/>
      <point x="309" y="135" type="curve" smooth="yes"/>
      <point x="309" y="84"/>
      <point x="283" y="34"/>
      <point x="224" y="34" type="curve" smooth="yes"/>
      <point x="165" y="34"/>
      <point x="123" y="77"/>
      <point x="123" y="138" type="curve" smooth="yes"/>
      <point x="123" y="192"/>
      <point x="147" y="228"/>
      <point x="202" y="269" type="curve"/>
      <point x="165" y="286" type="line"/>
      <point x="90" y="247"/>
      <point x="39" y="190"/>
      <point x="39" y="125" type="curve" smooth="yes"/>
      <point x="39" y="53"/>
      <point x="97" y="-13"/>
      <point x="204" y="-13" type="curve" smooth="yes"/>
      <point x="309" y="-13"/>
      <point x="394" y="63"/>
    </contour>
  </outline>
</glyph>
<glyph name="nine" format="2">
  <advance width="422"/>
  <unicode hex="0039"/>
  <outline>
    <contour>
      <point x="382" y="321" type="curve"/>
      <point x="382" y="476"/>
      <point x="304" y="542"/>
      <point x="222" y="542" type="curve" smooth="yes"/>
      <point x="118" y="542"/>
      <point x="43" y="438"/>
      <point x="43" y="349" type="curve" smooth="yes"/>
      <point x="43" y="261"/>
      <point x="98" y="195"/>
      <point x="192" y="195" type="curve" smooth="yes"/>
      <point x="243" y="195"/>
      <point x="304" y="232"/>
      <point x="332" y="285" type="curve"/>
      <point x="326" y="331" type="line"/>
      <point x="304" y="281"/>
      <point x="261" y="243"/>
      <point x="211" y="243" type="curve" smooth="yes"/>
      <point x="168" y="243"/>
      <point x="109" y="268"/>
      <point x="109" y="376" type="curve" smooth="yes"/>
      <point x="109" y="445"/>
      <point x="144" y="496"/>
      <point x="204" y="496" type="curve" smooth="yes"/>
      <point x="252" y="496"/>
      <point x="312" y="450"/>
      <point x="312" y="294" type="curve" smooth="yes"/>
      <point x="312" y="155"/>
      <point x="249" y="50"/>
      <point x="75" y="7" type="curve"/>
      <point x="83" y="-18" type="line"/>
      <point x="287" y="10"/>
      <point x="382" y="143"/>
    </contour>
  </outline>
</glyph>
<glyph name="less" format="2">
  <advance width="399"/>
  <unicode hex="003C"/>
  <outline>
    <contour>
      <point x="373" y="386" type="curve"/>
      <point x="361" y="398" type="line"/>
      <point x="40" y="279" type="line"/>
      <point x="35" y="267"/>
      <point x="28" y="244"/>
      <point x="25" y="232" type="curve"/>
      <point x="37" y="219" type="line"/>
      <point x="360" y="337" type="line"/>
      <point x="363" y="348"/>
      <point x="370" y="373"/>
    </contour>
    <contour>
      <point x="373" y="143" type="curve"/>
      <point x="365" y="159" type="line"/>
      <point x="40" y="279" type="line"/>
      <point x="35" y="267"/>
      <point x="28" y="244"/>
      <point x="25" y="232" type="curve"/>
      <point x="37" y="219" type="line"/>
      <point x="333" y="110" type="line"/>
      <point x="351" y="121"/>
      <point x="361" y="131"/>
    </contour>
  </outline>
</glyph>
<glyph name="equal" format="2">
  <advance width="395"/>
  <unicode hex="003D"/>
  <outline>
    <contour>
      <point x="368" y="325" type="curve"/>
      <point x="357" y="336" type="line"/>
      <point x="40" y="336" type="line"/>
      <point x="35" y="325"/>
      <point x="29" y="310"/>
      <point x="26" y="298" type="curve"/>
      <point x="37" y="287" type="line"/>
      <point x="355" y="287" type="line"/>
      <point x="359" y="297"/>
      <point x="365" y="313"/>
    </contour>
    <contour>
      <point x="368" y="193" type="curve"/>
      <point x="357" y="204" type="line"/>
      <point x="40" y="204" type="line"/>
      <point x="35" y="192"/>
      <point x="29" y="179"/>
      <point x="26" y="167" type="curve"/>
      <point x="37" y="156" type="line"/>
      <point x="355" y="156" type="line"/>
      <point x="359" y="166"/>
      <point x="365" y="181"/>
    </contour>
  </outline>
</glyph>
<glyph name="greater" format="2">
  <advance width="399"/>
  <unicode hex="003E"/>
  <outline>
    <contour>
      <point x="373" y="276" type="curve"/>
      <point x="362" y="288" type="line"/>
      <point x="65" y="398" type="line"/>
      <point x="53" y="388"/>
      <point x="39" y="376"/>
      <point x="25" y="365" type="curve"/>
      <point x="34" y="347" type="line"/>
      <point x="278" y="258" type="line"/>
      <point x="40" y="169" type="line"/>
      <point x="35" y="159"/>
      <point x="29" y="134"/>
      <point x="25" y="122" type="curve"/>
      <point x="37" y="110" type="line"/>
      <point x="359" y="228" type="line"/>
      <point x="364" y="242"/>
      <point x="371" y="263"/>
    </contour>
  </outline>
</glyph>
<glyph name="question" format="2">
  <advance width="396"/>
  <unicode hex="003F"/>
  <outline>
    <contour>
      <point x="362" y="511" type="curve" smooth="yes"/>
      <point x="362" y="594"/>
      <point x="313" y="650"/>
      <point x="223" y="650" type="curve" smooth="yes"/>
      <point x="122" y="650"/>
      <point x="32" y="588"/>
      <point x="32" y="505" type="curve" smooth="yes"/>
      <point x="32" y="501"/>
      <point x="32" y="493"/>
      <point x="33" y="488" type="curve"/>
      <point x="46" y="474" type="line"/>
      <point x="72" y="477"/>
      <point x="105" y="484"/>
      <point x="124" y="494" type="curve"/>
      <point x="121" y="502"/>
      <point x="119" y="512"/>
      <point x="119" y="521" type="curve" smooth="yes"/>
      <point x="119" y="566"/>
      <point x="152" y="604"/>
      <point x="190" y="604" type="curve" smooth="yes"/>
      <point x="244" y="604"/>
      <point x="276" y="564"/>
      <point x="276" y="492" type="curve" smooth="yes"/>
      <point x="276" y="410"/>
      <point x="156" y="321"/>
      <point x="156" y="222" type="curve" smooth="yes"/>
      <point x="156" y="220"/>
      <point x="156" y="218"/>
      <point x="156" y="216" type="curve"/>
      <point x="160" y="166" type="line"/>
      <point x="172" y="156" type="line"/>
      <point x="188" y="160"/>
      <point x="198" y="166"/>
      <point x="208" y="174" type="curve"/>
      <point x="211" y="216" type="line" smooth="yes"/>
      <point x="219" y="333"/>
      <point x="362" y="379"/>
    </contour>
    <contour>
      <point x="246" y="55" type="curve" smooth="yes"/>
      <point x="246" y="90"/>
      <point x="226" y="108"/>
      <point x="196" y="108" type="curve" smooth="yes"/>
      <point x="160" y="108"/>
      <point x="129" y="76"/>
      <point x="129" y="34" type="curve" smooth="yes"/>
      <point x="129" y="0"/>
      <point x="147" y="-17"/>
      <point x="179" y="-17" type="curve" smooth="yes"/>
      <point x="217" y="-17"/>
      <point x="246" y="12"/>
    </contour>
  </outline>
</glyph>
<glyph name="at" format="2">
  <advance width="726"/>
  <unicode hex="0040"/>
  <outline>
    <contour>
      <point x="695" y="241" type="curve"/>
      <point x="695" y="466"/>
      <point x="580" y="585"/>
      <point x="406" y="585" type="curve" smooth="yes"/>
      <point x="199" y="585"/>
      <point x="30" y="403"/>
      <point x="30" y="204" type="curve" smooth="yes"/>
      <point x="30" y="-20"/>
      <point x="173" y="-164"/>
      <point x="375" y="-164" type="curve" smooth="yes"/>
      <point x="501" y="-164"/>
      <point x="595" y="-104"/>
      <point x="637" y="-60" type="curve"/>
      <point x="625" y="-36" type="line"/>
      <point x="590" y="-65"/>
      <point x="495" y="-112"/>
      <point x="396" y="-112" type="curve" smooth="yes"/>
      <point x="237" y="-112"/>
      <point x="96" y="18"/>
      <point x="96" y="230" type="curve" smooth="yes"/>
      <point x="96" y="388"/>
      <point x="209" y="533"/>
      <point x="388" y="533" type="curve" smooth="yes"/>
      <point x="537" y="533"/>
      <point x="642" y="422"/>
      <point x="642" y="225" type="curve" smooth="yes"/>
      <point x="642" y="126"/>
      <point x="588" y="47"/>
      <point x="558" y="47" type="curve" smooth="yes"/>
      <point x="530" y="47"/>
      <point x="511" y="72"/>
      <point x="511" y="125" type="curve" smooth="yes"/>
      <point x="511" y="317" type="line" smooth="yes"/>
      <point x="511" y="366"/>
      <point x="524" y="408"/>
      <point x="524" y="408" type="curve"/>
      <point x="511" y="421" type="line"/>
      <point x="494" y="403"/>
      <point x="479" y="390"/>
      <point x="463" y="381" type="curve"/>
      <point x="432" y="415"/>
      <point x="417" y="421"/>
      <point x="390" y="421" type="curve" smooth="yes"/>
      <point x="276" y="421"/>
      <point x="202" y="296"/>
      <point x="202" y="195" type="curve" smooth="yes"/>
      <point x="202" y="64"/>
      <point x="271" y="-13"/>
      <point x="331" y="-13" type="curve" smooth="yes"/>
      <point x="377" y="-13"/>
      <point x="400" y="4"/>
      <point x="448" y="71" type="curve"/>
      <point x="456" y="10"/>
      <point x="479" y="-13"/>
      <point x="508" y="-13" type="curve" smooth="yes"/>
      <point x="583" y="-13"/>
      <point x="695" y="89"/>
    </contour>
    <contour>
      <point x="445" y="321" type="curve"/>
      <point x="445" y="109" type="line"/>
      <point x="401" y="57"/>
      <point x="385" y="43"/>
      <point x="362" y="43" type="curve" smooth="yes"/>
      <point x="321" y="43"/>
      <point x="268" y="108"/>
      <point x="268" y="208" type="curve" smooth="yes"/>
      <point x="268" y="318"/>
      <point x="312" y="373"/>
      <point x="377" y="373" type="curve" smooth="yes"/>
      <point x="412" y="373"/>
      <point x="429" y="353"/>
    </contour>
  </outline>
</glyph>
<glyph name="A" format="2">
  <advance width="545"/>
  <unicode hex="0041"/>
  <outline>
    <contour>
      <point x="169" y="193" type="line"/>
      <point x="346" y="193" type="line"/>
      <point x="395" y="53" type="line" smooth="yes"/>
      <point x="401" y="33"/>
      <point x="385" y="25"/>
      <point x="339" y="23" type="curve"/>
      <point x="339" y="0" type="line"/>
      <point x="536" y="0" type="line"/>
      <point x="536" y="23" type="line"/>
      <point x="498" y="27"/>
      <point x="485" y="36"/>
      <point x="479" y="53" type="curve" smooth="yes"/>
      <point x="295" y="578" type="line"/>
      <point x="274" y="570"/>
      <point x="246" y="556"/>
      <point x="228" y="539" type="curve"/>
      <point x="68" y="53" type="line" smooth="yes"/>
      <point x="62" y="35"/>
      <point x="39" y="30"/>
      <point x="0" y="23" type="curve"/>
      <point x="0" y="0" type="line"/>
      <point x="185" y="0" type="line"/>
      <point x="185" y="23" type="line"/>
      <point x="137" y="28"/>
      <point x="116" y="35"/>
      <point x="122" y="53" type="curve" smooth="yes"/>
    </contour>
    <contour>
      <point x="331" y="237" type="line"/>
      <point x="183" y="237" type="line"/>
      <point x="255" y="455" type="line"/>
    </contour>
  </outline>
</glyph>
<glyph name="B" format="2">
  <advance width="510"/>
  <unicode hex="0042"/>
  <outline>
    <contour>
      <point x="462" y="156" type="curve"/>
      <point x="462" y="237"/>
      <point x="404" y="303"/>
      <point x="325" y="317" type="curve"/>
      <point x="381" y="337"/>
      <point x="414" y="385"/>
      <point x="414" y="448" type="curve" smooth="yes"/>
      <point x="414" y="522"/>
      <point x="338" y="566"/>
      <point x="214" y="566" type="curve" smooth="yes"/>
      <point x="148" y="566"/>
      <point x="64" y="553"/>
      <point x="16" y="540" type="curve"/>
      <point x="20" y="509" type="line"/>
      <point x="70" y="519"/>
      <point x="143" y="526"/>
      <point x="189" y="526" type="curve" smooth="yes"/>
      <point x="298" y="526"/>
      <point x="331" y="485"/>
      <point x="331" y="426" type="curve" smooth="yes"/>
      <point x="331" y="376"/>
      <point x="307" y="320"/>
      <point x="179" y="320" type="curve" smooth="yes"/>
      <point x="138" y="320" type="line"/>
      <point x="143" y="273" type="line"/>
      <point x="169" y="279"/>
      <point x="196" y="283"/>
      <point x="235" y="283" type="curve" smooth="yes"/>
      <point x="337" y="283"/>
      <point x="376" y="208"/>
      <point x="376" y="143" type="curve" smooth="yes"/>
      <point x="376" y="77"/>
      <point x="325" y="34"/>
      <point x="241" y="34" type="curve" smooth="yes"/>
      <point x="215" y="34"/>
      <point x="180" y="36"/>
      <point x="162" y="46" type="curve"/>
      <point x="54" y="0" type="line"/>
      <point x="111" y="-2"/>
      <point x="200" y="-6"/>
      <point x="253" y="-6" type="curve"/>
      <point x="379" y="-6"/>
      <point x="462" y="56"/>
    </contour>
    <contour>
      <point x="20" y="0" type="line"/>
      <point x="227" y="0" type="line"/>
      <point x="227" y="22" type="line"/>
      <point x="184" y="30"/>
      <point x="166" y="41"/>
      <point x="166" y="48" type="curve" smooth="yes"/>
      <point x="166" y="540" type="line"/>
      <point x="83" y="531" type="line"/>
      <point x="83" y="50" type="line" smooth="yes"/>
      <point x="83" y="42"/>
      <point x="60" y="31"/>
      <point x="20" y="23" type="curve"/>
    </contour>
  </outline>
</glyph>
<glyph name="C" format="2">
  <advance width="482"/>
  <unicode hex="0043"/>
  <outline>
    <contour>
      <point x="447" y="92" type="curve"/>
      <point x="445" y="97"/>
      <point x="437" y="109"/>
      <point x="431" y="112" type="curve"/>
      <point x="366" y="58"/>
      <point x="314" y="39"/>
      <point x="282" y="39" type="curve" smooth="yes"/>
      <point x="199" y="39"/>
      <point x="98" y="117"/>
      <point x="98" y="273" type="curve" smooth="yes"/>
      <point x="98" y="456"/>
      <point x="199" y="518"/>
      <point x="260" y="518" type="curve" smooth="yes"/>
      <point x="313" y="518"/>
      <point x="354" y="498"/>
      <point x="384" y="471" type="curve"/>
      <point x="399" y="468" type="line"/>
      <point x="413" y="482"/>
      <point x="445" y="517"/>
      <point x="439" y="522" type="curve" smooth="yes"/>
      <point x="408" y="547"/>
      <point x="359" y="566"/>
      <point x="297" y="566" type="curve" smooth="yes"/>
      <point x="152" y="566"/>
      <point x="30" y="444"/>
      <point x="30" y="257" type="curve" smooth="yes"/>
      <point x="30" y="87"/>
      <point x="142" y="-13"/>
      <point x="250" y="-13" type="curve" smooth="yes"/>
      <point x="311" y="-13"/>
      <point x="372" y="12"/>
    </contour>
  </outline>
</glyph>
<glyph name="D" format="2">
  <advance width="546"/>
  <unicode hex="0044"/>
  <outline>
    <contour>
      <point x="20" y="0" type="line"/>
      <point x="36" y="0" type="line" smooth="yes"/>
      <point x="119" y="0"/>
      <point x="156" y="0"/>
      <point x="225" y="0" type="curve" smooth="yes"/>
      <point x="254" y="0" type="line" smooth="yes"/>
      <point x="363" y="0"/>
      <point x="507" y="77"/>
      <point x="507" y="297" type="curve" smooth="yes"/>
      <point x="507" y="467"/>
      <point x="404" y="566"/>
      <point x="236" y="566" type="curve" smooth="yes"/>
      <point x="164" y="566"/>
      <point x="69" y="555"/>
      <point x="16" y="540" type="curve"/>
      <point x="20" y="508" type="line"/>
      <point x="39" y="511"/>
      <point x="60" y="514"/>
      <point x="83" y="517" type="curve"/>
      <point x="83" y="50" type="line" smooth="yes"/>
      <point x="83" y="42"/>
      <point x="60" y="31"/>
      <point x="20" y="23" type="curve"/>
    </contour>
    <contour>
      <point x="242" y="40" type="curve" smooth="yes"/>
      <point x="205" y="40"/>
      <point x="166" y="44"/>
      <point x="166" y="69" type="curve" smooth="yes"/>
      <point x="166" y="525" type="line"/>
      <point x="180" y="526"/>
      <point x="193" y="526"/>
      <point x="206" y="526" type="curve" smooth="yes"/>
      <point x="343" y="526"/>
      <point x="418" y="435"/>
      <point x="418" y="279" type="curve" smooth="yes"/>
      <point x="418" y="115"/>
      <point x="319" y="40"/>
    </contour>
  </outline>
</glyph>
<glyph name="E" format="2">
  <advance width="455"/>
  <unicode hex="0045"/>
  <outline>
    <contour>
      <point x="401" y="541" type="curve"/>
      <point x="386" y="553" type="line"/>
      <point x="156" y="553" type="line"/>
      <point x="144" y="509" type="line"/>
      <point x="323" y="509" type="line" smooth="yes"/>
      <point x="344" y="509"/>
      <point x="356" y="489"/>
      <point x="359" y="435" type="curve"/>
      <point x="383" y="435" type="line"/>
      <point x="390" y="457"/>
      <point x="399" y="511"/>
    </contour>
    <contour>
      <point x="356" y="309" type="curve"/>
      <point x="343" y="322" type="line"/>
      <point x="147" y="322" type="line"/>
      <point x="137" y="282" type="line"/>
      <point x="228" y="282" type="line" smooth="yes"/>
      <point x="278" y="282"/>
      <point x="297" y="275"/>
      <point x="315" y="258" type="curve"/>
      <point x="328" y="267"/>
      <point x="346" y="293"/>
    </contour>
    <contour>
      <point x="430" y="116" type="curve"/>
      <point x="406" y="125" type="line"/>
      <point x="381" y="56"/>
      <point x="362" y="43"/>
      <point x="308" y="43" type="curve" smooth="yes"/>
      <point x="256" y="43" type="line" smooth="yes"/>
      <point x="179" y="43"/>
      <point x="166" y="54"/>
      <point x="166" y="72" type="curve" smooth="yes"/>
      <point x="166" y="512" type="line" smooth="yes"/>
      <point x="166" y="520"/>
      <point x="191" y="526"/>
      <point x="230" y="530" type="curve"/>
      <point x="230" y="553" type="line"/>
      <point x="20" y="553" type="line"/>
      <point x="20" y="530" type="line"/>
      <point x="63" y="522"/>
      <point x="83" y="510"/>
      <point x="83" y="503" type="curve" smooth="yes"/>
      <point x="83" y="50" type="line" smooth="yes"/>
      <point x="83" y="42"/>
      <point x="60" y="31"/>
      <point x="20" y="23" type="curve"/>
      <point x="20" y="0" type="line"/>
      <point x="412" y="0" type="line"/>
      <point x="417" y="17"/>
      <point x="425" y="65"/>
    </contour>
  </outline>
</glyph>
<glyph name="F" format="2">
  <advance width="432"/>
  <unicode hex="0046"/>
  <anchor x="214" y="585" name="U"/>
  <outline>
    <contour>
      <point x="408" y="409" type="line"/>
      <point x="408" y="536" type="line"/>
      <point x="19" y="536" type="line"/>
      <point x="19" y="502" type="line"/>
      <point x="68" y="499" type="line" smooth="yes"/>
      <point x="80" y="498"/>
      <point x="85" y="489"/>
      <point x="85" y="481" type="curve" smooth="yes"/>
      <point x="85" y="55" type="line" smooth="yes"/>
      <point x="85" y="47"/>
      <point x="80" y="38"/>
      <point x="68" y="37" type="curve" smooth="yes"/>
      <point x="26" y="34" type="line"/>
      <point x="26" y="0" type="line"/>
      <point x="236" y="0" type="line"/>
      <point x="236" y="34" type="line"/>
      <point x="183" y="37" type="line" smooth="yes"/>
      <point x="171" y="38"/>
      <point x="166" y="47"/>
      <point x="166" y="55" type="curve" smooth="yes"/>
      <point x="166" y="250" type="line"/>
      <point x="288" y="250" type="line" smooth="yes"/>
      <point x="295" y="250"/>
      <point x="302" y="241"/>
      <point x="303" y="235" type="curve" smooth="yes"/>
      <point x="310" y="180" type="line"/>
      <point x="350" y="180" type="line"/>
      <point x="350" y="360" type="line"/>
      <point x="310" y="360" type="line"/>
      <point x="303" y="303" type="line" smooth="yes"/>
      <point x="302" y="298"/>
      <point x="296" y="289"/>
      <point x="288" y="289" type="curve" smooth="yes"/>
      <point x="166" y="289" type="line"/>
      <point x="166" y="497" type="line"/>
      <point x="336" y="497" type="line" smooth="yes"/>
      <point x="344" y="497"/>
      <point x="348" y="491"/>
      <point x="350" y="483" type="curve" smooth="yes"/>
      <point x="361" y="409" type="line"/>
    </contour>
  </outline>
</glyph>
<glyph name="G" format="2">
  <advance width="555"/>
  <unicode hex="0047"/>
  <anchor x="299" y="0" name="H"/>
  <anchor x="299" y="585" name="U"/>
  <outline>
    <contour>
      <point x="535" y="224" type="line"/>
      <point x="535" y="259" type="line"/>
      <point x="327" y="259" type="line"/>
      <point x="327" y="224" type="line"/>
      <point x="380" y="220" type="line" smooth="yes"/>
      <point x="392" y="219"/>
      <point x="397" y="212"/>
      <point x="397" y="203" type="curve" smooth="yes"/>
      <point x="397" y="44" type="line"/>
      <point x="393" y="44"/>
      <point x="362" y="32"/>
      <point x="327" y="32" type="curve" smooth="yes"/>
      <point x="202" y="32"/>
      <point x="122" y="119"/>
      <point x="122" y="273" type="curve" smooth="yes"/>
      <point x="122" y="422"/>
      <point x="202" y="504"/>
      <point x="317" y="504" type="curve" smooth="yes"/>
      <point x="355" y="504"/>
      <point x="385" y="490"/>
      <point x="400" y="483" type="curve" smooth="yes"/>
      <point x="407" y="480"/>
      <point x="415" y="474"/>
      <point x="416" y="464" type="curve" smooth="yes"/>
      <point x="429" y="392" type="line"/>
      <point x="477" y="392" type="line"/>
      <point x="477" y="522" type="line"/>
      <point x="428" y="535"/>
      <point x="380" y="549"/>
      <point x="320" y="549" type="curve" smooth="yes"/>
      <point x="141" y="549"/>
      <point x="31" y="437"/>
      <point x="31" y="269" type="curve" smooth="yes"/>
      <point x="31" y="121"/>
      <point x="132" y="-12"/>
      <point x="310" y="-12" type="curve" smooth="yes"/>
      <point x="396" y="-12"/>
      <point x="478" y="19"/>
      <point x="478" y="19" type="curve"/>
      <point x="478" y="203" type="line" smooth="yes"/>
      <point x="478" y="212"/>
      <point x="483" y="219"/>
      <point x="495" y="220" type="curve" smooth="yes"/>
    </contour>
  </outline>
</glyph>
<glyph name="H" format="2">
  <advance width="597"/>
  <unicode hex="0048"/>
  <outline>
    <contour>
      <point x="359" y="0" type="line"/>
      <point x="567" y="0" type="line"/>
      <point x="567" y="23" type="line"/>
      <point x="525" y="31"/>
      <point x="505" y="43"/>
      <point x="505" y="50" type="curve" smooth="yes"/>
      <point x="505" y="503" type="line" smooth="yes"/>
      <point x="505" y="511"/>
      <point x="528" y="522"/>
      <point x="567" y="530" type="curve"/>
      <point x="567" y="553" type="line"/>
      <point x="359" y="553" type="line"/>
      <point x="359" y="530" type="line"/>
      <point x="401" y="522"/>
      <point x="421" y="510"/>
      <point x="421" y="503" type="curve" smooth="yes"/>
      <point x="421" y="50" type="line" smooth="yes"/>
      <point x="421" y="42"/>
      <point x="398" y="31"/>
      <point x="359" y="23" type="curve"/>
    </contour>
    <contour>
      <point x="154" y="268" type="line"/>
      <point x="430" y="268" type="line"/>
      <point x="430" y="312" type="line"/>
      <point x="154" y="312" type="line"/>
    </contour>
    <contour>
      <point x="20" y="0" type="line"/>
      <point x="229" y="0" type="line"/>
      <point x="229" y="23" type="line"/>
      <point x="186" y="31"/>
      <point x="166" y="43"/>
      <point x="166" y="50" type="curve" smooth="yes"/>
      <point x="166" y="503" type="line" smooth="yes"/>
      <point x="166" y="511"/>
      <point x="190" y="522"/>
      <point x="229" y="530" type="curve"/>
      <point x="229" y="553" type="line"/>
      <point x="20" y="553" type="line"/>
      <point x="20" y="530" type="line"/>
      <point x="63" y="522"/>
      <point x="83" y="510"/>
      <point x="83" y="503" type="curve" smooth="yes"/>
      <point x="83" y="50" type="line" smooth="yes"/>
      <point x="83" y="42"/>
      <point x="60" y="31"/>
      <point x="20" y="23" type="curve"/>
    </contour>
  </outline>
</glyph>
<glyph name="I" format="2">
  <advance width="264"/>
  <unicode hex="0049"/>
  <anchor x="132" y="0" name="H"/>
  <anchor x="132" y="585" name="U"/>
  <outline>
    <contour>
      <point x="237" y="0" type="line"/>
      <point x="237" y="34" type="line"/>
      <point x="188" y="37" type="line" smooth="yes"/>
      <point x="177" y="38"/>
      <point x="171" y="47"/>
      <point x="171" y="55" type="curve" smooth="yes"/>
      <point x="171" y="481" type="line" smooth="yes"/>
      <point x="171" y="489"/>
      <point x="177" y="497"/>
      <point x="188" y="498" type="curve" smooth="yes"/>
      <point x="237" y="501" type="line"/>
      <point x="237" y="536" type="line"/>
      <point x="26" y="536" type="line"/>
      <point x="26" y="501" type="line"/>
      <point x="74" y="498" type="line" smooth="yes"/>
      <point x="85" y="497"/>
      <point x="91" y="489"/>
      <point x="91" y="481" type="curve" smooth="yes"/>
      <point x="91" y="55" type="line" smooth="yes"/>
      <point x="91" y="47"/>
      <point x="85" y="38"/>
      <point x="74" y="37" type="curve" smooth="yes"/>
      <point x="26" y="34" type="line"/>
      <point x="26" y="0" type="line"/>
    </contour>
  </outline>
</glyph>
<glyph name="J" format="2">
  <advance width="283"/>
  <unicode hex="004A"/>
  <outline>
    <contour>
      <point x="253" y="530" type="curve"/>
      <point x="253" y="553" type="line"/>
      <point x="23" y="553" type="line"/>
      <point x="23" y="530" type="line"/>
      <point x="93" y="520"/>
      <point x="107" y="510"/>
      <point x="107" y="503" type="curve" smooth="yes"/>
      <point x="107" y="55" type="line" smooth="yes"/>
      <point x="107" y="-82"/>
      <point x="68" y="-111"/>
      <point x="38" y="-111" type="curve" smooth="yes"/>
      <point x="15" y="-111"/>
      <point x="-3" y="-106"/>
      <point x="-35" y="-82" type="curve"/>
      <point x="-52" y="-88"/>
      <point x="-94" y="-124"/>
      <point x="-94" y="-135" type="curve" smooth="yes"/>
      <point x="-94" y="-146"/>
      <point x="-52" y="-172"/>
      <point x="-10" y="-172" type="curve" smooth="yes"/>
      <point x="17" y="-172"/>
      <point x="67" y="-155"/>
      <point x="98" y="-129" type="curve" smooth="yes"/>
      <point x="144" y="-92"/>
      <point x="191" y="-48"/>
      <point x="191" y="86" type="curve" smooth="yes"/>
      <point x="191" y="503" type="line" smooth="yes"/>
      <point x="191" y="511"/>
      <point x="214" y="522"/>
    </contour>
  </outline>
</glyph>
<glyph name="K" format="2">
  <advance width="532"/>
  <unicode hex="004B"/>
  <outline>
    <contour>
      <point x="500" y="530" type="curve"/>
      <point x="500" y="553" type="line"/>
      <point x="312" y="553" type="line"/>
      <point x="312" y="530" type="line"/>
      <point x="358" y="526"/>
      <point x="368" y="522"/>
      <point x="341" y="491" type="curve" smooth="yes"/>
      <point x="164" y="282" type="line"/>
      <point x="225" y="282" type="line"/>
      <point x="428" y="503" type="line" smooth="yes"/>
      <point x="446" y="522"/>
      <point x="463" y="525"/>
    </contour>
    <contour>
      <point x="529" y="18" type="curve"/>
      <point x="526" y="41" type="line"/>
      <point x="495" y="38"/>
      <point x="469" y="39"/>
      <point x="449" y="61" type="curve" smooth="yes"/>
      <point x="218" y="316" type="line"/>
      <point x="164" y="282" type="line"/>
      <point x="382" y="12" type="line" smooth="yes"/>
      <point x="394" y="-1"/>
      <point x="407" y="-6"/>
      <point x="424" y="-6" type="curve" smooth="yes"/>
      <point x="452" y="-6"/>
      <point x="494" y="7"/>
    </contour>
    <contour>
      <point x="20" y="0" type="line"/>
      <point x="229" y="0" type="line"/>
      <point x="229" y="23" type="line"/>
      <point x="186" y="31"/>
      <point x="166" y="43"/>
      <point x="166" y="50" type="curve" smooth="yes"/>
      <point x="166" y="503" type="line" smooth="yes"/>
      <point x="166" y="511"/>
      <point x="190" y="522"/>
      <point x="229" y="530" type="curve"/>
      <point x="229" y="553" type="line"/>
      <point x="20" y="553" type="line"/>
      <point x="20" y="530" type="line"/>
      <point x="63" y="522"/>
      <point x="83" y="510"/>
      <point x="83" y="503" type="curve" smooth="yes"/>
      <point x="83" y="50" type="line" smooth="yes"/>
      <point x="83" y="42"/>
      <point x="60" y="31"/>
      <point x="20" y="23" type="curve"/>
    </contour>
  </outline>
</glyph>
<glyph name="L" format="2">
  <advance width="424"/>
  <unicode hex="004C"/>
  <anchor x="216" y="0" name="H"/>
  <anchor x="216" y="585" name="U"/>
  <outline>
    <contour>
      <point x="410" y="0" type="line"/>
      <point x="410" y="148" type="line"/>
      <point x="364" y="148" type="line"/>
      <point x="351" y="52" type="line" smooth="yes"/>
      <point x="350" y="45"/>
      <point x="340" y="39"/>
      <point x="333" y="39" type="curve" smooth="yes"/>
      <point x="165" y="39" type="line"/>
      <point x="165" y="481" type="line" smooth="yes"/>
      <point x="165" y="489"/>
      <point x="171" y="498"/>
      <point x="183" y="499" type="curve" smooth="yes"/>
      <point x="225" y="502" type="line"/>
      <point x="225" y="536" type="line"/>
      <point x="21" y="536" type="line"/>
      <point x="21" y="502" type="line"/>
      <point x="67" y="499" type="line" smooth="yes"/>
      <point x="79" y="498"/>
      <point x="84" y="489"/>
      <point x="84" y="481" type="curve" smooth="yes"/>
      <point x="84" y="55" type="line" smooth="yes"/>
      <point x="84" y="47"/>
      <point x="79" y="38"/>
      <point x="67" y="37" type="curve" smooth="yes"/>
      <point x="21" y="34" type="line"/>
      <point x="21" y="0" type="line"/>
    </contour>
  </outline>
</glyph>
<glyph name="M" format="2">
  <advance width="700"/>
  <unicode hex="004D"/>
  <anchor x="575" y="0" name="H"/>
  <anchor x="349" y="585" name="U"/>
  <outline>
    <contour>
      <point x="676" y="0" type="line"/>
      <point x="676" y="34" type="line"/>
      <point x="632" y="37" type="line" smooth="yes"/>
      <point x="621" y="38"/>
      <point x="615" y="47"/>
      <point x="615" y="55" type="curve" smooth="yes"/>
      <point x="615" y="481" type="line" smooth="yes"/>
      <point x="615" y="489"/>
      <point x="621" y="498"/>
      <point x="632" y="499" type="curve" smooth="yes"/>
      <point x="676" y="502" type="line"/>
      <point x="676" y="536" type="line"/>
      <point x="492" y="536" type="line"/>
      <point x="492" y="512" type="line"/>
      <point x="347" y="122" type="line"/>
      <point x="202" y="515" type="line"/>
      <point x="202" y="536" type="line"/>
      <point x="23" y="536" type="line"/>
      <point x="23" y="502" type="line"/>
      <point x="68" y="499" type="line" smooth="yes"/>
      <point x="80" y="498"/>
      <point x="85" y="489"/>
      <point x="85" y="481" type="curve" smooth="yes"/>
      <point x="85" y="55" type="line" smooth="yes"/>
      <point x="85" y="47"/>
      <point x="80" y="38"/>
      <point x="68" y="37" type="curve" smooth="yes"/>
      <point x="23" y="34" type="line"/>
      <point x="23" y="0" type="line"/>
      <point x="196" y="0" type="line"/>
      <point x="196" y="34" type="line"/>
      <point x="150" y="37" type="line" smooth="yes"/>
      <point x="139" y="38"/>
      <point x="132" y="47"/>
      <point x="132" y="55" type="curve" smooth="yes"/>
      <point x="132" y="488" type="line"/>
      <point x="310" y="0" type="line"/>
      <point x="350" y="0" type="line"/>
      <point x="534" y="496" type="line"/>
      <point x="534" y="55" type="line" smooth="yes"/>
      <point x="534" y="47"/>
      <point x="528" y="38"/>
      <point x="516" y="37" type="curve" smooth="yes"/>
      <point x="474" y="34" type="line"/>
      <point x="474" y="0" type="line"/>
    </contour>
  </outline>
</glyph>
<glyph name="N" format="2">
  <advance width="576"/>
  <unicode hex="004E"/>
  <anchor x="460" y="0" name="H"/>
  <anchor x="286" y="585" name="U"/>
  <outline>
    <contour>
      <point x="553" y="502" type="line"/>
      <point x="553" y="536" type="line"/>
      <point x="382" y="536" type="line"/>
      <point x="382" y="502" type="line"/>
      <point x="428" y="499" type="line" smooth="yes"/>
      <point x="439" y="498"/>
      <point x="444" y="489"/>
      <point x="444" y="481" type="curve" smooth="yes"/>
      <point x="444" y="114" type="line"/>
      <point x="178" y="516" type="line"/>
      <point x="178" y="536" type="line"/>
      <point x="19" y="536" type="line"/>
      <point x="19" y="502" type="line"/>
      <point x="67" y="499" type="line" smooth="yes"/>
      <point x="78" y="498"/>
      <point x="84" y="489"/>
      <point x="84" y="481" type="curve" smooth="yes"/>
      <point x="84" y="55" type="line" smooth="yes"/>
      <point x="84" y="47"/>
      <point x="78" y="38"/>
      <point x="67" y="37" type="curve" smooth="yes"/>
      <point x="21" y="34" type="line"/>
      <point x="21" y="0" type="line"/>
      <point x="194" y="0" type="line"/>
      <point x="194" y="34" type="line"/>
      <point x="148" y="37" type="line" smooth="yes"/>
      <point x="137" y="38"/>
      <point x="132" y="47"/>
      <point x="132" y="55" type="curve" smooth="yes"/>
      <point x="132" y="448" type="line"/>
      <point x="429" y="0" type="line"/>
      <point x="492" y="0" type="line"/>
      <point x="492" y="481" type="line" smooth="yes"/>
      <point x="492" y="489"/>
      <point x="497" y="498"/>
      <point x="508" y="499" type="curve" smooth="yes"/>
    </contour>
  </outline>
</glyph>
<glyph name="O" format="2">
  <advance width="546"/>
  <unicode hex="004F"/>
  <outline>
    <contour>
      <point x="256" y="-13" type="curve" smooth="yes"/>
      <point x="393" y="-13"/>
      <point x="509" y="125"/>
      <point x="509" y="284" type="curve" smooth="yes"/>
      <point x="509" y="427"/>
      <point x="430" y="566"/>
      <point x="282" y="566" type="curve" smooth="yes"/>
      <point x="138" y="566"/>
      <point x="29" y="428"/>
      <point x="29" y="268" type="curve" smooth="yes"/>
      <point x="29" y="121"/>
      <point x="113" y="-13"/>
    </contour>
    <contour>
      <point x="271" y="41" type="curve" smooth="yes"/>
      <point x="184" y="41"/>
      <point x="111" y="150"/>
      <point x="111" y="281" type="curve" smooth="yes"/>
      <point x="111" y="424"/>
      <point x="168" y="514"/>
      <point x="266" y="514" type="curve" smooth="yes"/>
      <point x="362" y="514"/>
      <point x="427" y="397"/>
      <point x="427" y="276" type="curve" smooth="yes"/>
      <point x="427" y="121"/>
      <point x="362" y="41"/>
    </contour>
  </outline>
</glyph>
<glyph name="P" format="2">
  <advance width="483"/>
  <unicode hex="0050"/>
  <outline>
    <contour>
      <point x="446" y="411" type="curve"/>
      <point x="446" y="511"/>
      <point x="362" y="566"/>
      <point x="232" y="566" type="curve" smooth="yes"/>
      <point x="159" y="566"/>
      <point x="75" y="555"/>
      <point x="16" y="540" type="curve"/>
      <point x="20" y="508" type="line"/>
      <point x="77" y="518"/>
      <point x="146" y="526"/>
      <point x="207" y="526" type="curve" smooth="yes"/>
      <point x="296" y="526"/>
      <point x="364" y="485"/>
      <point x="364" y="393" type="curve" smooth="yes"/>
      <point x="364" y="310"/>
      <point x="300" y="270"/>
      <point x="247" y="270" type="curve" smooth="yes"/>
      <point x="226" y="270"/>
      <point x="206" y="272"/>
      <point x="181" y="283" type="curve"/>
      <point x="193" y="246" type="line"/>
      <point x="212" y="237"/>
      <point x="238" y="232"/>
      <point x="264" y="232" type="curve" smooth="yes"/>
      <point x="336" y="232"/>
      <point x="446" y="289"/>
    </contour>
    <contour>
      <point x="20" y="0" type="line"/>
      <point x="242" y="0" type="line"/>
      <point x="242" y="23" type="line"/>
      <point x="181" y="33"/>
      <point x="166" y="43"/>
      <point x="166" y="50" type="curve" smooth="yes"/>
      <point x="166" y="528" type="line"/>
      <point x="83" y="528" type="line"/>
      <point x="83" y="50" type="line" smooth="yes"/>
      <point x="83" y="42"/>
      <point x="60" y="31"/>
      <point x="20" y="23" type="curve"/>
    </contour>
  </outline>
</glyph>
<glyph name="Q" format="2">
  <advance width="546"/>
  <unicode hex="0051"/>
  <outline>
    <contour>
      <point x="508" y="284" type="curve"/>
      <point x="508" y="427"/>
      <point x="429" y="566"/>
      <point x="281" y="566" type="curve" smooth="yes"/>
      <point x="137" y="566"/>
      <point x="28" y="428"/>
      <point x="28" y="268" type="curve" smooth="yes"/>
      <point x="28" y="116"/>
      <point x="121" y="-13"/>
      <point x="255" y="-13" type="curve" smooth="yes"/>
      <point x="392" y="-13"/>
      <point x="508" y="125"/>
    </contour>
    <contour>
      <point x="583" y="-52" type="curve"/>
      <point x="567" y="-32" type="line"/>
      <point x="533" y="-58"/>
      <point x="518" y="-65"/>
      <point x="504" y="-65" type="curve" smooth="yes"/>
      <point x="448" y="-65"/>
      <point x="379" y="3"/>
      <point x="308" y="21" type="curve" smooth="yes"/>
      <point x="292" y="25"/>
      <point x="223" y="8"/>
      <point x="223" y="8" type="curve"/>
      <point x="316" y="-7"/>
      <point x="407" y="-137"/>
      <point x="501" y="-137" type="curve" smooth="yes"/>
      <point x="519" y="-137"/>
      <point x="555" y="-103"/>
    </contour>
    <contour>
      <point x="426" y="276" type="curve"/>
      <point x="426" y="121"/>
      <point x="361" y="41"/>
      <point x="270" y="41" type="curve" smooth="yes"/>
      <point x="184" y="41"/>
      <point x="110" y="150"/>
      <point x="110" y="281" type="curve" smooth="yes"/>
      <point x="110" y="424"/>
      <point x="167" y="514"/>
      <point x="265" y="514" type="curve" smooth="yes"/>
      <point x="361" y="514"/>
      <point x="426" y="397"/>
    </contour>
  </outline>
</glyph>
<glyph name="R" format="2">
  <advance width="519"/>
  <unicode hex="0052"/>
  <anchor x="125" y="0" name="H"/>
  <anchor x="235" y="585" name="U"/>
  <outline>
    <contour>
      <point x="519" y="-2" type="curve"/>
      <point x="519" y="33" type="line"/>
      <point x="344" y="33"/>
      <point x="472" y="219"/>
      <point x="299" y="260" type="curve"/>
      <point x="367" y="276"/>
      <point x="430" y="310"/>
      <point x="430" y="394" type="curve" smooth="yes"/>
      <point x="430" y="500"/>
      <point x="355" y="536"/>
      <point x="234" y="536" type="curve" smooth="yes"/>
      <point x="25" y="536" type="line"/>
      <point x="25" y="502" type="line"/>
      <point x="67" y="499" type="line" smooth="yes"/>
      <point x="78" y="498"/>
      <point x="84" y="489"/>
      <point x="84" y="481" type="curve" smooth="yes"/>
      <point x="84" y="55" type="line" smooth="yes"/>
      <point x="84" y="47"/>
      <point x="78" y="38"/>
      <point x="67" y="37" type="curve" smooth="yes"/>
      <point x="25" y="34" type="line"/>
      <point x="25" y="0" type="line"/>
      <point x="224" y="0" type="line"/>
      <point x="224" y="34" type="line"/>
      <point x="182" y="37" type="line" smooth="yes"/>
      <point x="171" y="38"/>
      <point x="165" y="47"/>
      <point x="165" y="55" type="curve" smooth="yes"/>
      <point x="165" y="237" type="line"/>
      <point x="167" y="237"/>
      <point x="184" y="239"/>
      <point x="201" y="239" type="curve" smooth="yes"/>
      <point x="397" y="239"/>
      <point x="275" y="-12"/>
      <point x="466" y="-12" type="curve" smooth="yes"/>
      <point x="490" y="-12"/>
      <point x="512" y="-3"/>
    </contour>
    <contour>
      <point x="343" y="391" type="curve" smooth="yes"/>
      <point x="343" y="305"/>
      <point x="294" y="277"/>
      <point x="205" y="277" type="curve" smooth="yes"/>
      <point x="192" y="277"/>
      <point x="167" y="278"/>
      <point x="165" y="278" type="curve"/>
      <point x="165" y="497" type="line"/>
      <point x="167" y="497"/>
      <point x="202" y="497"/>
      <point x="202" y="497" type="curve"/>
      <point x="303" y="497"/>
      <point x="343" y="459"/>
    </contour>
  </outline>
</glyph>
<glyph name="S" format="2">
  <advance width="439"/>
  <unicode hex="0053"/>
  <outline>
    <contour>
      <point x="338" y="459" type="line"/>
      <point x="352" y="471"/>
      <point x="382" y="519"/>
      <point x="373" y="526" type="curve"/>
      <point x="352" y="549"/>
      <point x="294" y="566"/>
      <point x="237" y="566" type="curve" smooth="yes"/>
      <point x="104" y="566"/>
      <point x="53" y="478"/>
      <point x="53" y="423" type="curve" smooth="yes"/>
      <point x="53" y="253"/>
      <point x="328" y="283"/>
      <point x="328" y="140" type="curve" smooth="yes"/>
      <point x="328" y="84"/>
      <point x="272" y="42"/>
      <point x="220" y="42" type="curve" smooth="yes"/>
      <point x="160" y="42"/>
      <point x="105" y="79"/>
      <point x="78" y="148" type="curve"/>
      <point x="56" y="151" type="line"/>
      <point x="46" y="115"/>
      <point x="47" y="34"/>
      <point x="55" y="29" type="curve" smooth="yes"/>
      <point x="96" y="3"/>
      <point x="157" y="-13"/>
      <point x="197" y="-13" type="curve" smooth="yes"/>
      <point x="335" y="-13"/>
      <point x="401" y="87"/>
      <point x="401" y="165" type="curve" smooth="yes"/>
      <point x="401" y="339"/>
      <point x="123" y="335"/>
      <point x="123" y="446" type="curve" smooth="yes"/>
      <point x="123" y="480"/>
      <point x="150" y="520"/>
      <point x="212" y="520" type="curve" smooth="yes"/>
      <point x="246" y="520"/>
      <point x="287" y="505"/>
      <point x="318" y="461" type="curve"/>
    </contour>
  </outline>
</glyph>
<glyph name="T" format="2">
  <advance width="504"/>
  <unicode hex="0054"/>
  <outline>
    <contour>
      <point x="485" y="541" type="curve"/>
      <point x="471" y="553" type="line"/>
      <point x="259" y="553" type="line"/>
      <point x="246" y="509" type="line"/>
      <point x="407" y="509" type="line" smooth="yes"/>
      <point x="432" y="509"/>
      <point x="435" y="485"/>
      <point x="447" y="430" type="curve"/>
      <point x="471" y="430" type="line"/>
      <point x="478" y="467"/>
      <point x="484" y="511"/>
    </contour>
    <contour>
      <point x="79" y="509" type="curve" smooth="yes"/>
      <point x="282" y="509" type="line"/>
      <point x="272" y="553" type="line"/>
      <point x="18" y="553" type="line"/>
      <point x="12" y="522"/>
      <point x="5" y="471"/>
      <point x="3" y="437" type="curve"/>
      <point x="26" y="427" type="line"/>
      <point x="52" y="496"/>
      <point x="61" y="509"/>
    </contour>
    <contour>
      <point x="133" y="0" type="line"/>
      <point x="359" y="0" type="line"/>
      <point x="359" y="23" type="line"/>
      <point x="305" y="34"/>
      <point x="288" y="47"/>
      <point x="288" y="54" type="curve" smooth="yes"/>
      <point x="288" y="512" type="line" smooth="yes"/>
      <point x="288" y="520"/>
      <point x="311" y="522"/>
      <point x="351" y="530" type="curve"/>
      <point x="351" y="553" type="line"/>
      <point x="143" y="553" type="line"/>
      <point x="143" y="530" type="line"/>
      <point x="185" y="522"/>
      <point x="204" y="519"/>
      <point x="204" y="512" type="curve" smooth="yes"/>
      <point x="204" y="54" type="line" smooth="yes"/>
      <point x="204" y="46"/>
      <point x="187" y="34"/>
      <point x="133" y="23" type="curve"/>
    </contour>
  </outline>
</glyph>
<glyph name="U" format="2">
  <advance width="569"/>
  <unicode hex="0055"/>
  <anchor x="286" y="0" name="H"/>
  <anchor x="292" y="585" name="U"/>
  <outline>
    <contour>
      <point x="548" y="502" type="line"/>
      <point x="548" y="536" type="line"/>
      <point x="374" y="536" type="line"/>
      <point x="374" y="502" type="line"/>
      <point x="419" y="499" type="line" smooth="yes"/>
      <point x="431" y="498"/>
      <point x="437" y="489"/>
      <point x="437" y="481" type="curve" smooth="yes"/>
      <point x="437" y="198" type="line" smooth="yes"/>
      <point x="437" y="109"/>
      <point x="411" y="40"/>
      <point x="300" y="40" type="curve" smooth="yes"/>
      <point x="189" y="40"/>
      <point x="165" y="104"/>
      <point x="165" y="198" type="curve" smooth="yes"/>
      <point x="165" y="481" type="line" smooth="yes"/>
      <point x="165" y="489"/>
      <point x="171" y="498"/>
      <point x="182" y="499" type="curve" smooth="yes"/>
      <point x="228" y="502" type="line"/>
      <point x="228" y="536" type="line"/>
      <point x="24" y="536" type="line"/>
      <point x="24" y="502" type="line"/>
      <point x="67" y="499" type="line" smooth="yes"/>
      <point x="78" y="498"/>
      <point x="83" y="489"/>
      <point x="83" y="481" type="curve" smooth="yes"/>
      <point x="83" y="177" type="line" smooth="yes"/>
      <point x="83" y="51"/>
      <point x="147" y="-12"/>
      <point x="279" y="-12" type="curve" smooth="yes"/>
      <point x="412" y="-12"/>
      <point x="484" y="46"/>
      <point x="484" y="177" type="curve" smooth="yes"/>
      <point x="484" y="481" type="line" smooth="yes"/>
      <point x="484" y="489"/>
      <point x="490" y="498"/>
      <point x="501" y="499" type="curve" smooth="yes"/>
    </contour>
  </outline>
</glyph>
<glyph name="V" format="2">
  <advance width="532"/>
  <unicode hex="0056"/>
  <anchor x="270" y="0" name="H"/>
  <anchor x="275" y="585" name="U"/>
  <outline>
    <contour>
      <point x="524" y="502" type="line"/>
      <point x="524" y="536" type="line"/>
      <point x="365" y="536" type="line"/>
      <point x="365" y="502" type="line"/>
      <point x="409" y="498" type="line" smooth="yes"/>
      <point x="416" y="497"/>
      <point x="423" y="488"/>
      <point x="420" y="482" type="curve" smooth="yes"/>
      <point x="285" y="88" type="line"/>
      <point x="144" y="483" type="line" smooth="yes"/>
      <point x="143" y="488"/>
      <point x="146" y="497"/>
      <point x="151" y="498" type="curve" smooth="yes"/>
      <point x="199" y="502" type="line"/>
      <point x="199" y="536" type="line"/>
      <point x="7" y="536" type="line"/>
      <point x="7" y="502" type="line"/>
      <point x="55" y="494" type="line"/>
      <point x="238" y="-12" type="line"/>
      <point x="299" y="-12" type="line"/>
      <point x="478" y="493" type="line"/>
    </contour>
  </outline>
</glyph>
<glyph name="W" format="2">
  <advance width="765"/>
  <unicode hex="0057"/>
  <outline>
    <contour>
      <point x="752" y="530" type="curve"/>
      <point x="752" y="553" type="line"/>
      <point x="562" y="553" type="line"/>
      <point x="562" y="530" type="line"/>
      <point x="602" y="523"/>
      <point x="633" y="516"/>
      <point x="630" y="503" type="curve"/>
      <point x="552" y="129" type="line"/>
      <point x="399" y="553" type="line"/>
      <point x="368" y="553" type="line"/>
      <point x="230" y="129" type="line"/>
      <point x="147" y="499" type="line" smooth="yes"/>
      <point x="144" y="512"/>
      <point x="148" y="524"/>
      <point x="206" y="530" type="curve"/>
      <point x="206" y="553" type="line"/>
      <point x="8" y="553" type="line"/>
      <point x="8" y="530" type="line"/>
      <point x="50" y="522"/>
      <point x="66" y="514"/>
      <point x="69" y="499" type="curve" smooth="yes"/>
      <point x="183" y="-13" type="line"/>
      <point x="207" y="-7"/>
      <point x="242" y="0"/>
      <point x="251" y="25" type="curve" smooth="yes"/>
      <point x="377" y="404" type="line"/>
      <point x="522" y="-13" type="line"/>
      <point x="540" y="-9"/>
      <point x="579" y="0"/>
      <point x="584" y="25" type="curve" smooth="yes"/>
      <point x="685" y="503" type="line" smooth="yes"/>
      <point x="687" y="512"/>
      <point x="700" y="519"/>
    </contour>
  </outline>
</glyph>
<glyph name="X" format="2">
  <advance width="558"/>
  <unicode hex="0058"/>
  <outline>
    <contour>
      <point x="524" y="530" type="curve"/>
      <point x="524" y="553" type="line"/>
      <point x="324" y="553" type="line"/>
      <point x="324" y="530" type="line"/>
      <point x="377" y="526"/>
      <point x="394" y="519"/>
      <point x="378" y="493" type="curve" smooth="yes"/>
      <point x="254" y="295" type="line"/>
      <point x="278" y="230" type="line"/>
      <point x="443" y="493" type="line" smooth="yes"/>
      <point x="459" y="518"/>
      <point x="481" y="525"/>
    </contour>
    <contour>
      <point x="335" y="0" type="line"/>
      <point x="545" y="0" type="line"/>
      <point x="545" y="23" type="line"/>
      <point x="511" y="27"/>
      <point x="494" y="35"/>
      <point x="477" y="60" type="curve" smooth="yes"/>
      <point x="181" y="493" type="line" smooth="yes"/>
      <point x="163" y="518"/>
      <point x="178" y="525"/>
      <point x="228" y="530" type="curve"/>
      <point x="228" y="553" type="line"/>
      <point x="16" y="553" type="line"/>
      <point x="16" y="530" type="line"/>
      <point x="55" y="524"/>
      <point x="67" y="519"/>
      <point x="85" y="493" type="curve" smooth="yes"/>
      <point x="381" y="60" type="line" smooth="yes"/>
      <point x="397" y="36"/>
      <point x="386" y="28"/>
      <point x="335" y="23" type="curve"/>
    </contour>
    <contour>
      <point x="157" y="60" type="curve" smooth="yes"/>
      <point x="280" y="254" type="line"/>
      <point x="261" y="330" type="line"/>
      <point x="92" y="60" type="line" smooth="yes"/>
      <point x="77" y="36"/>
      <point x="50" y="25"/>
      <point x="12" y="23" type="curve"/>
      <point x="12" y="0" type="line"/>
      <point x="210" y="0" type="line"/>
      <point x="210" y="23" type="line"/>
      <point x="156" y="26"/>
      <point x="141" y="34"/>
    </contour>
  </outline>
</glyph>
<glyph name="Y" format="2">
  <advance width="500"/>
  <unicode hex="0059"/>
  <anchor x="250" y="585" name="U"/>
  <outline>
    <contour>
      <point x="492" y="502" type="line"/>
      <point x="492" y="536" type="line"/>
      <point x="330" y="536" type="line"/>
      <point x="330" y="502" type="line"/>
      <point x="375" y="496" type="line" smooth="yes"/>
      <point x="383" y="496"/>
      <point x="389" y="487"/>
      <point x="384" y="480" type="curve" smooth="yes"/>
      <point x="260" y="273" type="line"/>
      <point x="148" y="482" type="line" smooth="yes"/>
      <point x="144" y="488"/>
      <point x="144" y="496"/>
      <point x="157" y="498" type="curve" smooth="yes"/>
      <point x="197" y="502" type="line"/>
      <point x="197" y="536" type="line"/>
      <point x="7" y="536" type="line"/>
      <point x="7" y="502" type="line"/>
      <point x="54" y="492" type="line"/>
      <point x="207" y="216" type="line"/>
      <point x="207" y="55" type="line" smooth="yes"/>
      <point x="207" y="47"/>
      <point x="201" y="38"/>
      <point x="190" y="37" type="curve" smooth="yes"/>
      <point x="140" y="34" type="line"/>
      <point x="140" y="0" type="line"/>
      <point x="356" y="0" type="line"/>
      <point x="356" y="34" type="line"/>
      <point x="305" y="37" type="line" smooth="yes"/>
      <point x="294" y="38"/>
      <point x="288" y="47"/>
      <point x="288" y="55" type="curve" smooth="yes"/>
      <point x="288" y="228" type="line"/>
      <point x="449" y="494" type="line"/>
    </contour>
  </outline>
</glyph>
<glyph name="Z" format="2">
  <advance width="460"/>
  <unicode hex="005A"/>
  <anchor x="238" y="585" name="U"/>
  <outline>
    <contour>
      <point x="428" y="0" type="line"/>
      <point x="428" y="148" type="line"/>
      <point x="381" y="148" type="line"/>
      <point x="367" y="55" type="line" smooth="yes"/>
      <point x="366" y="47"/>
      <point x="361" y="40"/>
      <point x="354" y="40" type="curve" smooth="yes"/>
      <point x="126" y="40" type="line"/>
      <point x="424" y="500" type="line"/>
      <point x="424" y="536" type="line"/>
      <point x="48" y="536" type="line"/>
      <point x="48" y="408" type="line"/>
      <point x="95" y="408" type="line"/>
      <point x="107" y="483" type="line" smooth="yes"/>
      <point x="108" y="491"/>
      <point x="113" y="496"/>
      <point x="120" y="496" type="curve" smooth="yes"/>
      <point x="328" y="496" type="line"/>
      <point x="31" y="35" type="line"/>
      <point x="31" y="0" type="line"/>
    </contour>
  </outline>
</glyph>
<glyph name="bracketleft" format="2">
  <advance width="276"/>
  <unicode hex="005B"/>
  <outline>
    <contour>
      <point x="259" y="-109" type="curve"/>
      <point x="243" y="-96" type="line"/>
      <point x="123" y="-96" type="line"/>
      <point x="123" y="652" type="line"/>
      <point x="246" y="652" type="line"/>
      <point x="250" y="659"/>
      <point x="255" y="677"/>
      <point x="258" y="691" type="curve"/>
      <point x="243" y="703" type="line"/>
      <point x="61" y="703" type="line"/>
      <point x="61" y="-147" type="line"/>
      <point x="246" y="-147" type="line"/>
      <point x="250" y="-137"/>
      <point x="256" y="-120"/>
    </contour>
  </outline>
</glyph>
<glyph name="backslash" format="2">
  <advance width="422"/>
  <unicode hex="005C"/>
  <outline>
    <contour>
      <point x="382" y="-147" type="curve"/>
      <point x="397" y="-136" type="line"/>
      <point x="90" y="681" type="line"/>
      <point x="73" y="691"/>
      <point x="57" y="698"/>
      <point x="40" y="703" type="curve"/>
      <point x="24" y="693" type="line"/>
      <point x="332" y="-124" type="line"/>
      <point x="342" y="-132"/>
      <point x="368" y="-142"/>
    </contour>
  </outline>
</glyph>
<glyph name="bracketright" format="2">
  <advance width="276"/>
  <unicode hex="005D"/>
  <outline>
    <contour>
      <point x="32" y="-147" type="line"/>
      <point x="215" y="-147" type="line"/>
      <point x="215" y="703" type="line"/>
      <point x="29" y="703" type="line"/>
      <point x="25" y="693"/>
      <point x="19" y="676"/>
      <point x="17" y="664" type="curve"/>
      <point x="32" y="652" type="line"/>
      <point x="153" y="652" type="line"/>
      <point x="153" y="-96" type="line"/>
      <point x="29" y="-96" type="line"/>
      <point x="25" y="-104"/>
      <point x="20" y="-120"/>
      <point x="18" y="-134" type="curve"/>
    </contour>
  </outline>
</glyph>
<glyph name="underscore" format="2">
  <advance width="353"/>
  <unicode hex="005F"/>
  <outline>
    <contour>
      <point x="368" y="-69" type="curve"/>
      <point x="356" y="-57" type="line"/>
      <point x="2" y="-57" type="line"/>
      <point x="-2" y="-69"/>
      <point x="-9" y="-88"/>
      <point x="-12" y="-99" type="curve"/>
      <point x="0" y="-112" type="line"/>
      <point x="352" y="-112" type="line"/>
      <point x="357" y="-101"/>
      <point x="365" y="-81"/>
    </contour>
  </outline>
</glyph>
<glyph name="a" format="2">
  <advance width="425"/>
  <unicode hex="0061"/>
  <outline>
    <contour>
      <point x="420" y="40" type="curve"/>
      <point x="412" y="64" type="line"/>
      <point x="389" y="54"/>
      <point x="378" y="52"/>
      <point x="370" y="52" type="curve" smooth="yes"/>
      <point x="359" y="52"/>
      <point x="352" y="62"/>
      <point x="352" y="87" type="curve" smooth="yes"/>
      <point x="352" y="322" type="line" smooth="yes"/>
      <point x="352" y="382"/>
      <point x="316" y="421"/>
      <point x="246" y="421" type="curve" smooth="yes"/>
      <point x="164" y="421"/>
      <point x="71" y="368"/>
      <point x="44" y="305" type="curve"/>
      <point x="51" y="286" type="line"/>
      <point x="65" y="283"/>
      <point x="140" y="303"/>
      <point x="139" y="314" type="curve" smooth="yes"/>
      <point x="135" y="350"/>
      <point x="170" y="372"/>
      <point x="205" y="373" type="curve" smooth="yes"/>
      <point x="258" y="374"/>
      <point x="273" y="344"/>
      <point x="273" y="306" type="curve" smooth="yes"/>
      <point x="273" y="72" type="line" smooth="yes"/>
      <point x="273" y="19"/>
      <point x="288" y="-13"/>
      <point x="310" y="-13" type="curve" smooth="yes"/>
      <point x="328" y="-13"/>
      <point x="370" y="6"/>
    </contour>
    <contour>
      <point x="278" y="212" type="curve"/>
      <point x="278" y="248" type="line"/>
      <point x="137" y="227"/>
      <point x="100" y="204"/>
      <point x="71" y="176" type="curve" smooth="yes"/>
      <point x="50" y="154"/>
      <point x="32" y="127"/>
      <point x="32" y="83" type="curve" smooth="yes"/>
      <point x="32" y="15"/>
      <point x="84" y="-13"/>
      <point x="128" y="-13" type="curve" smooth="yes"/>
      <point x="168" y="-13"/>
      <point x="226" y="9"/>
      <point x="281" y="68" type="curve"/>
      <point x="278" y="107" type="line"/>
      <point x="232" y="66"/>
      <point x="195" y="50"/>
      <point x="163" y="50" type="curve" smooth="yes"/>
      <point x="148" y="50"/>
      <point x="118" y="60"/>
      <point x="118" y="105" type="curve" smooth="yes"/>
      <point x="118" y="131"/>
      <point x="128" y="149"/>
      <point x="143" y="165" type="curve" smooth="yes"/>
      <point x="161" y="184"/>
      <point x="185" y="197"/>
    </contour>
  </outline>
</glyph>
<glyph name="b" format="2">
  <advance width="457"/>
  <unicode hex="0062"/>
  <outline>
    <contour>
      <point x="417" y="216" type="curve"/>
      <point x="417" y="344"/>
      <point x="359" y="421"/>
      <point x="279" y="421" type="curve" smooth="yes"/>
      <point x="246" y="421"/>
      <point x="185" y="389"/>
      <point x="127" y="319" type="curve"/>
      <point x="127" y="666" type="line"/>
      <point x="122" y="671"/>
      <point x="116" y="676"/>
      <point x="111" y="681" type="curve"/>
      <point x="77" y="663"/>
      <point x="42" y="654"/>
      <point x="4" y="645" type="curve"/>
      <point x="4" y="628" type="line"/>
      <point x="52" y="622"/>
      <point x="61" y="621"/>
      <point x="61" y="569" type="curve" smooth="yes"/>
      <point x="61" y="42" type="line"/>
      <point x="124" y="7"/>
      <point x="183" y="-13"/>
      <point x="206" y="-13" type="curve" smooth="yes"/>
      <point x="335" y="-13"/>
      <point x="417" y="114"/>
    </contour>
    <contour>
      <point x="358" y="179" type="curve"/>
      <point x="358" y="111"/>
      <point x="320" y="43"/>
      <point x="249" y="43" type="curve" smooth="yes"/>
      <point x="228" y="43"/>
      <point x="174" y="54"/>
      <point x="127" y="89" type="curve"/>
      <point x="127" y="268" type="line"/>
      <point x="176" y="341"/>
      <point x="228" y="362"/>
      <point x="249" y="362" type="curve" smooth="yes"/>
      <point x="305" y="362"/>
      <point x="358" y="296"/>
    </contour>
  </outline>
</glyph>
<glyph name="c" format="2">
  <advance width="398"/>
  <unicode hex="0063"/>
  <outline>
    <contour>
      <point x="376" y="83" type="curve"/>
      <point x="357" y="104" type="line"/>
      <point x="293" y="52"/>
      <point x="273" y="49"/>
      <point x="240" y="49" type="curve" smooth="yes"/>
      <point x="172" y="49"/>
      <point x="112" y="111"/>
      <point x="112" y="208" type="curve" smooth="yes"/>
      <point x="112" y="319"/>
      <point x="165" y="371"/>
      <point x="224" y="371" type="curve" smooth="yes"/>
      <point x="279" y="371"/>
      <point x="309" y="338"/>
      <point x="322" y="305" type="curve"/>
      <point x="342" y="300" type="line"/>
      <point x="353" y="317"/>
      <point x="373" y="372"/>
      <point x="371" y="387" type="curve"/>
      <point x="351" y="407"/>
      <point x="300" y="421"/>
      <point x="261" y="421" type="curve" smooth="yes"/>
      <point x="130" y="421"/>
      <point x="32" y="321"/>
      <point x="32" y="195" type="curve" smooth="yes"/>
      <point x="32" y="64"/>
      <point x="117" y="-13"/>
      <point x="206" y="-13" type="curve" smooth="yes"/>
      <point x="261" y="-13"/>
      <point x="300" y="-5"/>
    </contour>
  </outline>
</glyph>
<glyph name="d" format="2">
  <advance width="480"/>
  <unicode hex="0064"/>
  <outline>
    <contour>
      <point x="475" y="41" type="curve"/>
      <point x="467" y="64" type="line"/>
      <point x="433" y="50"/>
      <point x="421" y="49"/>
      <point x="416" y="55" type="curve" smooth="yes"/>
      <point x="410" y="62"/>
      <point x="406" y="76"/>
      <point x="406" y="118" type="curve" smooth="yes"/>
      <point x="406" y="666" type="line"/>
      <point x="391" y="681" type="line"/>
      <point x="361" y="671"/>
      <point x="318" y="658"/>
      <point x="264" y="652" type="curve"/>
      <point x="264" y="631" type="line"/>
      <point x="325" y="626"/>
      <point x="327" y="620"/>
      <point x="327" y="555" type="curve" smooth="yes"/>
      <point x="327" y="123" type="line" smooth="yes"/>
      <point x="327" y="26"/>
      <point x="341" y="-13"/>
      <point x="366" y="-13" type="curve" smooth="yes"/>
      <point x="382" y="-13"/>
      <point x="420" y="5"/>
    </contour>
    <contour>
      <point x="359" y="107" type="curve"/>
      <point x="357" y="112"/>
      <point x="350" y="127"/>
      <point x="342" y="130" type="curve"/>
      <point x="301" y="90"/>
      <point x="263" y="52"/>
      <point x="220" y="52" type="curve" smooth="yes"/>
      <point x="172" y="52"/>
      <point x="112" y="114"/>
      <point x="112" y="212" type="curve" smooth="yes"/>
      <point x="112" y="319"/>
      <point x="161" y="370"/>
      <point x="230" y="370" type="curve" smooth="yes"/>
      <point x="273" y="370"/>
      <point x="311" y="348"/>
      <point x="330" y="311" type="curve"/>
      <point x="349" y="323"/>
      <point x="356" y="335"/>
      <point x="356" y="370" type="curve"/>
      <point x="310" y="414"/>
      <point x="277" y="421"/>
      <point x="242" y="421" type="curve" smooth="yes"/>
      <point x="118" y="421"/>
      <point x="32" y="301"/>
      <point x="32" y="195" type="curve" smooth="yes"/>
      <point x="32" y="64"/>
      <point x="115" y="-13"/>
      <point x="185" y="-13" type="curve" smooth="yes"/>
      <point x="255" y="-13"/>
      <point x="296" y="30"/>
    </contour>
  </outline>
</glyph>
<glyph name="e" format="2">
  <advance width="422"/>
  <unicode hex="0065"/>
  <outline>
    <contour>
      <point x="389" y="243" type="curve"/>
      <point x="389" y="324"/>
      <point x="348" y="421"/>
      <point x="233" y="421" type="curve" smooth="yes"/>
      <point x="197" y="421"/>
      <point x="155" y="404"/>
      <point x="127" y="384" type="curve" smooth="yes"/>
      <point x="67" y="342"/>
      <point x="32" y="270"/>
      <point x="32" y="191" type="curve" smooth="yes"/>
      <point x="32" y="67"/>
      <point x="113" y="-13"/>
      <point x="206" y="-13" type="curve" smooth="yes"/>
      <point x="270" y="-13"/>
      <point x="307" y="1"/>
      <point x="386" y="85" type="curve"/>
      <point x="384" y="90"/>
      <point x="375" y="103"/>
      <point x="368" y="107" type="curve"/>
      <point x="301" y="55"/>
      <point x="273" y="49"/>
      <point x="236" y="49" type="curve" smooth="yes"/>
      <point x="159" y="49"/>
      <point x="113" y="126"/>
      <point x="113" y="217" type="curve" smooth="yes"/>
      <point x="113" y="308"/>
      <point x="152" y="373"/>
      <point x="220" y="373" type="curve" smooth="yes"/>
      <point x="291" y="373"/>
      <point x="306" y="303"/>
      <point x="306" y="270" type="curve" smooth="yes"/>
      <point x="306" y="258"/>
      <point x="302" y="254"/>
      <point x="289" y="254" type="curve" smooth="yes"/>
      <point x="80" y="254" type="line"/>
      <point x="79" y="212" type="line"/>
      <point x="336" y="212" type="line"/>
      <point x="355" y="219"/>
      <point x="378" y="231"/>
    </contour>
  </outline>
</glyph>
<glyph name="f" format="2">
  <advance width="288"/>
  <unicode hex="0066"/>
  <outline>
    <contour>
      <point x="369" y="638" type="curve"/>
      <point x="369" y="649"/>
      <point x="321" y="681"/>
      <point x="279" y="681" type="curve" smooth="yes"/>
      <point x="252" y="681"/>
      <point x="204" y="665"/>
      <point x="168" y="634" type="curve" smooth="yes"/>
      <point x="122" y="594"/>
      <point x="85" y="546"/>
      <point x="85" y="422" type="curve" smooth="yes"/>
      <point x="85" y="408" type="line"/>
      <point x="52" y="408" type="line"/>
      <point x="18" y="375" type="line"/>
      <point x="29" y="362" type="line"/>
      <point x="85" y="362" type="line"/>
      <point x="85" y="49" type="line" smooth="yes"/>
      <point x="85" y="42"/>
      <point x="65" y="30"/>
      <point x="25" y="23" type="curve"/>
      <point x="25" y="0" type="line"/>
      <point x="255" y="0" type="line"/>
      <point x="255" y="23" type="line"/>
      <point x="186" y="36"/>
      <point x="164" y="42"/>
      <point x="164" y="49" type="curve" smooth="yes"/>
      <point x="164" y="362" type="line"/>
      <point x="211" y="362"/>
      <point x="234" y="354"/>
      <point x="247" y="347" type="curve"/>
      <point x="258" y="353"/>
      <point x="279" y="377"/>
      <point x="290" y="394" type="curve"/>
      <point x="276" y="408" type="line"/>
      <point x="164" y="408" type="line"/>
      <point x="164" y="446" type="line" smooth="yes"/>
      <point x="164" y="588"/>
      <point x="203" y="621"/>
      <point x="233" y="621" type="curve" smooth="yes"/>
      <point x="250" y="621"/>
      <point x="280" y="609"/>
      <point x="308" y="581" type="curve"/>
      <point x="325" y="589"/>
      <point x="369" y="626"/>
    </contour>
  </outline>
</glyph>
<glyph name="g" format="2">
  <advance width="419"/>
  <unicode hex="0067"/>
  <anchor x="197" y="-168" name="H"/>
  <anchor x="197" y="429" name="U"/>
  <outline>
    <contour>
      <point x="406" y="332" type="line"/>
      <point x="406" y="371" type="line"/>
      <point x="298" y="371" type="line"/>
      <point x="277" y="380"/>
      <point x="243" y="395"/>
      <point x="205" y="395" type="curve" smooth="yes"/>
      <point x="109" y="395"/>
      <point x="44" y="343"/>
      <point x="44" y="259" type="curve" smooth="yes"/>
      <point x="44" y="194"/>
      <point x="91" y="151"/>
      <point x="144" y="139" type="curve"/>
      <point x="116" y="110"/>
      <point x="103" y="84"/>
      <point x="103" y="64" type="curve" smooth="yes"/>
      <point x="103" y="46"/>
      <point x="106" y="44"/>
      <point x="112" y="27" type="curve"/>
      <point x="54" y="16"/>
      <point x="27" y="-23"/>
      <point x="27" y="-69" type="curve" smooth="yes"/>
      <point x="27" y="-134"/>
      <point x="82" y="-183"/>
      <point x="177" y="-183" type="curve" smooth="yes"/>
      <point x="293" y="-183"/>
      <point x="385" y="-107"/>
      <point x="385" y="-32" type="curve" smooth="yes"/>
      <point x="385" y="63"/>
      <point x="240" y="72"/>
      <point x="168" y="80" type="curve"/>
      <point x="167" y="82"/>
      <point x="162" y="112"/>
      <point x="175" y="133" type="curve"/>
      <point x="264" y="127"/>
      <point x="348" y="175"/>
      <point x="348" y="260" type="curve" smooth="yes"/>
      <point x="348" y="291"/>
      <point x="338" y="312"/>
      <point x="326" y="332" type="curve"/>
    </contour>
    <contour>
      <point x="271" y="264" type="curve" smooth="yes"/>
      <point x="271" y="210"/>
      <point x="245" y="166"/>
      <point x="197" y="166" type="curve" smooth="yes"/>
      <point x="147" y="166"/>
      <point x="121" y="210"/>
      <point x="121" y="264" type="curve" smooth="yes"/>
      <point x="121" y="325"/>
      <point x="152" y="362"/>
      <point x="197" y="362" type="curve" smooth="yes"/>
      <point x="245" y="362"/>
      <point x="271" y="315"/>
    </contour>
    <contour>
      <point x="316" y="-53" type="curve" smooth="yes"/>
      <point x="316" y="-92"/>
      <point x="280" y="-146"/>
      <point x="203" y="-146" type="curve" smooth="yes"/>
      <point x="132" y="-146"/>
      <point x="99" y="-92"/>
      <point x="99" y="-53" type="curve" smooth="yes"/>
      <point x="99" y="-27"/>
      <point x="113" y="4"/>
      <point x="160" y="21" type="curve"/>
      <point x="207" y="12"/>
      <point x="316" y="12"/>
    </contour>
  </outline>
</glyph>
<glyph name="h" format="2">
  <advance width="459"/>
  <unicode hex="0068"/>
  <anchor x="109" y="0" name="H"/>
  <anchor x="226" y="601" name="U"/>
  <outline>
    <contour>
      <point x="440" y="0" type="line"/>
      <point x="440" y="31" type="line"/>
      <point x="404" y="33" type="line" smooth="yes"/>
      <point x="395" y="34"/>
      <point x="387" y="41"/>
      <point x="387" y="51" type="curve" smooth="yes"/>
      <point x="387" y="274" type="line" smooth="yes"/>
      <point x="387" y="356"/>
      <point x="339" y="395"/>
      <point x="278" y="395" type="curve" smooth="yes"/>
      <point x="236" y="395"/>
      <point x="175" y="363"/>
      <point x="146" y="345" type="curve"/>
      <point x="146" y="589" type="line"/>
      <point x="114" y="589" type="line"/>
      <point x="12" y="558" type="line"/>
      <point x="12" y="532" type="line"/>
      <point x="71" y="532" type="line"/>
      <point x="71" y="51" type="line" smooth="yes"/>
      <point x="71" y="41"/>
      <point x="64" y="34"/>
      <point x="55" y="33" type="curve" smooth="yes"/>
      <point x="16" y="31" type="line"/>
      <point x="16" y="0" type="line"/>
      <point x="196" y="0" type="line"/>
      <point x="196" y="31" type="line"/>
      <point x="162" y="33" type="line" smooth="yes"/>
      <point x="152" y="34"/>
      <point x="146" y="41"/>
      <point x="146" y="51" type="curve" smooth="yes"/>
      <point x="146" y="313" type="line"/>
      <point x="169" y="326"/>
      <point x="205" y="336"/>
      <point x="233" y="336" type="curve" smooth="yes"/>
      <point x="295" y="336"/>
      <point x="312" y="303"/>
      <point x="312" y="257" type="curve" smooth="yes"/>
      <point x="312" y="51" type="line" smooth="yes"/>
      <point x="312" y="41"/>
      <point x="304" y="34"/>
      <point x="295" y="33" type="curve" smooth="yes"/>
      <point x="262" y="31" type="line"/>
      <point x="262" y="0" type="line"/>
    </contour>
  </outline>
</glyph>
<glyph name="i" format="2">
  <advance width="243"/>
  <unicode hex="0069"/>
  <outline>
    <contour>
      <point x="171" y="554" type="curve" smooth="yes"/>
      <point x="171" y="581"/>
      <point x="159" y="595"/>
      <point x="134" y="595" type="curve" smooth="yes"/>
      <point x="106" y="595"/>
      <point x="83" y="569"/>
      <point x="83" y="536" type="curve" smooth="yes"/>
      <point x="83" y="509"/>
      <point x="94" y="493"/>
      <point x="120" y="493" type="curve" smooth="yes"/>
      <point x="149" y="493"/>
      <point x="171" y="521"/>
    </contour>
    <contour>
      <point x="30" y="0" type="line"/>
      <point x="219" y="0" type="line"/>
      <point x="219" y="18" type="line"/>
      <point x="177" y="26"/>
      <point x="158" y="38"/>
      <point x="158" y="45" type="curve" smooth="yes"/>
      <point x="158" y="421" type="line"/>
      <point x="143" y="421" type="line"/>
      <point x="113" y="407"/>
      <point x="67" y="393"/>
      <point x="30" y="386" type="curve"/>
      <point x="30" y="369" type="line"/>
      <point x="91" y="363"/>
      <point x="92" y="354"/>
      <point x="92" y="294" type="curve" smooth="yes"/>
      <point x="92" y="45" type="line" smooth="yes"/>
      <point x="92" y="37"/>
      <point x="70" y="26"/>
      <point x="30" y="18" type="curve"/>
    </contour>
  </outline>
</glyph>
<glyph name="j" format="2">
  <advance width="232"/>
  <unicode hex="006A"/>
  <anchor x="123" y="461" name="U"/>
  <outline>
    <contour>
      <point x="169" y="554" type="curve" smooth="yes"/>
      <point x="169" y="581"/>
      <point x="156" y="595"/>
      <point x="131" y="595" type="curve" smooth="yes"/>
      <point x="103" y="595"/>
      <point x="81" y="569"/>
      <point x="81" y="536" type="curve" smooth="yes"/>
      <point x="81" y="509"/>
      <point x="92" y="493"/>
      <point x="118" y="493" type="curve" smooth="yes"/>
      <point x="147" y="493"/>
      <point x="169" y="521"/>
    </contour>
    <contour>
      <point x="156" y="43" type="curve" smooth="yes"/>
      <point x="156" y="421" type="line"/>
      <point x="139" y="421" type="line"/>
      <point x="103" y="406"/>
      <point x="77" y="395"/>
      <point x="28" y="386" type="curve"/>
      <point x="28" y="369" type="line"/>
      <point x="89" y="362"/>
      <point x="90" y="354"/>
      <point x="90" y="294" type="curve" smooth="yes"/>
      <point x="90" y="18" type="line" smooth="yes"/>
      <point x="90" y="-123"/>
      <point x="53" y="-160"/>
      <point x="19" y="-160" type="curve" smooth="yes"/>
      <point x="-2" y="-160"/>
      <point x="-21" y="-156"/>
      <point x="-40" y="-140" type="curve"/>
      <point x="-58" y="-148"/>
      <point x="-96" y="-179"/>
      <point x="-96" y="-189" type="curve" smooth="yes"/>
      <point x="-96" y="-199"/>
      <point x="-59" y="-219"/>
      <point x="-23" y="-219" type="curve" smooth="yes"/>
      <point x="-1" y="-219"/>
      <point x="41" y="-200"/>
      <point x="72" y="-175" type="curve" smooth="yes"/>
      <point x="119" y="-137"/>
      <point x="156" y="-91"/>
    </contour>
  </outline>
</glyph>
<glyph name="k" format="2">
  <advance width="427"/>
  <unicode hex="006B"/>
  <anchor x="109" y="0" name="H"/>
  <anchor x="215" y="601" name="U"/>
  <outline>
    <contour>
      <point x="419" y="0" type="line"/>
      <point x="419" y="31" type="line"/>
      <point x="376" y="35" type="line"/>
      <point x="239" y="235" type="line"/>
      <point x="344" y="348" type="line"/>
      <point x="396" y="354" type="line"/>
      <point x="396" y="385" type="line"/>
      <point x="240" y="385" type="line"/>
      <point x="240" y="354" type="line"/>
      <point x="273" y="351" type="line" smooth="yes"/>
      <point x="280" y="350"/>
      <point x="283" y="342"/>
      <point x="280" y="337" type="curve" smooth="yes"/>
      <point x="162" y="204" type="line"/>
      <point x="146" y="204" type="line"/>
      <point x="146" y="589" type="line"/>
      <point x="113" y="589" type="line"/>
      <point x="11" y="558" type="line"/>
      <point x="11" y="532" type="line"/>
      <point x="71" y="532" type="line"/>
      <point x="71" y="51" type="line" smooth="yes"/>
      <point x="71" y="41"/>
      <point x="64" y="34"/>
      <point x="55" y="33" type="curve" smooth="yes"/>
      <point x="16" y="31" type="line"/>
      <point x="16" y="0" type="line"/>
      <point x="197" y="0" type="line"/>
      <point x="197" y="31" type="line"/>
      <point x="163" y="33" type="line" smooth="yes"/>
      <point x="153" y="34"/>
      <point x="146" y="41"/>
      <point x="146" y="51" type="curve" smooth="yes"/>
      <point x="146" y="181" type="line"/>
      <point x="191" y="181" type="line"/>
      <point x="291" y="31" type="line"/>
      <point x="291" y="0" type="line"/>
    </contour>
  </outline>
</glyph>
<glyph name="l" format="2">
  <advance width="243"/>
  <unicode hex="006C"/>
  <anchor x="125" y="0" name="H"/>
  <anchor x="125" y="742" name="U"/>
  <outline>
    <contour>
      <point x="26" y="0" type="line"/>
      <point x="224" y="0" type="line"/>
      <point x="224" y="18" type="line"/>
      <point x="176" y="26"/>
      <point x="158" y="36"/>
      <point x="158" y="45" type="curve" smooth="yes"/>
      <point x="158" y="666" type="line"/>
      <point x="142" y="681" type="line"/>
      <point x="106" y="662"/>
      <point x="72" y="654"/>
      <point x="30" y="645" type="curve"/>
      <point x="30" y="628" type="line"/>
      <point x="79" y="622"/>
      <point x="92" y="620"/>
      <point x="92" y="569" type="curve" smooth="yes"/>
      <point x="92" y="45" type="line" smooth="yes"/>
      <point x="92" y="36"/>
      <point x="76" y="27"/>
      <point x="26" y="18" type="curve"/>
    </contour>
  </outline>
</glyph>
<glyph name="m" format="2">
  <advance width="680"/>
  <unicode hex="006D"/>
  <anchor x="570" y="0" name="H"/>
  <anchor x="339" y="429" name="U"/>
  <outline>
    <contour>
      <point x="662" y="0" type="line"/>
      <point x="662" y="31" type="line"/>
      <point x="623" y="33" type="line" smooth="yes"/>
      <point x="614" y="34"/>
      <point x="607" y="41"/>
      <point x="607" y="51" type="curve" smooth="yes"/>
      <point x="607" y="272" type="line" smooth="yes"/>
      <point x="607" y="327"/>
      <point x="587" y="395"/>
      <point x="503" y="395" type="curve" smooth="yes"/>
      <point x="461" y="395"/>
      <point x="396" y="360"/>
      <point x="364" y="339" type="curve"/>
      <point x="351" y="366"/>
      <point x="323" y="395"/>
      <point x="276" y="395" type="curve" smooth="yes"/>
      <point x="235" y="395"/>
      <point x="182" y="367"/>
      <point x="146" y="345" type="curve"/>
      <point x="146" y="385" type="line"/>
      <point x="113" y="385" type="line"/>
      <point x="16" y="355" type="line"/>
      <point x="16" y="328" type="line"/>
      <point x="71" y="328" type="line"/>
      <point x="71" y="51" type="line" smooth="yes"/>
      <point x="71" y="41"/>
      <point x="64" y="34"/>
      <point x="55" y="33" type="curve" smooth="yes"/>
      <point x="16" y="31" type="line"/>
      <point x="16" y="0" type="line"/>
      <point x="196" y="0" type="line"/>
      <point x="196" y="31" type="line"/>
      <point x="163" y="33" type="line" smooth="yes"/>
      <point x="153" y="34"/>
      <point x="146" y="41"/>
      <point x="146" y="51" type="curve" smooth="yes"/>
      <point x="146" y="313" type="line"/>
      <point x="164" y="323"/>
      <point x="201" y="336"/>
      <point x="232" y="336" type="curve" smooth="yes"/>
      <point x="283" y="336"/>
      <point x="302" y="305"/>
      <point x="302" y="260" type="curve" smooth="yes"/>
      <point x="302" y="51" type="line" smooth="yes"/>
      <point x="302" y="41"/>
      <point x="295" y="34"/>
      <point x="285" y="33" type="curve" smooth="yes"/>
      <point x="251" y="31" type="line"/>
      <point x="251" y="0" type="line"/>
      <point x="427" y="0" type="line"/>
      <point x="427" y="31" type="line"/>
      <point x="393" y="33" type="line" smooth="yes"/>
      <point x="383" y="34"/>
      <point x="376" y="41"/>
      <point x="376" y="51" type="curve" smooth="yes"/>
      <point x="376" y="314" type="line"/>
      <point x="401" y="327"/>
      <point x="435" y="336"/>
      <point x="462" y="336" type="curve" smooth="yes"/>
      <point x="516" y="336"/>
      <point x="533" y="304"/>
      <point x="533" y="255" type="curve" smooth="yes"/>
      <point x="533" y="51" type="line" smooth="yes"/>
      <point x="533" y="41"/>
      <point x="526" y="34"/>
      <point x="516" y="33" type="curve" smooth="yes"/>
      <point x="483" y="31" type="line"/>
      <point x="483" y="0" type="line"/>
    </contour>
  </outline>
</glyph>
<glyph name="n" format="2">
  <advance width="505"/>
  <unicode hex="006E"/>
  <outline>
    <contour>
      <point x="293" y="0" type="line"/>
      <point x="493" y="0" type="line"/>
      <point x="493" y="23" type="line"/>
      <point x="447" y="35"/>
      <point x="432" y="42"/>
      <point x="432" y="50" type="curve" smooth="yes"/>
      <point x="432" y="320" type="line" smooth="yes"/>
      <point x="432" y="391"/>
      <point x="386" y="421"/>
      <point x="335" y="421" type="curve" smooth="yes"/>
      <point x="290" y="421"/>
      <point x="217" y="382"/>
      <point x="160" y="311" type="curve"/>
      <point x="156" y="405" type="line"/>
      <point x="139" y="421" type="line"/>
      <point x="103" y="405"/>
      <point x="68" y="393"/>
      <point x="23" y="387" type="curve"/>
      <point x="23" y="365" type="line"/>
      <point x="81" y="359"/>
      <point x="83" y="354"/>
      <point x="83" y="309" type="curve" smooth="yes"/>
      <point x="83" y="50" type="line" smooth="yes"/>
      <point x="83" y="40"/>
      <point x="61" y="33"/>
      <point x="23" y="23" type="curve"/>
      <point x="23" y="0" type="line"/>
      <point x="223" y="0" type="line"/>
      <point x="223" y="23" type="line"/>
      <point x="185" y="31"/>
      <point x="162" y="41"/>
      <point x="162" y="50" type="curve" smooth="yes"/>
      <point x="162" y="254" type="line"/>
      <point x="219" y="331"/>
      <point x="267" y="357"/>
      <point x="300" y="357" type="curve" smooth="yes"/>
      <point x="339" y="357"/>
      <point x="353" y="340"/>
      <point x="353" y="271" type="curve" smooth="yes"/>
      <point x="353" y="50" type="line" smooth="yes"/>
      <point x="353" y="42"/>
      <point x="335" y="34"/>
      <point x="293" y="23" type="curve"/>
    </contour>
  </outline>
</glyph>
<glyph name="o" format="2">
  <advance width="459"/>
  <unicode hex="006F"/>
  <outline>
    <contour>
      <point x="426" y="213" type="curve" smooth="yes"/>
      <point x="426" y="333"/>
      <point x="352" y="421"/>
      <point x="238" y="421" type="curve" smooth="yes"/>
      <point x="123" y="421"/>
      <point x="32" y="311"/>
      <point x="32" y="195" type="curve" smooth="yes"/>
      <point x="32" y="75"/>
      <point x="107" y="-13"/>
      <point x="221" y="-13" type="curve" smooth="yes"/>
      <point x="331" y="-13"/>
      <point x="426" y="96"/>
    </contour>
    <contour>
      <point x="343" y="197" type="curve" smooth="yes"/>
      <point x="343" y="98"/>
      <point x="312" y="37"/>
      <point x="233" y="37" type="curve" smooth="yes"/>
      <point x="179" y="37"/>
      <point x="115" y="115"/>
      <point x="115" y="207" type="curve" smooth="yes"/>
      <point x="115" y="300"/>
      <point x="141" y="371"/>
      <point x="225" y="371" type="curve" smooth="yes"/>
      <point x="285" y="371"/>
      <point x="343" y="290"/>
    </contour>
  </outline>
</glyph>
<glyph name="p" format="2">
  <advance width="447"/>
  <unicode hex="0070"/>
  <anchor x="108" y="-169" name="H"/>
  <anchor x="218" y="429" name="U"/>
  <outline>
    <contour>
      <point x="419" y="198" type="curve" smooth="yes"/>
      <point x="419" y="317"/>
      <point x="349" y="395"/>
      <point x="267" y="395" type="curve" smooth="yes"/>
      <point x="226" y="395"/>
      <point x="182" y="373"/>
      <point x="146" y="345" type="curve"/>
      <point x="146" y="385" type="line"/>
      <point x="115" y="385" type="line"/>
      <point x="16" y="355" type="line"/>
      <point x="16" y="328" type="line"/>
      <point x="71" y="328" type="line"/>
      <point x="71" y="-121" type="line" smooth="yes"/>
      <point x="71" y="-131"/>
      <point x="64" y="-137"/>
      <point x="55" y="-138" type="curve" smooth="yes"/>
      <point x="16" y="-143" type="line"/>
      <point x="16" y="-174" type="line"/>
      <point x="211" y="-174" type="line"/>
      <point x="211" y="-143" type="line"/>
      <point x="164" y="-138" type="line" smooth="yes"/>
      <point x="154" y="-137"/>
      <point x="146" y="-131"/>
      <point x="146" y="-121" type="curve" smooth="yes"/>
      <point x="146" y="-2" type="line"/>
      <point x="170" y="-6"/>
      <point x="193" y="-9"/>
      <point x="217" y="-9" type="curve"/>
      <point x="344" y="-9"/>
      <point x="419" y="72"/>
    </contour>
    <contour>
      <point x="339" y="187" type="curve" smooth="yes"/>
      <point x="339" y="103"/>
      <point x="299" y="27"/>
      <point x="211" y="27" type="curve"/>
      <point x="189" y="27"/>
      <point x="167" y="31"/>
      <point x="146" y="39" type="curve"/>
      <point x="146" y="315" type="line"/>
      <point x="169" y="326"/>
      <point x="200" y="339"/>
      <point x="228" y="339" type="curve" smooth="yes"/>
      <point x="301" y="339"/>
      <point x="339" y="269"/>
    </contour>
  </outline>
</glyph>
<glyph name="q" format="2">
  <advance width="439"/>
  <unicode hex="0071"/>
  <anchor x="227" y="429" name="U"/>
  <outline>
    <contour>
      <point x="427" y="-174" type="line"/>
      <point x="427" y="-144" type="line"/>
      <point x="388" y="-139" type="line"/>
      <point x="379" y="-138"/>
      <point x="371" y="-132"/>
      <point x="371" y="-123" type="curve" smooth="yes"/>
      <point x="371" y="382" type="line"/>
      <point x="338" y="390"/>
      <point x="287" y="395"/>
      <point x="258" y="395" type="curve" smooth="yes"/>
      <point x="112" y="395"/>
      <point x="27" y="313"/>
      <point x="27" y="183" type="curve" smooth="yes"/>
      <point x="27" y="76"/>
      <point x="87" y="-9"/>
      <point x="185" y="-9" type="curve" smooth="yes"/>
      <point x="221" y="-9"/>
      <point x="267" y="7"/>
      <point x="297" y="21" type="curve"/>
      <point x="297" y="-123" type="line" smooth="yes"/>
      <point x="297" y="-132"/>
      <point x="290" y="-139"/>
      <point x="280" y="-139" type="curve" smooth="yes"/>
      <point x="233" y="-144" type="line"/>
      <point x="233" y="-174" type="line"/>
    </contour>
    <contour>
      <point x="297" y="48" type="line"/>
      <point x="280" y="43"/>
      <point x="248" y="37"/>
      <point x="228" y="37" type="curve" smooth="yes"/>
      <point x="142" y="37"/>
      <point x="107" y="113"/>
      <point x="107" y="196" type="curve" smooth="yes"/>
      <point x="107" y="293"/>
      <point x="155" y="358"/>
      <point x="242" y="358" type="curve" smooth="yes"/>
      <point x="264" y="358"/>
      <point x="283" y="352"/>
      <point x="297" y="349" type="curve"/>
    </contour>
  </outline>
</glyph>
<glyph name="r" format="2">
  <advance width="312"/>
  <unicode hex="0072"/>
  <anchor x="113" y="0" name="H"/>
  <anchor x="173" y="429" name="U"/>
  <outline>
    <contour>
      <point x="304" y="303" type="line"/>
      <point x="304" y="383" type="line"/>
      <point x="294" y="388"/>
      <point x="272" y="395"/>
      <point x="255" y="395" type="curve" smooth="yes"/>
      <point x="227" y="395"/>
      <point x="195" y="366"/>
      <point x="150" y="314" type="curve"/>
      <point x="150" y="385" type="line"/>
      <point x="117" y="385" type="line"/>
      <point x="18" y="355" type="line"/>
      <point x="18" y="328" type="line"/>
      <point x="76" y="328" type="line"/>
      <point x="76" y="51" type="line" smooth="yes"/>
      <point x="76" y="41"/>
      <point x="68" y="34"/>
      <point x="59" y="33" type="curve" smooth="yes"/>
      <point x="19" y="30" type="line"/>
      <point x="19" y="0" type="line"/>
      <point x="219" y="0" type="line"/>
      <point x="219" y="31" type="line"/>
      <point x="167" y="33" type="line" smooth="yes"/>
      <point x="157" y="33"/>
      <point x="150" y="41"/>
      <point x="150" y="51" type="curve" smooth="yes"/>
      <point x="150" y="276" type="line"/>
      <point x="177" y="307"/>
      <point x="204" y="325"/>
      <point x="230" y="325" type="curve" smooth="yes"/>
      <point x="250" y="325"/>
      <point x="263" y="316"/>
      <point x="273" y="303" type="curve"/>
    </contour>
  </outline>
</glyph>
<glyph name="s" format="2">
  <advance width="318"/>
  <unicode hex="0073"/>
  <anchor x="148" y="0" name="H"/>
  <anchor x="166" y="429" name="U"/>
  <outline>
    <contour>
      <point x="279" y="282" type="line"/>
      <point x="279" y="376" type="line"/>
      <point x="263" y="383"/>
      <point x="223" y="395"/>
      <point x="176" y="395" type="curve" smooth="yes"/>
      <point x="84" y="395"/>
      <point x="32" y="350"/>
      <point x="32" y="279" type="curve" smooth="yes"/>
      <point x="32" y="231"/>
      <point x="64" y="205"/>
      <point x="123" y="177" type="curve" smooth="yes"/>
      <point x="184" y="148"/>
      <point x="220" y="130"/>
      <point x="220" y="88" type="curve" smooth="yes"/>
      <point x="220" y="56"/>
      <point x="194" y="26"/>
      <point x="148" y="26" type="curve" smooth="yes"/>
      <point x="117" y="26"/>
      <point x="93" y="38"/>
      <point x="77" y="48" type="curve"/>
      <point x="67" y="116" type="line"/>
      <point x="27" y="116" type="line"/>
      <point x="27" y="10" type="line"/>
      <point x="43" y="3"/>
      <point x="89" y="-9"/>
      <point x="138" y="-9" type="curve" smooth="yes"/>
      <point x="233" y="-9"/>
      <point x="291" y="37"/>
      <point x="291" y="116" type="curve" smooth="yes"/>
      <point x="291" y="167"/>
      <point x="250" y="194"/>
      <point x="194" y="220" type="curve" smooth="yes"/>
      <point x="127" y="251"/>
      <point x="105" y="267"/>
      <point x="105" y="303" type="curve" smooth="yes"/>
      <point x="105" y="334"/>
      <point x="126" y="356"/>
      <point x="170" y="356" type="curve" smooth="yes"/>
      <point x="195" y="356"/>
      <point x="219" y="347"/>
      <point x="231" y="338" type="curve"/>
      <point x="237" y="282" type="line"/>
    </contour>
  </outline>
</glyph>
<glyph name="t" format="2">
  <advance width="317"/>
  <unicode hex="0074"/>
  <outline>
    <contour>
      <point x="305" y="56" type="curve"/>
      <point x="290" y="82" type="line"/>
      <point x="244" y="58"/>
      <point x="216" y="51"/>
      <point x="195" y="51" type="curve" smooth="yes"/>
      <point x="164" y="51"/>
      <point x="151" y="72"/>
      <point x="151" y="139" type="curve" smooth="yes"/>
      <point x="151" y="362" type="line"/>
      <point x="176" y="362" type="line" smooth="yes"/>
      <point x="218" y="362"/>
      <point x="247" y="354"/>
      <point x="261" y="347" type="curve"/>
      <point x="273" y="353"/>
      <point x="294" y="377"/>
      <point x="305" y="394" type="curve"/>
      <point x="292" y="408" type="line"/>
      <point x="151" y="408" type="line"/>
      <point x="151" y="551" type="line"/>
      <point x="136" y="563" type="line"/>
      <point x="72" y="511" type="line"/>
      <point x="72" y="408" type="line"/>
      <point x="40" y="408" type="line"/>
      <point x="6" y="375" type="line"/>
      <point x="16" y="362" type="line"/>
      <point x="72" y="362" type="line"/>
      <point x="72" y="100" type="line" smooth="yes"/>
      <point x="72" y="18"/>
      <point x="110" y="-13"/>
      <point x="154" y="-13" type="curve" smooth="yes"/>
      <point x="185" y="-13"/>
      <point x="241" y="9"/>
    </contour>
  </outline>
</glyph>
<glyph name="u" format="2">
  <advance width="476"/>
  <unicode hex="0075"/>
  <anchor x="239" y="0" name="H"/>
  <anchor x="239" y="461" name="U"/>
  <outline>
    <contour>
      <point x="469" y="36" type="curve"/>
      <point x="465" y="55" type="line"/>
      <point x="435" y="43"/>
      <point x="418" y="40"/>
      <point x="412" y="45" type="curve" smooth="yes"/>
      <point x="404" y="51"/>
      <point x="402" y="75"/>
      <point x="402" y="111" type="curve" smooth="yes"/>
      <point x="402" y="404" type="line"/>
      <point x="388" y="421" type="line"/>
      <point x="356" y="410"/>
      <point x="316" y="398"/>
      <point x="274" y="392" type="curve"/>
      <point x="274" y="375" type="line"/>
      <point x="328" y="372"/>
      <point x="336" y="365"/>
      <point x="336" y="312" type="curve" smooth="yes"/>
      <point x="336" y="115" type="line"/>
      <point x="284" y="60"/>
      <point x="245" y="39"/>
      <point x="207" y="39" type="curve" smooth="yes"/>
      <point x="165" y="39"/>
      <point x="140" y="64"/>
      <point x="140" y="146" type="curve" smooth="yes"/>
      <point x="140" y="404" type="line"/>
      <point x="128" y="421" type="line"/>
      <point x="89" y="406"/>
      <point x="60" y="398"/>
      <point x="18" y="392" type="curve"/>
      <point x="18" y="375" type="line"/>
      <point x="72" y="370"/>
      <point x="74" y="368"/>
      <point x="74" y="312" type="curve" smooth="yes"/>
      <point x="74" y="122" type="line" smooth="yes"/>
      <point x="74" y="12"/>
      <point x="124" y="-13"/>
      <point x="179" y="-13" type="curve" smooth="yes"/>
      <point x="216" y="-13"/>
      <point x="263" y="0"/>
      <point x="336" y="72" type="curve"/>
      <point x="339" y="12"/>
      <point x="352" y="-13"/>
      <point x="373" y="-13" type="curve" smooth="yes"/>
      <point x="388" y="-13"/>
      <point x="426" y="7"/>
    </contour>
  </outline>
</glyph>
<glyph name="v" format="2">
  <advance width="423"/>
  <unicode hex="0076"/>
  <anchor x="207" y="0" name="H"/>
  <anchor x="211" y="429" name="U"/>
  <outline>
    <contour>
      <point x="415" y="354" type="line"/>
      <point x="415" y="385" type="line"/>
      <point x="275" y="385" type="line"/>
      <point x="275" y="354" type="line"/>
      <point x="311" y="351" type="line" smooth="yes"/>
      <point x="319" y="351"/>
      <point x="325" y="342"/>
      <point x="322" y="334" type="curve" smooth="yes"/>
      <point x="223" y="83" type="line"/>
      <point x="134" y="334" type="line" smooth="yes"/>
      <point x="131" y="343"/>
      <point x="137" y="351"/>
      <point x="146" y="351" type="curve" smooth="yes"/>
      <point x="184" y="354" type="line"/>
      <point x="184" y="385" type="line"/>
      <point x="7" y="385" type="line"/>
      <point x="7" y="354" type="line"/>
      <point x="51" y="349" type="line"/>
      <point x="180" y="0" type="line"/>
      <point x="232" y="0" type="line"/>
      <point x="372" y="349" type="line"/>
    </contour>
  </outline>
</glyph>
<glyph name="w" format="2">
  <advance width="638"/>
  <unicode hex="0077"/>
  <outline>
    <contour>
      <point x="630" y="385" type="curve"/>
      <point x="630" y="408" type="line"/>
      <point x="487" y="408" type="line"/>
      <point x="487" y="385" type="line"/>
      <point x="528" y="378"/>
      <point x="538" y="371"/>
      <point x="534" y="358" type="curve" smooth="yes"/>
      <point x="463" y="102" type="line"/>
      <point x="350" y="408" type="line"/>
      <point x="342" y="408"/>
      <point x="321" y="408"/>
      <point x="321" y="408" type="curve"/>
      <point x="312" y="294" type="line"/>
      <point x="428" y="-13" type="line"/>
      <point x="443" y="-9"/>
      <point x="482" y="0"/>
      <point x="489" y="25" type="curve" smooth="yes"/>
      <point x="586" y="358" type="line" smooth="yes"/>
      <point x="590" y="371"/>
      <point x="595" y="377"/>
    </contour>
    <contour>
      <point x="231" y="25" type="curve" smooth="yes"/>
      <point x="352" y="353" type="line"/>
      <point x="344" y="408" type="line"/>
      <point x="344" y="408"/>
      <point x="326" y="408"/>
      <point x="318" y="408" type="curve"/>
      <point x="211" y="102" type="line"/>
      <point x="134" y="358" type="line" smooth="yes"/>
      <point x="130" y="369"/>
      <point x="132" y="379"/>
      <point x="187" y="385" type="curve"/>
      <point x="187" y="408" type="line"/>
      <point x="7" y="408" type="line"/>
      <point x="7" y="385" type="line"/>
      <point x="36" y="378"/>
      <point x="52" y="369"/>
      <point x="55" y="358" type="curve"/>
      <point x="171" y="-13" type="line"/>
      <point x="187" y="-9"/>
      <point x="222" y="0"/>
    </contour>
  </outline>
</glyph>
<glyph name="x" format="2">
  <advance width="458"/>
  <unicode hex="0078"/>
  <outline>
    <contour>
      <point x="441" y="385" type="curve"/>
      <point x="441" y="408" type="line"/>
      <point x="274" y="408" type="line"/>
      <point x="274" y="385" type="line"/>
      <point x="310" y="381"/>
      <point x="323" y="375"/>
      <point x="303" y="347" type="curve" smooth="yes"/>
      <point x="218" y="229" type="line"/>
      <point x="247" y="195" type="line"/>
      <point x="357" y="346" type="line" smooth="yes"/>
      <point x="373" y="367"/>
      <point x="394" y="381"/>
    </contour>
    <contour>
      <point x="262" y="0" type="line"/>
      <point x="451" y="0" type="line"/>
      <point x="451" y="23" type="line"/>
      <point x="413" y="28"/>
      <point x="395" y="46"/>
      <point x="382" y="64" type="curve"/>
      <point x="177" y="347" type="line" smooth="yes"/>
      <point x="156" y="375"/>
      <point x="172" y="381"/>
      <point x="208" y="385" type="curve"/>
      <point x="208" y="408" type="line"/>
      <point x="12" y="408" type="line"/>
      <point x="12" y="385" type="line"/>
      <point x="58" y="381"/>
      <point x="70" y="367"/>
      <point x="86" y="346" type="curve" smooth="yes"/>
      <point x="293" y="61" type="line" smooth="yes"/>
      <point x="316" y="29"/>
      <point x="291" y="25"/>
      <point x="262" y="23" type="curve"/>
    </contour>
    <contour>
      <point x="135" y="61" type="curve" smooth="yes"/>
      <point x="225" y="184" type="line"/>
      <point x="197" y="219" type="line"/>
      <point x="82" y="64" type="line" smooth="yes"/>
      <point x="69" y="46"/>
      <point x="53" y="30"/>
      <point x="7" y="23" type="curve"/>
      <point x="7" y="0" type="line"/>
      <point x="175" y="0" type="line"/>
      <point x="175" y="23" type="line"/>
      <point x="147" y="25"/>
      <point x="112" y="30"/>
    </contour>
  </outline>
</glyph>
<glyph name="y" format="2">
  <advance width="448"/>
  <unicode hex="0079"/>
  <outline>
    <contour>
      <point x="440" y="385" type="curve"/>
      <point x="440" y="408" type="line"/>
      <point x="294" y="408" type="line"/>
      <point x="294" y="385" type="line"/>
      <point x="335" y="379"/>
      <point x="346" y="373"/>
      <point x="339" y="355" type="curve" smooth="yes"/>
      <point x="243" y="95" type="line"/>
      <point x="140" y="355" type="line" smooth="yes"/>
      <point x="133" y="374"/>
      <point x="143" y="379"/>
      <point x="187" y="385" type="curve"/>
      <point x="187" y="408" type="line"/>
      <point x="7" y="408" type="line"/>
      <point x="7" y="385" type="line"/>
      <point x="36" y="378"/>
      <point x="50" y="371"/>
      <point x="56" y="355" type="curve" smooth="yes"/>
      <point x="201" y="-10" type="line"/>
      <point x="188" y="-40" type="line" smooth="yes"/>
      <point x="167" y="-90"/>
      <point x="134" y="-129"/>
      <point x="113" y="-137" type="curve" smooth="yes"/>
      <point x="91" y="-144"/>
      <point x="61" y="-144"/>
      <point x="32" y="-127" type="curve"/>
      <point x="14" y="-138"/>
      <point x="-22" y="-185"/>
      <point x="-22" y="-193" type="curve" smooth="yes"/>
      <point x="-22" y="-204"/>
      <point x="13" y="-218"/>
      <point x="58" y="-218" type="curve" smooth="yes"/>
      <point x="121" y="-218"/>
      <point x="196" y="-164"/>
      <point x="244" y="-34" type="curve" smooth="yes"/>
      <point x="391" y="355" type="line" smooth="yes"/>
      <point x="398" y="372"/>
      <point x="404" y="377"/>
    </contour>
  </outline>
</glyph>
<glyph name="z" format="2">
  <advance width="369"/>
  <unicode hex="007A"/>
  <anchor x="188" y="0" name="H"/>
  <anchor x="188" y="429" name="U"/>
  <outline>
    <contour>
      <point x="342" y="0" type="line"/>
      <point x="342" y="120" type="line"/>
      <point x="299" y="120" type="line"/>
      <point x="291" y="57" type="line" smooth="yes"/>
      <point x="290" y="49"/>
      <point x="280" y="38"/>
      <point x="273" y="38" type="curve" smooth="yes"/>
      <point x="112" y="38" type="line"/>
      <point x="331" y="352" type="line"/>
      <point x="331" y="385" type="line"/>
      <point x="35" y="385" type="line"/>
      <point x="35" y="271" type="line"/>
      <point x="76" y="271" type="line"/>
      <point x="83" y="331" type="line"/>
      <point x="85" y="338"/>
      <point x="92" y="348"/>
      <point x="100" y="348" type="curve" smooth="yes"/>
      <point x="239" y="348" type="line"/>
      <point x="27" y="42" type="line"/>
      <point x="27" y="0" type="line"/>
    </contour>
  </outline>
</glyph>
<glyph name="braceleft" format="2">
  <advance width="302"/>
  <unicode hex="007B"/>
  <outline>
    <contour>
      <point x="285" y="682" type="curve"/>
      <point x="273" y="703" type="line"/>
      <point x="186" y="663"/>
      <point x="131" y="604"/>
      <point x="131" y="525" type="curve" smooth="yes"/>
      <point x="131" y="453"/>
      <point x="149" y="450"/>
      <point x="149" y="379" type="curve" smooth="yes"/>
      <point x="149" y="335"/>
      <point x="113" y="296"/>
      <point x="44" y="278" type="curve"/>
      <point x="52" y="254" type="line"/>
      <point x="69" y="257"/>
      <point x="64" y="257"/>
      <point x="80" y="257" type="curve" smooth="yes"/>
      <point x="124" y="257"/>
      <point x="149" y="232"/>
      <point x="149" y="185" type="curve" smooth="yes"/>
      <point x="149" y="112"/>
      <point x="131" y="100"/>
      <point x="131" y="31" type="curve" smooth="yes"/>
      <point x="131" y="-53"/>
      <point x="172" y="-98"/>
      <point x="270" y="-138" type="curve"/>
      <point x="280" y="-111" type="line"/>
      <point x="218" y="-77"/>
      <point x="204" y="-45"/>
      <point x="204" y="18" type="curve" smooth="yes"/>
      <point x="204" y="77"/>
      <point x="222" y="98"/>
      <point x="222" y="169" type="curve" smooth="yes"/>
      <point x="222" y="233"/>
      <point x="201" y="276"/>
      <point x="143" y="286" type="curve"/>
      <point x="192" y="308"/>
      <point x="222" y="356"/>
      <point x="222" y="405" type="curve" smooth="yes"/>
      <point x="222" y="473"/>
      <point x="204" y="482"/>
      <point x="204" y="550" type="curve" smooth="yes"/>
      <point x="204" y="610"/>
      <point x="239" y="653"/>
    </contour>
  </outline>
</glyph>
<glyph name="bar" format="2">
  <advance width="219"/>
  <unicode hex="007C"/>
  <outline>
    <contour>
      <point x="142" y="-185" type="curve"/>
      <point x="142" y="723" type="line"/>
      <point x="125" y="733" type="line"/>
      <point x="108" y="729"/>
      <point x="93" y="720"/>
      <point x="76" y="711" type="curve"/>
      <point x="76" y="-198" type="line"/>
      <point x="93" y="-209" type="line"/>
      <point x="107" y="-204"/>
      <point x="132" y="-194"/>
    </contour>
  </outline>
</glyph>
<glyph name="braceright" format="2">
  <advance width="302"/>
  <unicode hex="007D"/>
  <outline>
    <contour>
      <point x="258" y="286" type="curve"/>
      <point x="250" y="310" type="line"/>
      <point x="232" y="306"/>
      <point x="237" y="307"/>
      <point x="222" y="307" type="curve" smooth="yes"/>
      <point x="178" y="307"/>
      <point x="153" y="332"/>
      <point x="153" y="380" type="curve" smooth="yes"/>
      <point x="153" y="452"/>
      <point x="170" y="464"/>
      <point x="170" y="533" type="curve" smooth="yes"/>
      <point x="170" y="617"/>
      <point x="130" y="664"/>
      <point x="31" y="703" type="curve"/>
      <point x="21" y="676" type="line"/>
      <point x="82" y="642"/>
      <point x="97" y="611"/>
      <point x="97" y="545" type="curve" smooth="yes"/>
      <point x="97" y="488"/>
      <point x="80" y="465"/>
      <point x="80" y="396" type="curve" smooth="yes"/>
      <point x="80" y="330"/>
      <point x="100" y="288"/>
      <point x="160" y="277" type="curve"/>
      <point x="109" y="255"/>
      <point x="80" y="208"/>
      <point x="80" y="160" type="curve" smooth="yes"/>
      <point x="80" y="90"/>
      <point x="97" y="83"/>
      <point x="97" y="15" type="curve" smooth="yes"/>
      <point x="97" y="-45"/>
      <point x="62" y="-88"/>
      <point x="17" y="-116" type="curve"/>
      <point x="29" y="-138" type="line"/>
      <point x="116" y="-98"/>
      <point x="170" y="-38"/>
      <point x="170" y="40" type="curve" smooth="yes"/>
      <point x="170" y="112"/>
      <point x="153" y="114"/>
      <point x="153" y="185" type="curve" smooth="yes"/>
      <point x="153" y="230"/>
      <point x="188" y="268"/>
    </contour>
  </outline>
</glyph>
<glyph name="asciitilde" format="2">
  <advance width="439"/>
  <unicode hex="007E"/>
  <outline>
    <contour>
      <point x="417" y="340" type="curve"/>
      <point x="394" y="351" type="line"/>
      <point x="370" y="303"/>
      <point x="344" y="280"/>
      <point x="316" y="280" type="curve" smooth="yes"/>
      <point x="269" y="280"/>
      <point x="208" y="351"/>
      <point x="154" y="351" type="curve" smooth="yes"/>
      <point x="98" y="351"/>
      <point x="46" y="278"/>
      <point x="21" y="220" type="curve"/>
      <point x="44" y="208" type="line"/>
      <point x="69" y="257"/>
      <point x="92" y="279"/>
      <point x="121" y="279" type="curve" smooth="yes"/>
      <point x="171" y="279"/>
      <point x="235" y="209"/>
      <point x="284" y="209" type="curve" smooth="yes"/>
      <point x="340" y="209"/>
      <point x="393" y="282"/>
    </contour>
  </outline>
</glyph>
<glyph name="exclamdown" format="2">
  <advance width="270"/>
  <unicode hex="00A1"/>
  <outline>
    <contour>
      <point x="183" y="345" type="curve" smooth="yes"/>
      <point x="183" y="373"/>
      <point x="162" y="395"/>
      <point x="135" y="395" type="curve" smooth="yes"/>
      <point x="107" y="395"/>
      <point x="85" y="373"/>
      <point x="85" y="345" type="curve" smooth="yes"/>
      <point x="85" y="318"/>
      <point x="107" y="296"/>
      <point x="135" y="296" type="curve" smooth="yes"/>
      <point x="162" y="296"/>
      <point x="183" y="318"/>
    </contour>
    <contour>
      <point x="183" y="-102" type="curve"/>
      <point x="154" y="241" type="line"/>
      <point x="116" y="241" type="line"/>
      <point x="86" y="-102" type="line" smooth="yes"/>
      <point x="82" y="-148"/>
      <point x="103" y="-164"/>
      <point x="135" y="-164" type="curve" smooth="yes"/>
      <point x="166" y="-164"/>
      <point x="187" y="-148"/>
    </contour>
  </outline>
</glyph>
<glyph name="cent" format="2">
  <advance width="422"/>
  <unicode hex="00A2"/>
  <outline>
    <contour>
      <point x="248" y="-3" type="curve"/>
      <point x="248" y="537" type="line"/>
      <point x="236" y="547" type="line"/>
      <point x="218" y="542"/>
      <point x="225" y="543"/>
      <point x="208" y="533" type="curve"/>
      <point x="208" y="-7" type="line"/>
      <point x="219" y="-18" type="line"/>
      <point x="233" y="-13"/>
      <point x="237" y="-12"/>
    </contour>
    <contour>
      <point x="379" y="153" type="curve"/>
      <point x="362" y="171" type="line"/>
      <point x="298" y="116"/>
      <point x="279" y="115"/>
      <point x="246" y="115" type="curve" smooth="yes"/>
      <point x="176" y="115"/>
      <point x="112" y="170"/>
      <point x="112" y="270" type="curve" smooth="yes"/>
      <point x="112" y="379"/>
      <point x="169" y="426"/>
      <point x="230" y="426" type="curve" smooth="yes"/>
      <point x="290" y="426"/>
      <point x="322" y="393"/>
      <point x="333" y="372" type="curve"/>
      <point x="348" y="368" type="line"/>
      <point x="359" y="383"/>
      <point x="376" y="425"/>
      <point x="373" y="439" type="curve"/>
      <point x="353" y="460"/>
      <point x="308" y="474"/>
      <point x="269" y="474" type="curve" smooth="yes"/>
      <point x="144" y="474"/>
      <point x="45" y="382"/>
      <point x="45" y="257" type="curve" smooth="yes"/>
      <point x="45" y="127"/>
      <point x="130" y="56"/>
      <point x="214" y="56" type="curve" smooth="yes"/>
      <point x="269" y="56"/>
      <point x="303" y="63"/>
    </contour>
  </outline>
</glyph>
<glyph name="sterling" format="2">
  <advance width="422"/>
  <unicode hex="00A3"/>
  <outline>
    <contour>
      <point x="378" y="511" type="curve"/>
      <point x="323" y="539"/>
      <point x="300" y="542"/>
      <point x="269" y="542" type="curve" smooth="yes"/>
      <point x="130" y="542"/>
      <point x="72" y="433"/>
      <point x="86" y="254" type="curve" smooth="yes"/>
      <point x="100" y="69"/>
      <point x="84" y="54"/>
      <point x="28" y="8" type="curve"/>
      <point x="38" y="-13" type="line"/>
      <point x="124" y="41"/>
      <point x="297" y="-43"/>
      <point x="376" y="0" type="curve"/>
      <point x="381" y="17"/>
      <point x="390" y="61"/>
      <point x="394" y="111" type="curve"/>
      <point x="375" y="119" type="line"/>
      <point x="350" y="50"/>
      <point x="330" y="45"/>
      <point x="276" y="44" type="curve" smooth="yes"/>
      <point x="211" y="42"/>
      <point x="193" y="50"/>
      <point x="113" y="44" type="curve"/>
      <point x="147" y="90"/>
      <point x="172" y="170"/>
      <point x="161" y="261" type="curve" smooth="yes"/>
      <point x="136" y="479"/>
      <point x="189" y="499"/>
      <point x="237" y="499" type="curve" smooth="yes"/>
      <point x="296" y="499"/>
      <point x="332" y="468"/>
      <point x="340" y="395" type="curve"/>
      <point x="361" y="395" type="line"/>
      <point x="368" y="417"/>
      <point x="377" y="482"/>
    </contour>
    <contour>
      <point x="270" y="235" type="line"/>
      <point x="281" y="265" type="line"/>
      <point x="270" y="275" type="line"/>
      <point x="37" y="275" type="line"/>
      <point x="34" y="266"/>
      <point x="30" y="255"/>
      <point x="28" y="246" type="curve"/>
      <point x="37" y="235" type="line"/>
    </contour>
  </outline>
</glyph>
<glyph name="currency" format="2">
  <advance width="422"/>
  <unicode hex="00A4"/>
  <outline>
    <contour>
      <point x="159" y="316" type="curve"/>
      <point x="174" y="331"/>
      <point x="192" y="338"/>
      <point x="211" y="338" type="curve" smooth="yes"/>
      <point x="230" y="338"/>
      <point x="249" y="331"/>
      <point x="263" y="316" type="curve" smooth="yes"/>
      <point x="278" y="302"/>
      <point x="285" y="283"/>
      <point x="285" y="264" type="curve" smooth="yes"/>
      <point x="285" y="245"/>
      <point x="278" y="226"/>
      <point x="264" y="212" type="curve" smooth="yes"/>
      <point x="249" y="197"/>
      <point x="230" y="190"/>
      <point x="211" y="190" type="curve" smooth="yes"/>
      <point x="192" y="190"/>
      <point x="174" y="197"/>
      <point x="159" y="212" type="curve" smooth="yes"/>
      <point x="144" y="226"/>
      <point x="137" y="245"/>
      <point x="137" y="264" type="curve" smooth="yes"/>
      <point x="137" y="283"/>
      <point x="145" y="302"/>
    </contour>
    <contour>
      <point x="130" y="346" type="curve"/>
      <point x="107" y="323"/>
      <point x="95" y="293"/>
      <point x="95" y="263" type="curve" smooth="yes"/>
      <point x="95" y="234"/>
      <point x="106" y="205"/>
      <point x="129" y="182" type="curve" smooth="yes"/>
      <point x="152" y="159"/>
      <point x="181" y="148"/>
      <point x="211" y="148" type="curve" smooth="yes"/>
      <point x="241" y="148"/>
      <point x="271" y="159"/>
      <point x="293" y="182" type="curve" smooth="yes"/>
      <point x="315" y="204"/>
      <point x="327" y="234"/>
      <point x="327" y="263" type="curve" smooth="yes"/>
      <point x="327" y="293"/>
      <point x="315" y="323"/>
      <point x="293" y="346" type="curve" smooth="yes"/>
      <point x="270" y="369"/>
      <point x="241" y="380"/>
      <point x="211" y="380" type="curve" smooth="yes"/>
      <point x="182" y="380"/>
      <point x="152" y="369"/>
    </contour>
    <contour>
      <point x="163" y="187" type="line"/>
      <point x="149" y="216" type="line"/>
      <point x="134" y="215" type="line"/>
      <point x="69" y="150" type="line"/>
      <point x="73" y="141"/>
      <point x="78" y="131"/>
      <point x="83" y="123" type="curve"/>
      <point x="97" y="122" type="line"/>
    </contour>
    <contour>
      <point x="131" y="315" type="line"/>
      <point x="160" y="329" type="line"/>
      <point x="159" y="344" type="line"/>
      <point x="97" y="406" type="line"/>
      <point x="88" y="402"/>
      <point x="78" y="396"/>
      <point x="70" y="392" type="curve"/>
      <point x="69" y="377" type="line"/>
    </contour>
    <contour>
      <point x="324" y="123" type="line"/>
      <point x="353" y="136" type="line"/>
      <point x="352" y="151" type="line"/>
      <point x="290" y="213" type="line"/>
      <point x="281" y="209"/>
      <point x="271" y="204"/>
      <point x="263" y="199" type="curve"/>
      <point x="262" y="185" type="line"/>
    </contour>
    <contour>
      <point x="352" y="377" type="line"/>
      <point x="339" y="406" type="line"/>
      <point x="324" y="405" type="line"/>
      <point x="258" y="340" type="line"/>
      <point x="262" y="331"/>
      <point x="268" y="320"/>
      <point x="272" y="312" type="curve"/>
      <point x="287" y="312" type="line"/>
    </contour>
  </outline>
</glyph>
<glyph name="yen" format="2">
  <advance width="433"/>
  <unicode hex="00A5"/>
  <outline>
    <contour>
      <point x="102" y="0" type="line"/>
      <point x="328" y="0" type="line"/>
      <point x="328" y="23" type="line"/>
      <point x="273" y="34"/>
      <point x="257" y="47"/>
      <point x="257" y="54" type="curve" smooth="yes"/>
      <point x="257" y="184" type="line"/>
      <point x="373" y="184" type="line"/>
      <point x="386" y="218" type="line"/>
      <point x="375" y="228" type="line"/>
      <point x="257" y="228" type="line"/>
      <point x="257" y="246" type="line"/>
      <point x="381" y="476" type="line" smooth="yes"/>
      <point x="389" y="492"/>
      <point x="408" y="498"/>
      <point x="448" y="505" type="curve"/>
      <point x="448" y="529" type="line"/>
      <point x="271" y="529" type="line"/>
      <point x="271" y="505" type="line"/>
      <point x="316" y="500"/>
      <point x="328" y="492"/>
      <point x="320" y="476" type="curve" smooth="yes"/>
      <point x="229" y="312" type="line"/>
      <point x="188" y="396"/>
      <point x="153" y="458"/>
      <point x="109" y="515" type="curve" smooth="yes"/>
      <point x="100" y="527"/>
      <point x="86" y="533"/>
      <point x="72" y="533" type="curve" smooth="yes"/>
      <point x="48" y="533"/>
      <point x="2" y="528"/>
      <point x="-31" y="523" type="curve"/>
      <point x="-29" y="499" type="line"/>
      <point x="19" y="499"/>
      <point x="30" y="489"/>
      <point x="41" y="476" type="curve" smooth="yes"/>
      <point x="81" y="425"/>
      <point x="133" y="334"/>
      <point x="173" y="247" type="curve"/>
      <point x="173" y="228" type="line"/>
      <point x="53" y="228" type="line"/>
      <point x="49" y="219"/>
      <point x="44" y="204"/>
      <point x="42" y="195" type="curve"/>
      <point x="51" y="184" type="line"/>
      <point x="173" y="184" type="line"/>
      <point x="173" y="54" type="line" smooth="yes"/>
      <point x="173" y="46"/>
      <point x="155" y="34"/>
      <point x="102" y="23" type="curve"/>
    </contour>
  </outline>
</glyph>
<glyph name="brokenbar" format="2">
  <advance width="219"/>
  <unicode hex="00A6"/>
  <outline>
    <contour>
      <point x="143" y="328" type="curve"/>
      <point x="143" y="723" type="line"/>
      <point x="126" y="733" type="line"/>
      <point x="108" y="729"/>
      <point x="93" y="720"/>
      <point x="76" y="711" type="curve"/>
      <point x="76" y="315" type="line"/>
      <point x="93" y="304" type="line"/>
      <point x="108" y="309"/>
      <point x="131" y="319"/>
    </contour>
    <contour>
      <point x="143" y="-185" type="curve"/>
      <point x="143" y="204" type="line"/>
      <point x="126" y="216" type="line"/>
      <point x="108" y="210"/>
      <point x="93" y="202"/>
      <point x="76" y="192" type="curve"/>
      <point x="76" y="-198" type="line"/>
      <point x="93" y="-209" type="line"/>
      <point x="108" y="-204"/>
      <point x="131" y="-194"/>
    </contour>
  </outline>
</glyph>
<glyph name="section" format="2">
  <advance width="400"/>
  <unicode hex="00A7"/>
  <outline>
    <contour>
      <point x="352" y="260" type="curve" smooth="yes"/>
      <point x="352" y="399"/>
      <point x="127" y="406"/>
      <point x="127" y="487" type="curve" smooth="yes"/>
      <point x="127" y="525"/>
      <point x="159" y="554"/>
      <point x="207" y="554" type="curve" smooth="yes"/>
      <point x="239" y="554"/>
      <point x="264" y="540"/>
      <point x="282" y="531" type="curve"/>
      <point x="290" y="466" type="line"/>
      <point x="328" y="466" type="line"/>
      <point x="328" y="570" type="line"/>
      <point x="312" y="577"/>
      <point x="263" y="589"/>
      <point x="216" y="589" type="curve" smooth="yes"/>
      <point x="112" y="589"/>
      <point x="61" y="544"/>
      <point x="61" y="471" type="curve" smooth="yes"/>
      <point x="61" y="424"/>
      <point x="93" y="393"/>
      <point x="141" y="369" type="curve"/>
      <point x="89" y="345"/>
      <point x="47" y="315"/>
      <point x="47" y="244" type="curve" smooth="yes"/>
      <point x="47" y="94"/>
      <point x="275" y="98"/>
      <point x="275" y="4" type="curve" smooth="yes"/>
      <point x="275" y="-35"/>
      <point x="239" y="-60"/>
      <point x="192" y="-60" type="curve" smooth="yes"/>
      <point x="169" y="-60"/>
      <point x="136" y="-51"/>
      <point x="117" y="-39" type="curve"/>
      <point x="109" y="16"/>
      <point x="111" y="3"/>
      <point x="106" y="32" type="curve"/>
      <point x="66" y="32" type="line"/>
      <point x="66" y="-71" type="line"/>
      <point x="86" y="-80"/>
      <point x="134" y="-97"/>
      <point x="189" y="-97" type="curve" smooth="yes"/>
      <point x="276" y="-97"/>
      <point x="338" y="-47"/>
      <point x="338" y="24" type="curve" smooth="yes"/>
      <point x="338" y="76"/>
      <point x="302" y="108"/>
      <point x="255" y="130" type="curve"/>
      <point x="304" y="149"/>
      <point x="352" y="197"/>
    </contour>
    <contour>
      <point x="290" y="239" type="curve" smooth="yes"/>
      <point x="290" y="198"/>
      <point x="246" y="158"/>
      <point x="223" y="146" type="curve"/>
      <point x="144" y="183"/>
      <point x="107" y="213"/>
      <point x="107" y="262" type="curve" smooth="yes"/>
      <point x="107" y="297"/>
      <point x="131" y="335"/>
      <point x="180" y="352" type="curve"/>
      <point x="249" y="323"/>
      <point x="290" y="287"/>
    </contour>
  </outline>
</glyph>
<glyph name="dieresis" format="2">
  <advance width="352"/>
  <unicode hex="00A8"/>
  <outline>
    <contour>
      <point x="131" y="554" type="curve"/>
      <point x="131" y="581"/>
      <point x="119" y="595"/>
      <point x="94" y="595" type="curve" smooth="yes"/>
      <point x="66" y="595"/>
      <point x="43" y="569"/>
      <point x="43" y="536" type="curve" smooth="yes"/>
      <point x="43" y="509"/>
      <point x="54" y="493"/>
      <point x="80" y="493" type="curve" smooth="yes"/>
      <point x="109" y="493"/>
      <point x="131" y="521"/>
    </contour>
    <contour>
      <point x="307" y="554" type="curve"/>
      <point x="307" y="581"/>
      <point x="295" y="595"/>
      <point x="270" y="595" type="curve" smooth="yes"/>
      <point x="242" y="595"/>
      <point x="219" y="569"/>
      <point x="219" y="536" type="curve" smooth="yes"/>
      <point x="219" y="509"/>
      <point x="230" y="493"/>
      <point x="256" y="493" type="curve" smooth="yes"/>
      <point x="285" y="493"/>
      <point x="307" y="521"/>
    </contour>
  </outline>
</glyph>
<glyph name="copyright" format="2">
  <advance width="641"/>
  <unicode hex="00A9"/>
  <outline>
    <contour>
      <point x="320" y="-13" type="curve" smooth="yes"/>
      <point x="480" y="-13"/>
      <point x="597" y="116"/>
      <point x="597" y="277" type="curve" smooth="yes"/>
      <point x="597" y="437"/>
      <point x="480" y="566"/>
      <point x="320" y="566" type="curve" smooth="yes"/>
      <point x="160" y="566"/>
      <point x="43" y="437"/>
      <point x="43" y="277" type="curve" smooth="yes"/>
      <point x="43" y="116"/>
      <point x="160" y="-13"/>
    </contour>
    <contour>
      <point x="310" y="95" type="curve" smooth="yes"/>
      <point x="352" y="95"/>
      <point x="395" y="111"/>
      <point x="447" y="162" type="curve"/>
      <point x="435" y="174" type="line"/>
      <point x="390" y="141"/>
      <point x="368" y="134"/>
      <point x="342" y="134" type="curve" smooth="yes"/>
      <point x="293" y="134"/>
      <point x="214" y="181"/>
      <point x="214" y="275" type="curve" smooth="yes"/>
      <point x="214" y="389"/>
      <point x="283" y="423"/>
      <point x="321" y="423" type="curve" smooth="yes"/>
      <point x="357" y="423"/>
      <point x="382" y="406"/>
      <point x="403" y="389" type="curve"/>
      <point x="413" y="388" type="line"/>
      <point x="424" y="395"/>
      <point x="446" y="427"/>
      <point x="442" y="431" type="curve"/>
      <point x="420" y="446"/>
      <point x="387" y="458"/>
      <point x="342" y="458" type="curve" smooth="yes"/>
      <point x="242" y="458"/>
      <point x="157" y="382"/>
      <point x="157" y="264" type="curve" smooth="yes"/>
      <point x="157" y="158"/>
      <point x="235" y="95"/>
    </contour>
    <contour>
      <point x="320" y="24" type="curve" smooth="yes"/>
      <point x="181" y="24"/>
      <point x="81" y="137"/>
      <point x="81" y="277" type="curve" smooth="yes"/>
      <point x="81" y="415"/>
      <point x="181" y="529"/>
      <point x="320" y="529" type="curve" smooth="yes"/>
      <point x="460" y="529"/>
      <point x="559" y="415"/>
      <point x="559" y="277" type="curve" smooth="yes"/>
      <point x="559" y="137"/>
      <point x="460" y="24"/>
    </contour>
  </outline>
</glyph>
<glyph name="ordfeminine" format="2">
  <advance width="230"/>
  <unicode hex="00AA"/>
  <outline>
    <contour>
      <point x="225" y="337" type="curve"/>
      <point x="223" y="348" type="line"/>
      <point x="206" y="341"/>
      <point x="198" y="341"/>
      <point x="195" y="343" type="curve" smooth="yes"/>
      <point x="191" y="347"/>
      <point x="188" y="353"/>
      <point x="188" y="370" type="curve" smooth="yes"/>
      <point x="188" y="456" type="line" smooth="yes"/>
      <point x="188" y="521"/>
      <point x="173" y="542"/>
      <point x="131" y="542" type="curve" smooth="yes"/>
      <point x="100" y="542"/>
      <point x="34" y="509"/>
      <point x="29" y="472" type="curve"/>
      <point x="32" y="463" type="line"/>
      <point x="40" y="461"/>
      <point x="79" y="470"/>
      <point x="78" y="475" type="curve" smooth="yes"/>
      <point x="69" y="500"/>
      <point x="93" y="517"/>
      <point x="110" y="517" type="curve" smooth="yes"/>
      <point x="142" y="517"/>
      <point x="148" y="497"/>
      <point x="148" y="461" type="curve" smooth="yes"/>
      <point x="148" y="371" type="line" smooth="yes"/>
      <point x="148" y="330"/>
      <point x="161" y="312"/>
      <point x="171" y="312" type="curve" smooth="yes"/>
      <point x="181" y="312"/>
      <point x="199" y="319"/>
    </contour>
    <contour>
      <point x="129" y="431" type="curve"/>
      <point x="181" y="444" type="line"/>
      <point x="180" y="462" type="line"/>
      <point x="108" y="443" type="line" smooth="yes"/>
      <point x="48" y="427"/>
      <point x="21" y="398"/>
      <point x="21" y="362" type="curve" smooth="yes"/>
      <point x="21" y="325"/>
      <point x="49" y="312"/>
      <point x="72" y="312" type="curve" smooth="yes"/>
      <point x="94" y="312"/>
      <point x="127" y="324"/>
      <point x="157" y="356" type="curve"/>
      <point x="154" y="374" type="line"/>
      <point x="130" y="352"/>
      <point x="107" y="342"/>
      <point x="87" y="342" type="curve" smooth="yes"/>
      <point x="79" y="342"/>
      <point x="64" y="348"/>
      <point x="64" y="372" type="curve" smooth="yes"/>
      <point x="64" y="397"/>
      <point x="78" y="416"/>
    </contour>
    <contour>
      <point x="22" y="257" type="line"/>
      <point x="213" y="257" type="line"/>
      <point x="213" y="289" type="line"/>
      <point x="22" y="289" type="line"/>
    </contour>
  </outline>
</glyph>
<glyph name="guillemetleft" format="2">
  <advance width="353"/>
  <unicode hex="00AB"/>
  <outline>
    <contour>
      <point x="150" y="0" type="line"/>
      <point x="189" y="0" type="line"/>
      <point x="89" y="192" type="line"/>
      <point x="189" y="385" type="line"/>
      <point x="150" y="385" type="line"/>
      <point x="21" y="212" type="line"/>
      <point x="21" y="172" type="line"/>
    </contour>
    <contour>
      <point x="298" y="0" type="line"/>
      <point x="337" y="0" type="line"/>
      <point x="238" y="192" type="line"/>
      <point x="337" y="385" type="line"/>
      <point x="298" y="385" type="line"/>
      <point x="169" y="212" type="line"/>
      <point x="169" y="172" type="line"/>
    </contour>
  </outline>
</glyph>
<glyph name="guillemotleft" format="2">
  <advance width="445"/>
  <unicode hex="00AB"/>
  <outline>
    <contour>
      <point x="201" y="188" type="curve"/>
      <point x="365" y="5" type="line"/>
      <point x="386" y="20" type="line"/>
      <point x="289" y="205" type="line"/>
      <point x="287" y="204"/>
      <point x="386" y="388"/>
      <point x="385" y="388" type="curve"/>
      <point x="365" y="403" type="line"/>
      <point x="201" y="221" type="line"/>
      <point x="201" y="219"/>
      <point x="201" y="188"/>
    </contour>
    <contour>
      <point x="32" y="188" type="curve"/>
      <point x="197" y="5" type="line"/>
      <point x="218" y="20" type="line"/>
      <point x="121" y="205" type="line"/>
      <point x="119" y="204"/>
      <point x="218" y="388"/>
      <point x="217" y="388" type="curve"/>
      <point x="197" y="403" type="line"/>
      <point x="33" y="221" type="line"/>
      <point x="32" y="219"/>
      <point x="32" y="188"/>
    </contour>
  </outline>
</glyph>
<glyph name="logicalnot" format="2">
  <advance width="496"/>
  <unicode hex="00AC"/>
  <outline>
    <contour>
      <point x="464" y="151" type="line"/>
      <point x="464" y="335" type="line"/>
      <point x="32" y="335" type="line"/>
      <point x="32" y="287" type="line"/>
      <point x="416" y="287" type="line"/>
      <point x="416" y="151" type="line"/>
    </contour>
  </outline>
</glyph>
<glyph name="registered" format="2">
  <advance width="320"/>
  <unicode hex="00AE"/>
  <outline>
    <contour>
      <point x="308" y="476" type="curve"/>
      <point x="308" y="561"/>
      <point x="245" y="630"/>
      <point x="159" y="630" type="curve" smooth="yes"/>
      <point x="74" y="630"/>
      <point x="13" y="561"/>
      <point x="13" y="476" type="curve" smooth="yes"/>
      <point x="13" y="391"/>
      <point x="74" y="322"/>
      <point x="159" y="322" type="curve" smooth="yes"/>
      <point x="245" y="322"/>
      <point x="308" y="391"/>
    </contour>
    <contour>
      <point x="279" y="476" type="curve"/>
      <point x="279" y="406"/>
      <point x="229" y="350"/>
      <point x="159" y="350" type="curve" smooth="yes"/>
      <point x="90" y="350"/>
      <point x="40" y="406"/>
      <point x="40" y="476" type="curve" smooth="yes"/>
      <point x="40" y="545"/>
      <point x="90" y="602"/>
      <point x="159" y="602" type="curve" smooth="yes"/>
      <point x="229" y="602"/>
      <point x="279" y="545"/>
    </contour>
    <contour>
      <point x="221" y="525" type="curve"/>
      <point x="221" y="549"/>
      <point x="199" y="567"/>
      <point x="153" y="567" type="curve" smooth="yes"/>
      <point x="128" y="567"/>
      <point x="109" y="564"/>
      <point x="92" y="560" type="curve"/>
      <point x="93" y="546" type="line"/>
      <point x="112" y="549"/>
      <point x="132" y="551"/>
      <point x="148" y="551" type="curve" smooth="yes"/>
      <point x="179" y="551"/>
      <point x="191" y="538"/>
      <point x="191" y="521" type="curve" smooth="yes"/>
      <point x="191" y="499"/>
      <point x="178" y="486"/>
      <point x="149" y="486" type="curve" smooth="yes"/>
      <point x="144" y="486"/>
      <point x="140" y="487"/>
      <point x="134" y="488" type="curve"/>
      <point x="134" y="471" type="line"/>
      <point x="140" y="470"/>
      <point x="146" y="469"/>
      <point x="151" y="469" type="curve" smooth="yes"/>
      <point x="192" y="469"/>
      <point x="221" y="490"/>
    </contour>
    <contour>
      <point x="244" y="394" type="curve"/>
      <point x="243" y="404" type="line"/>
      <point x="231" y="403"/>
      <point x="225" y="404"/>
      <point x="221" y="411" type="curve" smooth="yes"/>
      <point x="171" y="482" type="line"/>
      <point x="150" y="474" type="line"/>
      <point x="196" y="394" type="line" smooth="yes"/>
      <point x="198" y="390"/>
      <point x="204" y="386"/>
      <point x="209" y="386" type="curve" smooth="yes"/>
      <point x="216" y="386"/>
      <point x="233" y="391"/>
    </contour>
    <contour>
      <point x="93" y="389" type="line"/>
      <point x="156" y="389" type="line"/>
      <point x="156" y="398" type="line"/>
      <point x="143" y="400"/>
      <point x="138" y="403"/>
      <point x="138" y="406" type="curve" smooth="yes"/>
      <point x="138" y="558" type="line"/>
      <point x="111" y="558" type="line"/>
      <point x="111" y="406" type="line" smooth="yes"/>
      <point x="111" y="403"/>
      <point x="105" y="400"/>
      <point x="93" y="398" type="curve"/>
    </contour>
  </outline>
</glyph>
<glyph name="macron" format="2">
  <advance width="443"/>
  <unicode hex="00AF"/>
  <outline>
    <contour>
      <point x="370" y="562" type="curve"/>
      <point x="360" y="573" type="line"/>
      <point x="91" y="573" type="line"/>
      <point x="85" y="562"/>
      <point x="76" y="540"/>
      <point x="73" y="527" type="curve"/>
      <point x="83" y="516" type="line"/>
      <point x="353" y="516" type="line"/>
      <point x="357" y="527"/>
      <point x="367" y="550"/>
    </contour>
  </outline>
</glyph>
<glyph name="degree" format="2">
  <advance width="322"/>
  <unicode hex="00B0"/>
  <outline>
    <contour>
      <point x="264" y="459" type="curve"/>
      <point x="264" y="506"/>
      <point x="225" y="546"/>
      <point x="178" y="546" type="curve" smooth="yes"/>
      <point x="121" y="546"/>
      <point x="57" y="491"/>
      <point x="57" y="415" type="curve" smooth="yes"/>
      <point x="57" y="368"/>
      <point x="93" y="329"/>
      <point x="143" y="329" type="curve" smooth="yes"/>
      <point x="200" y="329"/>
      <point x="264" y="385"/>
    </contour>
    <contour>
      <point x="210" y="437" type="curve"/>
      <point x="210" y="398"/>
      <point x="183" y="377"/>
      <point x="156" y="377" type="curve" smooth="yes"/>
      <point x="128" y="377"/>
      <point x="112" y="407"/>
      <point x="112" y="438" type="curve" smooth="yes"/>
      <point x="112" y="475"/>
      <point x="138" y="498"/>
      <point x="165" y="498" type="curve" smooth="yes"/>
      <point x="193" y="498"/>
      <point x="210" y="469"/>
    </contour>
  </outline>
</glyph>
<glyph name="plusminus" format="2">
  <advance width="800"/>
  <unicode hex="00B1"/>
  <outline>
    <contour>
      <point x="639" y="286" type="line"/>
      <point x="639" y="335" type="line"/>
      <point x="424" y="335" type="line"/>
      <point x="424" y="480" type="line"/>
      <point x="375" y="480" type="line"/>
      <point x="375" y="335" type="line"/>
      <point x="160" y="335" type="line"/>
      <point x="160" y="286" type="line"/>
      <point x="375" y="286" type="line"/>
      <point x="375" y="142" type="line"/>
      <point x="424" y="142" type="line"/>
      <point x="424" y="286" type="line"/>
    </contour>
    <contour>
      <point x="639" y="0" type="line"/>
      <point x="639" y="49" type="line"/>
      <point x="160" y="49" type="line"/>
      <point x="160" y="0" type="line"/>
    </contour>
  </outline>
</glyph>
<glyph name="twosuperior" format="2">
  <advance width="295"/>
  <unicode hex="00B2"/>
  <anchor x="148" y="619" name="U"/>
  <outline>
    <contour>
      <point x="257" y="272" type="line"/>
      <point x="261" y="348" type="line"/>
      <point x="241" y="351" type="line"/>
      <point x="241" y="351"/>
      <point x="238" y="308"/>
      <point x="210" y="308" type="curve" smooth="yes"/>
      <point x="90" y="308" type="line"/>
      <point x="216" y="435"/>
      <point x="257" y="476"/>
      <point x="257" y="523" type="curve" smooth="yes"/>
      <point x="257" y="574"/>
      <point x="218" y="598"/>
      <point x="164" y="598" type="curve" smooth="yes"/>
      <point x="97" y="598"/>
      <point x="34" y="550"/>
      <point x="34" y="513" type="curve"/>
      <point x="42" y="505" type="line"/>
      <point x="61" y="507"/>
      <point x="76" y="511"/>
      <point x="90" y="518" type="curve"/>
      <point x="90" y="543"/>
      <point x="112" y="569"/>
      <point x="143" y="569" type="curve" smooth="yes"/>
      <point x="185" y="569"/>
      <point x="201" y="548"/>
      <point x="201" y="515" type="curve" smooth="yes"/>
      <point x="201" y="475"/>
      <point x="171" y="437"/>
      <point x="25" y="291" type="curve"/>
      <point x="34" y="272" type="line"/>
    </contour>
  </outline>
</glyph>
<glyph name="threesuperior" format="2">
  <advance width="295"/>
  <unicode hex="00B3"/>
  <anchor x="148" y="619" name="U"/>
  <outline>
    <contour>
      <point x="257" y="373" type="curve"/>
      <point x="257" y="415"/>
      <point x="222" y="451"/>
      <point x="175" y="456" type="curve"/>
      <point x="215" y="468"/>
      <point x="239" y="498"/>
      <point x="239" y="525" type="curve" smooth="yes"/>
      <point x="239" y="560"/>
      <point x="211" y="598"/>
      <point x="148" y="598" type="curve" smooth="yes"/>
      <point x="84" y="598"/>
      <point x="27" y="556"/>
      <point x="27" y="526" type="curve"/>
      <point x="36" y="518" type="line"/>
      <point x="53" y="519"/>
      <point x="73" y="522"/>
      <point x="87" y="529" type="curve"/>
      <point x="82" y="552"/>
      <point x="100" y="569"/>
      <point x="130" y="569" type="curve" smooth="yes"/>
      <point x="168" y="569"/>
      <point x="182" y="544"/>
      <point x="182" y="520" type="curve" smooth="yes"/>
      <point x="182" y="498"/>
      <point x="174" y="470"/>
      <point x="101" y="453" type="curve"/>
      <point x="105" y="432" type="line"/>
      <point x="117" y="434"/>
      <point x="114" y="434"/>
      <point x="126" y="434" type="curve" smooth="yes"/>
      <point x="160" y="434"/>
      <point x="200" y="417"/>
      <point x="200" y="364" type="curve" smooth="yes"/>
      <point x="200" y="319"/>
      <point x="168" y="295"/>
      <point x="120" y="295" type="curve" smooth="yes"/>
      <point x="90" y="295"/>
      <point x="64" y="302"/>
      <point x="26" y="326" type="curve"/>
      <point x="16" y="308" type="line"/>
      <point x="53" y="277"/>
      <point x="92" y="264"/>
      <point x="129" y="264" type="curve" smooth="yes"/>
      <point x="209" y="264"/>
      <point x="257" y="313"/>
    </contour>
  </outline>
</glyph>
<glyph name="acute" format="2">
  <advance width="286"/>
  <unicode hex="00B4"/>
  <outline>
    <contour>
      <point x="122" y="459" type="curve"/>
      <point x="279" y="626" type="line"/>
      <point x="268" y="645" type="line"/>
      <point x="255" y="648"/>
      <point x="206" y="656"/>
      <point x="192" y="657" type="curve"/>
      <point x="93" y="473" type="line"/>
      <point x="100" y="468"/>
      <point x="112" y="461"/>
    </contour>
  </outline>
</glyph>
<glyph name="mu" format="2">
  <advance width="485"/>
  <unicode hex="00B5"/>
  <outline>
    <contour>
      <point x="476" y="36" type="curve"/>
      <point x="472" y="55" type="line"/>
      <point x="453" y="48"/>
      <point x="438" y="43"/>
      <point x="425" y="43" type="curve" smooth="yes"/>
      <point x="413" y="43"/>
      <point x="408" y="63"/>
      <point x="408" y="117" type="curve" smooth="yes"/>
      <point x="408" y="135"/>
      <point x="408" y="323"/>
      <point x="408" y="333" type="curve"/>
      <point x="409" y="370"/>
      <point x="413" y="389"/>
      <point x="415" y="404" type="curve"/>
      <point x="403" y="421" type="line"/>
      <point x="379" y="412"/>
      <point x="351" y="402"/>
      <point x="326" y="395" type="curve"/>
      <point x="333" y="384"/>
      <point x="342" y="347"/>
      <point x="342" y="328" type="curve" smooth="yes"/>
      <point x="342" y="314"/>
      <point x="342" y="107"/>
      <point x="342" y="94" type="curve" smooth="yes"/>
      <point x="342" y="38"/>
      <point x="352" y="-13"/>
      <point x="379" y="-13" type="curve" smooth="yes"/>
      <point x="399" y="-13"/>
      <point x="441" y="14"/>
    </contour>
    <contour>
      <point x="369" y="116" type="curve"/>
      <point x="362" y="155" type="line"/>
      <point x="306" y="67"/>
      <point x="265" y="57"/>
      <point x="229" y="57" type="curve" smooth="yes"/>
      <point x="180" y="57"/>
      <point x="149" y="120"/>
      <point x="149" y="160" type="curve" smooth="yes"/>
      <point x="149" y="166"/>
      <point x="149" y="399"/>
      <point x="149" y="402" type="curve"/>
      <point x="144" y="409"/>
      <point x="133" y="421"/>
      <point x="132" y="421" type="curve"/>
      <point x="101" y="406"/>
      <point x="72" y="400"/>
      <point x="26" y="392" type="curve"/>
      <point x="26" y="375" type="line"/>
      <point x="82" y="369"/>
      <point x="83" y="366"/>
      <point x="83" y="321" type="curve" smooth="yes"/>
      <point x="83" y="315"/>
      <point x="83" y="203"/>
      <point x="83" y="194" type="curve" smooth="yes"/>
      <point x="83" y="71"/>
      <point x="152" y="-13"/>
      <point x="215" y="-13" type="curve" smooth="yes"/>
      <point x="255" y="-13"/>
      <point x="312" y="30"/>
    </contour>
    <contour>
      <point x="119" y="201" type="curve"/>
      <point x="115" y="225"/>
      <point x="83" y="270"/>
      <point x="83" y="270" type="curve"/>
      <point x="83" y="239"/>
      <point x="83" y="-194"/>
      <point x="83" y="-206" type="curve"/>
      <point x="100" y="-219" type="line"/>
      <point x="114" y="-212"/>
      <point x="163" y="-194"/>
      <point x="180" y="-188" type="curve"/>
      <point x="149" y="-151"/>
      <point x="119" y="-79"/>
      <point x="119" y="50" type="curve"/>
      <point x="120" y="119"/>
      <point x="115" y="148"/>
    </contour>
  </outline>
</glyph>
<glyph name="paragraph" format="2">
  <advance width="498"/>
  <unicode hex="00B6"/>
  <outline>
    <contour>
      <point x="431" y="553" type="curve"/>
      <point x="431" y="553"/>
      <point x="274" y="566"/>
      <point x="223" y="566" type="curve" smooth="yes"/>
      <point x="104" y="566"/>
      <point x="21" y="496"/>
      <point x="21" y="396" type="curve" smooth="yes"/>
      <point x="21" y="286"/>
      <point x="112" y="231"/>
      <point x="221" y="231" type="curve" smooth="yes"/>
      <point x="280" y="231"/>
      <point x="297" y="247"/>
      <point x="297" y="247" type="curve"/>
      <point x="293" y="271" type="line"/>
      <point x="293" y="271"/>
      <point x="278" y="268"/>
      <point x="240" y="268" type="curve" smooth="yes"/>
      <point x="137" y="268"/>
      <point x="94" y="348"/>
      <point x="94" y="412" type="curve" smooth="yes"/>
      <point x="94" y="477"/>
      <point x="145" y="529"/>
      <point x="214" y="529" type="curve" smooth="yes"/>
      <point x="246" y="529"/>
      <point x="306" y="525"/>
      <point x="363" y="504" type="curve"/>
      <point x="368" y="499"/>
      <point x="431" y="553"/>
    </contour>
    <contour>
      <point x="195" y="-109" type="line"/>
      <point x="463" y="-109" type="line"/>
      <point x="463" y="-90" type="line"/>
      <point x="420" y="-82"/>
      <point x="399" y="-71"/>
      <point x="399" y="-63" type="curve" smooth="yes"/>
      <point x="399" y="507" type="line" smooth="yes"/>
      <point x="399" y="515"/>
      <point x="424" y="526"/>
      <point x="463" y="534" type="curve"/>
      <point x="463" y="553" type="line"/>
      <point x="195" y="553" type="line"/>
      <point x="195" y="534" type="line"/>
      <point x="238" y="526"/>
      <point x="260" y="543"/>
      <point x="260" y="536" type="curve" smooth="yes"/>
      <point x="259" y="-63" type="line" smooth="yes"/>
      <point x="259" y="-72"/>
      <point x="235" y="-82"/>
      <point x="195" y="-90" type="curve"/>
    </contour>
    <contour>
      <point x="347" y="529" type="line"/>
      <point x="347" y="-63" type="line"/>
      <point x="347" y="-70"/>
      <point x="336" y="-75"/>
      <point x="329" y="-77" type="curve"/>
      <point x="323" y="-75"/>
      <point x="312" y="-70"/>
      <point x="312" y="-63" type="curve" smooth="yes"/>
      <point x="312" y="537" type="line"/>
    </contour>
  </outline>
</glyph>
<glyph name="periodcentered" format="2">
  <advance width="150"/>
  <unicode hex="00B7"/>
  <outline>
    <contour>
      <point x="122" y="271" type="curve" smooth="yes"/>
      <point x="122" y="298"/>
      <point x="101" y="319"/>
      <point x="75" y="319" type="curve" smooth="yes"/>
      <point x="48" y="319"/>
      <point x="28" y="298"/>
      <point x="28" y="271" type="curve" smooth="yes"/>
      <point x="28" y="245"/>
      <point x="48" y="224"/>
      <point x="75" y="224" type="curve" smooth="yes"/>
      <point x="101" y="224"/>
      <point x="122" y="245"/>
    </contour>
  </outline>
</glyph>
<glyph name="cedilla" format="2">
  <advance width="206"/>
  <unicode hex="00B8"/>
  <outline>
    <contour>
      <point x="179" y="-100" type="curve"/>
      <point x="179" y="-67"/>
      <point x="148" y="-52"/>
      <point x="117" y="-45" type="curve"/>
      <point x="140" y="21" type="line"/>
      <point x="106" y="22" type="line"/>
      <point x="75" y="-75"/>
      <point x="68" y="-91"/>
      <point x="68" y="-91" type="curve"/>
      <point x="104" y="-95"/>
      <point x="118" y="-101"/>
      <point x="118" y="-121" type="curve" smooth="yes"/>
      <point x="118" y="-140"/>
      <point x="95" y="-163"/>
      <point x="34" y="-173" type="curve"/>
      <point x="43" y="-195" type="line"/>
      <point x="140" y="-181"/>
      <point x="179" y="-144"/>
    </contour>
  </outline>
</glyph>
<glyph name="onesuperior" format="2">
  <advance width="292"/>
  <unicode hex="00B9"/>
  <anchor x="135" y="644" name="U"/>
  <outline>
    <contour>
      <point x="232" y="306" type="line"/>
      <point x="232" y="328" type="line"/>
      <point x="183" y="329" type="line" smooth="yes"/>
      <point x="176" y="329"/>
      <point x="171" y="334"/>
      <point x="171" y="339" type="curve" smooth="yes"/>
      <point x="171" y="633" type="line"/>
      <point x="151" y="633" type="line"/>
      <point x="39" y="601" type="line"/>
      <point x="39" y="580" type="line"/>
      <point x="119" y="593" type="line"/>
      <point x="119" y="339" type="line" smooth="yes"/>
      <point x="119" y="334"/>
      <point x="115" y="329"/>
      <point x="108" y="329" type="curve" smooth="yes"/>
      <point x="55" y="328" type="line"/>
      <point x="55" y="306" type="line"/>
    </contour>
  </outline>
</glyph>
<glyph name="ordmasculine" format="2">
  <advance width="254"/>
  <unicode hex="00BA"/>
  <outline>
    <contour>
      <point x="232" y="431" type="curve"/>
      <point x="232" y="495"/>
      <point x="190" y="542"/>
      <point x="134" y="542" type="curve" smooth="yes"/>
      <point x="72" y="542"/>
      <point x="21" y="484"/>
      <point x="21" y="423" type="curve" smooth="yes"/>
      <point x="21" y="359"/>
      <point x="61" y="312"/>
      <point x="119" y="312" type="curve" smooth="yes"/>
      <point x="174" y="312"/>
      <point x="232" y="371"/>
    </contour>
    <contour>
      <point x="26" y="257" type="line"/>
      <point x="226" y="257" type="line"/>
      <point x="226" y="289" type="line"/>
      <point x="26" y="289" type="line"/>
    </contour>
    <contour>
      <point x="190" y="424" type="curve"/>
      <point x="190" y="375"/>
      <point x="165" y="337"/>
      <point x="134" y="337" type="curve" smooth="yes"/>
      <point x="97" y="337"/>
      <point x="62" y="379"/>
      <point x="62" y="429" type="curve" smooth="yes"/>
      <point x="62" y="479"/>
      <point x="84" y="516"/>
      <point x="119" y="516" type="curve" smooth="yes"/>
      <point x="158" y="516"/>
      <point x="190" y="474"/>
    </contour>
  </outline>
</glyph>
<glyph name="guillemetright" format="2">
  <advance width="353"/>
  <unicode hex="00BB"/>
  <outline>
    <contour>
      <point x="203" y="385" type="line"/>
      <point x="164" y="385" type="line"/>
      <point x="263" y="192" type="line"/>
      <point x="164" y="0" type="line"/>
      <point x="203" y="0" type="line"/>
      <point x="332" y="173" type="line"/>
      <point x="332" y="213" type="line"/>
    </contour>
    <contour>
      <point x="54" y="385" type="line"/>
      <point x="15" y="385" type="line"/>
      <point x="115" y="192" type="line"/>
      <point x="15" y="0" type="line"/>
      <point x="54" y="0" type="line"/>
      <point x="183" y="173" type="line"/>
      <point x="183" y="213" type="line"/>
    </contour>
  </outline>
</glyph>
<glyph name="guillemotright" format="2">
  <advance width="445"/>
  <unicode hex="00BB"/>
  <outline>
    <contour>
      <point x="244" y="188" type="line"/>
      <point x="243" y="220" type="line"/>
      <point x="80" y="403" type="line"/>
      <point x="59" y="388" type="line"/>
      <point x="156" y="204" type="line"/>
      <point x="59" y="20" type="line"/>
      <point x="80" y="5" type="line"/>
    </contour>
    <contour>
      <point x="412" y="188" type="line"/>
      <point x="411" y="220" type="line"/>
      <point x="248" y="403" type="line"/>
      <point x="227" y="388" type="line"/>
      <point x="324" y="204" type="line"/>
      <point x="227" y="20" type="line"/>
      <point x="248" y="5" type="line"/>
    </contour>
  </outline>
</glyph>
<glyph name="onequarter" format="2">
  <advance width="700"/>
  <unicode hex="00BC"/>
  <outline>
    <contour>
      <point x="661" y="91" type="line"/>
      <point x="661" y="123" type="line"/>
      <point x="602" y="123" type="line"/>
      <point x="602" y="324" type="line"/>
      <point x="567" y="324" type="line"/>
      <point x="391" y="124" type="line"/>
      <point x="391" y="91" type="line"/>
      <point x="557" y="91" type="line"/>
      <point x="557" y="-16" type="line"/>
      <point x="602" y="-16" type="line"/>
      <point x="602" y="91" type="line"/>
    </contour>
    <contour>
      <point x="551" y="558" type="line"/>
      <point x="501" y="558" type="line"/>
      <point x="146" y="0" type="line"/>
      <point x="197" y="0" type="line"/>
    </contour>
    <contour>
      <point x="231" y="235" type="line"/>
      <point x="231" y="257" type="line"/>
      <point x="182" y="259" type="line"/>
      <point x="176" y="260"/>
      <point x="170" y="264"/>
      <point x="170" y="269" type="curve" smooth="yes"/>
      <point x="170" y="564" type="line"/>
      <point x="151" y="564" type="line"/>
      <point x="38" y="532" type="line"/>
      <point x="38" y="510" type="line"/>
      <point x="119" y="523" type="line"/>
      <point x="119" y="269" type="line" smooth="yes"/>
      <point x="119" y="264"/>
      <point x="114" y="260"/>
      <point x="107" y="259" type="curve"/>
      <point x="55" y="257" type="line"/>
      <point x="55" y="235" type="line"/>
    </contour>
    <contour>
      <point x="557" y="123" type="line"/>
      <point x="432" y="123" type="line"/>
      <point x="557" y="268" type="line"/>
    </contour>
  </outline>
</glyph>
<glyph name="onehalf" format="2">
  <advance width="700"/>
  <unicode hex="00BD"/>
  <outline>
    <contour>
      <point x="664" y="0" type="line"/>
      <point x="664" y="82" type="line"/>
      <point x="637" y="82" type="line"/>
      <point x="628" y="40" type="line"/>
      <point x="475" y="40" type="line"/>
      <point x="568" y="108"/>
      <point x="651" y="167"/>
      <point x="651" y="235" type="curve" smooth="yes"/>
      <point x="651" y="292"/>
      <point x="609" y="328"/>
      <point x="542" y="328" type="curve" smooth="yes"/>
      <point x="481" y="328"/>
      <point x="429" y="299"/>
      <point x="429" y="258" type="curve" smooth="yes"/>
      <point x="429" y="239"/>
      <point x="444" y="230"/>
      <point x="460" y="230" type="curve" smooth="yes"/>
      <point x="476" y="230"/>
      <point x="486" y="238"/>
      <point x="486" y="238" type="curve"/>
      <point x="486" y="291" type="line"/>
      <point x="488" y="292"/>
      <point x="504" y="301"/>
      <point x="528" y="301" type="curve" smooth="yes"/>
      <point x="568" y="301"/>
      <point x="596" y="278"/>
      <point x="596" y="232" type="curve" smooth="yes"/>
      <point x="596" y="164"/>
      <point x="525" y="112"/>
      <point x="419" y="32" type="curve"/>
      <point x="419" y="0" type="line"/>
    </contour>
    <contour>
      <point x="546" y="558" type="line"/>
      <point x="496" y="558" type="line"/>
      <point x="140" y="0" type="line"/>
      <point x="191" y="0" type="line"/>
    </contour>
    <contour>
      <point x="229" y="235" type="line"/>
      <point x="229" y="257" type="line"/>
      <point x="180" y="259" type="line"/>
      <point x="174" y="260"/>
      <point x="168" y="264"/>
      <point x="168" y="269" type="curve" smooth="yes"/>
      <point x="168" y="564" type="line"/>
      <point x="149" y="564" type="line"/>
      <point x="36" y="532" type="line"/>
      <point x="36" y="510" type="line"/>
      <point x="117" y="523" type="line"/>
      <point x="117" y="269" type="line" smooth="yes"/>
      <point x="117" y="264"/>
      <point x="112" y="260"/>
      <point x="106" y="259" type="curve"/>
      <point x="53" y="257" type="line"/>
      <point x="53" y="235" type="line"/>
    </contour>
  </outline>
</glyph>
<glyph name="threequarters" format="2">
  <advance width="527"/>
  <unicode hex="00BE"/>
  <outline>
    <contour>
      <point x="138" y="1" type="curve"/>
      <point x="471" y="530" type="line"/>
      <point x="460" y="542" type="line"/>
      <point x="448" y="540"/>
      <point x="433" y="533"/>
      <point x="421" y="528" type="curve"/>
      <point x="87" y="0" type="line"/>
      <point x="97" y="-13" type="line"/>
      <point x="113" y="-9"/>
      <point x="125" y="-5"/>
    </contour>
    <contour>
      <point x="228" y="360" type="curve" smooth="yes"/>
      <point x="228" y="394"/>
      <point x="199" y="423"/>
      <point x="162" y="427" type="curve"/>
      <point x="194" y="437"/>
      <point x="213" y="460"/>
      <point x="213" y="482" type="curve" smooth="yes"/>
      <point x="213" y="510"/>
      <point x="191" y="540"/>
      <point x="140" y="540" type="curve" smooth="yes"/>
      <point x="89" y="540"/>
      <point x="43" y="507"/>
      <point x="43" y="483" type="curve"/>
      <point x="50" y="476" type="line"/>
      <point x="64" y="478"/>
      <point x="80" y="480"/>
      <point x="91" y="485" type="curve"/>
      <point x="87" y="504"/>
      <point x="101" y="517"/>
      <point x="126" y="517" type="curve" smooth="yes"/>
      <point x="156" y="517"/>
      <point x="167" y="497"/>
      <point x="167" y="478" type="curve" smooth="yes"/>
      <point x="167" y="460"/>
      <point x="160" y="438"/>
      <point x="102" y="424" type="curve"/>
      <point x="105" y="408" type="line"/>
      <point x="116" y="410"/>
      <point x="113" y="410"/>
      <point x="122" y="410" type="curve" smooth="yes"/>
      <point x="150" y="410"/>
      <point x="181" y="395"/>
      <point x="181" y="353" type="curve" smooth="yes"/>
      <point x="181" y="317"/>
      <point x="156" y="298"/>
      <point x="118" y="298" type="curve" smooth="yes"/>
      <point x="94" y="298"/>
      <point x="72" y="304"/>
      <point x="43" y="322" type="curve"/>
      <point x="35" y="308" type="line"/>
      <point x="64" y="284"/>
      <point x="95" y="273"/>
      <point x="125" y="273" type="curve" smooth="yes"/>
      <point x="188" y="273"/>
      <point x="228" y="313"/>
    </contour>
    <contour>
      <point x="492" y="92" type="curve"/>
      <point x="485" y="99" type="line"/>
      <point x="458" y="99" type="line"/>
      <point x="458" y="255" type="line"/>
      <point x="450" y="262" type="line"/>
      <point x="439" y="258"/>
      <point x="423" y="252"/>
      <point x="410" y="247" type="curve"/>
      <point x="286" y="79" type="line"/>
      <point x="295" y="72" type="line"/>
      <point x="417" y="72" type="line"/>
      <point x="417" y="27" type="line" smooth="yes"/>
      <point x="417" y="22"/>
      <point x="411" y="18"/>
      <point x="369" y="12" type="curve"/>
      <point x="369" y="0" type="line"/>
      <point x="489" y="0" type="line"/>
      <point x="489" y="12" type="line"/>
      <point x="462" y="18"/>
      <point x="458" y="21"/>
      <point x="458" y="25" type="curve" smooth="yes"/>
      <point x="458" y="72" type="line"/>
      <point x="472" y="72" type="line"/>
      <point x="479" y="76"/>
      <point x="485" y="83"/>
    </contour>
    <contour>
      <point x="417" y="215" type="line"/>
      <point x="417" y="99" type="line"/>
      <point x="329" y="99" type="line"/>
    </contour>
  </outline>
</glyph>
<glyph name="questiondown" format="2">
  <advance width="389"/>
  <unicode hex="00BF"/>
  <outline>
    <contour>
      <point x="257" y="372" type="curve" smooth="yes"/>
      <point x="257" y="404"/>
      <point x="243" y="421"/>
      <point x="213" y="421" type="curve" smooth="yes"/>
      <point x="179" y="421"/>
      <point x="152" y="390"/>
      <point x="152" y="351" type="curve" smooth="yes"/>
      <point x="152" y="318"/>
      <point x="166" y="300"/>
      <point x="195" y="300" type="curve" smooth="yes"/>
      <point x="229" y="300"/>
      <point x="257" y="333"/>
    </contour>
    <contour>
      <point x="186" y="232" type="curve"/>
      <point x="183" y="190" type="line"/>
      <point x="174" y="67"/>
      <point x="35" y="24"/>
      <point x="35" y="-108" type="curve" smooth="yes"/>
      <point x="35" y="-188"/>
      <point x="82" y="-245"/>
      <point x="169" y="-245" type="curve" smooth="yes"/>
      <point x="267" y="-245"/>
      <point x="354" y="-185"/>
      <point x="354" y="-102" type="curve" smooth="yes"/>
      <point x="354" y="-97"/>
      <point x="354" y="-92"/>
      <point x="353" y="-88" type="curve"/>
      <point x="341" y="-74" type="line"/>
      <point x="315" y="-76"/>
      <point x="296" y="-80"/>
      <point x="276" y="-91" type="curve"/>
      <point x="279" y="-99"/>
      <point x="282" y="-108"/>
      <point x="282" y="-116" type="curve" smooth="yes"/>
      <point x="282" y="-163"/>
      <point x="245" y="-204"/>
      <point x="203" y="-204" type="curve" smooth="yes"/>
      <point x="142" y="-204"/>
      <point x="108" y="-160"/>
      <point x="108" y="-88" type="curve" smooth="yes"/>
      <point x="108" y="-4"/>
      <point x="239" y="90"/>
      <point x="232" y="190" type="curve"/>
      <point x="230" y="242" type="line"/>
      <point x="218" y="250" type="line"/>
      <point x="203" y="246"/>
      <point x="195" y="242"/>
    </contour>
  </outline>
</glyph>
<glyph name="AE" format="2">
  <advance width="709"/>
  <unicode hex="00C6"/>
  <outline>
    <contour>
      <point x="685" y="116" type="curve"/>
      <point x="661" y="125" type="line"/>
      <point x="636" y="56"/>
      <point x="618" y="43"/>
      <point x="564" y="43" type="curve" smooth="yes"/>
      <point x="512" y="43" type="line" smooth="yes"/>
      <point x="435" y="43"/>
      <point x="421" y="54"/>
      <point x="421" y="72" type="curve" smooth="yes"/>
      <point x="421" y="282" type="line"/>
      <point x="494" y="282" type="line" smooth="yes"/>
      <point x="528" y="282"/>
      <point x="553" y="275"/>
      <point x="570" y="257" type="curve"/>
      <point x="583" y="267"/>
      <point x="601" y="293"/>
      <point x="611" y="309" type="curve"/>
      <point x="598" y="322" type="line"/>
      <point x="421" y="322" type="line"/>
      <point x="421" y="509" type="line"/>
      <point x="577" y="509" type="line" smooth="yes"/>
      <point x="600" y="509"/>
      <point x="611" y="489"/>
      <point x="613" y="435" type="curve"/>
      <point x="638" y="435" type="line"/>
      <point x="646" y="457"/>
      <point x="654" y="511"/>
      <point x="656" y="541" type="curve"/>
      <point x="641" y="553" type="line"/>
      <point x="474" y="553" type="line"/>
      <point x="400" y="553" type="line"/>
      <point x="167" y="553" type="line"/>
      <point x="167" y="530" type="line"/>
      <point x="225" y="519"/>
      <point x="253" y="513"/>
      <point x="245" y="493" type="curve" smooth="yes"/>
      <point x="67" y="53" type="line" smooth="yes"/>
      <point x="60" y="36"/>
      <point x="38" y="29"/>
      <point x="0" y="23" type="curve"/>
      <point x="0" y="0" type="line"/>
      <point x="182" y="0" type="line"/>
      <point x="182" y="23" type="line"/>
      <point x="136" y="28"/>
      <point x="121" y="36"/>
      <point x="128" y="53" type="curve" smooth="yes"/>
      <point x="221" y="282" type="line"/>
      <point x="337" y="282" type="line"/>
      <point x="337" y="50" type="line" smooth="yes"/>
      <point x="337" y="42"/>
      <point x="315" y="31"/>
      <point x="276" y="23" type="curve"/>
      <point x="276" y="0" type="line"/>
      <point x="667" y="0" type="line"/>
      <point x="671" y="17"/>
      <point x="680" y="65"/>
    </contour>
    <contour>
      <point x="337" y="500" type="curve" smooth="yes"/>
      <point x="337" y="322" type="line"/>
      <point x="237" y="322" type="line"/>
      <point x="305" y="492" type="line" smooth="yes"/>
      <point x="314" y="512"/>
      <point x="337" y="512"/>
    </contour>
  </outline>
</glyph>
<glyph name="Eth" format="2">
  <advance width="556"/>
  <unicode hex="00D0"/>
  <anchor x="269" y="585" name="U"/>
  <outline>
    <component base="D"/>
    <contour>
      <point x="11" y="260" type="line"/>
      <point x="292" y="260" type="line"/>
      <point x="292" y="301" type="line"/>
      <point x="11" y="301" type="line"/>
    </contour>
  </outline>
</glyph>
<glyph name="multiply" format="2">
  <advance width="369"/>
  <unicode hex="00D7"/>
  <outline>
    <contour>
      <point x="327" y="123" type="curve"/>
      <point x="327" y="137" type="line"/>
      <point x="82" y="383" type="line"/>
      <point x="69" y="380"/>
      <point x="52" y="375"/>
      <point x="41" y="370" type="curve"/>
      <point x="41" y="355" type="line"/>
      <point x="287" y="109" type="line"/>
      <point x="297" y="112"/>
      <point x="315" y="118"/>
    </contour>
    <contour>
      <point x="40" y="137" type="line"/>
      <point x="40" y="123" type="line"/>
      <point x="52" y="118"/>
      <point x="70" y="112"/>
      <point x="81" y="109" type="curve"/>
      <point x="327" y="355" type="line"/>
      <point x="327" y="370" type="line"/>
      <point x="315" y="375"/>
      <point x="299" y="380"/>
      <point x="286" y="383" type="curve"/>
    </contour>
  </outline>
</glyph>
<glyph name="Oslash" format="2">
  <advance width="540"/>
  <unicode hex="00D8"/>
  <outline>
    <contour>
      <point x="500" y="284" type="curve"/>
      <point x="500" y="427"/>
      <point x="423" y="566"/>
      <point x="278" y="566" type="curve" smooth="yes"/>
      <point x="140" y="566"/>
      <point x="30" y="428"/>
      <point x="30" y="268" type="curve" smooth="yes"/>
      <point x="30" y="121"/>
      <point x="111" y="-13"/>
      <point x="252" y="-13" type="curve" smooth="yes"/>
      <point x="386" y="-13"/>
      <point x="500" y="125"/>
    </contour>
    <contour>
      <point x="431" y="276" type="curve"/>
      <point x="431" y="121"/>
      <point x="362" y="39"/>
      <point x="265" y="39" type="curve" smooth="yes"/>
      <point x="175" y="39"/>
      <point x="98" y="150"/>
      <point x="98" y="281" type="curve" smooth="yes"/>
      <point x="98" y="424"/>
      <point x="161" y="516"/>
      <point x="265" y="516" type="curve" smooth="yes"/>
      <point x="365" y="516"/>
      <point x="431" y="397"/>
    </contour>
    <contour>
      <point x="102" y="0" type="curve"/>
      <point x="496" y="562" type="line"/>
      <point x="484" y="577" type="line"/>
      <point x="466" y="572"/>
      <point x="444" y="565"/>
      <point x="428" y="555" type="curve"/>
      <point x="33" y="-8" type="line"/>
      <point x="45" y="-23" type="line"/>
      <point x="60" y="-18"/>
      <point x="91" y="-10"/>
    </contour>
  </outline>
</glyph>
<glyph name="Thorn" format="2">
  <advance width="470"/>
  <unicode hex="00DE"/>
  <outline>
    <contour>
      <point x="431" y="292" type="curve"/>
      <point x="431" y="393"/>
      <point x="350" y="448"/>
      <point x="224" y="448" type="curve" smooth="yes"/>
      <point x="166" y="448"/>
      <point x="133" y="444"/>
      <point x="102" y="438" type="curve"/>
      <point x="107" y="406" type="line"/>
      <point x="138" y="409"/>
      <point x="168" y="411"/>
      <point x="199" y="411" type="curve" smooth="yes"/>
      <point x="289" y="411"/>
      <point x="363" y="371"/>
      <point x="363" y="274" type="curve" smooth="yes"/>
      <point x="363" y="191"/>
      <point x="292" y="149"/>
      <point x="238" y="149" type="curve" smooth="yes"/>
      <point x="217" y="149"/>
      <point x="195" y="151"/>
      <point x="170" y="162" type="curve"/>
      <point x="181" y="130" type="line"/>
      <point x="200" y="120"/>
      <point x="225" y="116"/>
      <point x="251" y="116" type="curve" smooth="yes"/>
      <point x="320" y="116"/>
      <point x="431" y="170"/>
    </contour>
    <contour>
      <point x="21" y="0" type="line"/>
      <point x="232" y="0" type="line"/>
      <point x="232" y="18" type="line"/>
      <point x="171" y="29"/>
      <point x="156" y="38"/>
      <point x="156" y="45" type="curve" smooth="yes"/>
      <point x="156" y="507" type="line" smooth="yes"/>
      <point x="156" y="515"/>
      <point x="172" y="524"/>
      <point x="232" y="534" type="curve"/>
      <point x="232" y="553" type="line"/>
      <point x="21" y="553" type="line"/>
      <point x="21" y="534" type="line"/>
      <point x="63" y="526"/>
      <point x="85" y="514"/>
      <point x="85" y="507" type="curve" smooth="yes"/>
      <point x="85" y="45" type="line" smooth="yes"/>
      <point x="85" y="37"/>
      <point x="61" y="26"/>
      <point x="21" y="18" type="curve"/>
    </contour>
  </outline>
</glyph>
<glyph name="germandbls" format="2">
  <advance width="502"/>
  <unicode hex="00DF"/>
  <anchor x="246" y="601" name="U"/>
  <outline>
    <contour>
      <point x="475" y="119" type="curve" smooth="yes"/>
      <point x="475" y="234"/>
      <point x="307" y="235"/>
      <point x="307" y="314" type="curve" smooth="yes"/>
      <point x="307" y="346"/>
      <point x="328" y="375"/>
      <point x="382" y="375" type="curve" smooth="yes"/>
      <point x="393" y="375"/>
      <point x="398" y="373"/>
      <point x="400" y="373" type="curve"/>
      <point x="400" y="377"/>
      <point x="413" y="417"/>
      <point x="413" y="456" type="curve" smooth="yes"/>
      <point x="413" y="537"/>
      <point x="365" y="589"/>
      <point x="273" y="589" type="curve" smooth="yes"/>
      <point x="132" y="589"/>
      <point x="71" y="472"/>
      <point x="71" y="362" type="curve" smooth="yes"/>
      <point x="71" y="52" type="line" smooth="yes"/>
      <point x="71" y="45"/>
      <point x="65" y="35"/>
      <point x="55" y="34" type="curve" smooth="yes"/>
      <point x="17" y="30" type="line"/>
      <point x="17" y="0" type="line"/>
      <point x="199" y="0" type="line"/>
      <point x="199" y="30" type="line"/>
      <point x="158" y="33" type="line" smooth="yes"/>
      <point x="152" y="34"/>
      <point x="146" y="40"/>
      <point x="146" y="52" type="curve" smooth="yes"/>
      <point x="146" y="370" type="line" smooth="yes"/>
      <point x="146" y="427"/>
      <point x="160" y="549"/>
      <point x="259" y="549" type="curve" smooth="yes"/>
      <point x="314" y="549"/>
      <point x="339" y="504"/>
      <point x="339" y="456" type="curve" smooth="yes"/>
      <point x="339" y="435"/>
      <point x="332" y="399"/>
      <point x="332" y="399" type="curve"/>
      <point x="277" y="387"/>
      <point x="235" y="347"/>
      <point x="235" y="289" type="curve" smooth="yes"/>
      <point x="235" y="187"/>
      <point x="407" y="184"/>
      <point x="407" y="96" type="curve" smooth="yes"/>
      <point x="407" y="60"/>
      <point x="380" y="28"/>
      <point x="339" y="28" type="curve" smooth="yes"/>
      <point x="317" y="28"/>
      <point x="300" y="39"/>
      <point x="292" y="48" type="curve"/>
      <point x="284" y="117" type="line"/>
      <point x="241" y="117" type="line"/>
      <point x="241" y="10" type="line"/>
      <point x="241" y="10"/>
      <point x="299" y="-9"/>
      <point x="335" y="-9" type="curve" smooth="yes"/>
      <point x="412" y="-9"/>
      <point x="475" y="40"/>
    </contour>
  </outline>
</glyph>
<glyph name="ae" format="2">
  <advance width="576"/>
  <unicode hex="00E6"/>
  <anchor x="300" y="0" name="H"/>
  <anchor x="300" y="429" name="U"/>
  <outline>
    <contour>
      <point x="549" y="39" type="curve"/>
      <point x="549" y="87" type="line"/>
      <point x="520" y="64"/>
      <point x="490" y="44"/>
      <point x="442" y="44" type="curve" smooth="yes"/>
      <point x="385" y="44"/>
      <point x="349" y="75"/>
      <point x="326" y="98" type="curve"/>
      <point x="326" y="204" type="line"/>
      <point x="548" y="204" type="line"/>
      <point x="548" y="204"/>
      <point x="549" y="223"/>
      <point x="549" y="232" type="curve" smooth="yes"/>
      <point x="549" y="318"/>
      <point x="512" y="395"/>
      <point x="416" y="395" type="curve" smooth="yes"/>
      <point x="355" y="395"/>
      <point x="321" y="363"/>
      <point x="308" y="348" type="curve"/>
      <point x="296" y="365"/>
      <point x="277" y="395"/>
      <point x="202" y="395" type="curve" smooth="yes"/>
      <point x="129" y="395"/>
      <point x="45" y="366"/>
      <point x="45" y="300" type="curve" smooth="yes"/>
      <point x="45" y="282"/>
      <point x="55" y="277"/>
      <point x="76" y="277" type="curve" smooth="yes"/>
      <point x="76" y="277"/>
      <point x="124" y="277"/>
      <point x="132" y="277" type="curve"/>
      <point x="132" y="347" type="line"/>
      <point x="139" y="350"/>
      <point x="156" y="357"/>
      <point x="182" y="357" type="curve" smooth="yes"/>
      <point x="235" y="357"/>
      <point x="251" y="329"/>
      <point x="251" y="276" type="curve" smooth="yes"/>
      <point x="251" y="244" type="line"/>
      <point x="89" y="202"/>
      <point x="27" y="180"/>
      <point x="27" y="95" type="curve" smooth="yes"/>
      <point x="27" y="35"/>
      <point x="63" y="-9"/>
      <point x="130" y="-9" type="curve" smooth="yes"/>
      <point x="200" y="-9"/>
      <point x="271" y="51"/>
      <point x="271" y="51" type="curve"/>
      <point x="271" y="51"/>
      <point x="323" y="-9"/>
      <point x="416" y="-9" type="curve" smooth="yes"/>
      <point x="480" y="-9"/>
      <point x="526" y="23"/>
    </contour>
    <contour>
      <point x="470" y="239" type="line"/>
      <point x="326" y="239" type="line"/>
      <point x="326" y="296"/>
      <point x="343" y="357"/>
      <point x="402" y="357" type="curve" smooth="yes"/>
      <point x="449" y="357"/>
      <point x="470" y="311"/>
      <point x="470" y="263" type="curve" smooth="yes"/>
    </contour>
    <contour>
      <point x="251" y="75" type="line"/>
      <point x="251" y="75"/>
      <point x="202" y="38"/>
      <point x="164" y="38" type="curve" smooth="yes"/>
      <point x="123" y="38"/>
      <point x="103" y="70"/>
      <point x="103" y="106" type="curve" smooth="yes"/>
      <point x="103" y="154"/>
      <point x="134" y="181"/>
      <point x="251" y="213" type="curve"/>
    </contour>
  </outline>
</glyph>
<glyph name="eth" format="2">
  <advance width="431"/>
  <unicode hex="00F0"/>
  <anchor x="215" y="601" name="U"/>
  <outline>
    <contour>
      <point x="403" y="216" type="curve" smooth="yes"/>
      <point x="403" y="349"/>
      <point x="298" y="468"/>
      <point x="270" y="500" type="curve"/>
      <point x="351" y="550" type="line"/>
      <point x="333" y="582" type="line"/>
      <point x="246" y="530" type="line"/>
      <point x="188" y="589" type="line"/>
      <point x="90" y="560" type="line"/>
      <point x="90" y="537" type="line"/>
      <point x="157" y="528" type="line"/>
      <point x="185" y="496" type="line"/>
      <point x="93" y="441" type="line"/>
      <point x="111" y="409" type="line"/>
      <point x="212" y="470" type="line"/>
      <point x="215" y="467"/>
      <point x="258" y="412"/>
      <point x="274" y="383" type="curve"/>
      <point x="273" y="383"/>
      <point x="243" y="395"/>
      <point x="220" y="395" type="curve" smooth="yes"/>
      <point x="110" y="395"/>
      <point x="27" y="313"/>
      <point x="27" y="195" type="curve" smooth="yes"/>
      <point x="27" y="76"/>
      <point x="102" y="-9"/>
      <point x="216" y="-9" type="curve" smooth="yes"/>
      <point x="325" y="-9"/>
      <point x="403" y="79"/>
    </contour>
    <contour>
      <point x="326" y="200" type="curve" smooth="yes"/>
      <point x="326" y="116"/>
      <point x="296" y="26"/>
      <point x="218" y="26" type="curve" smooth="yes"/>
      <point x="140" y="26"/>
      <point x="110" y="109"/>
      <point x="110" y="194" type="curve" smooth="yes"/>
      <point x="110" y="287"/>
      <point x="149" y="360"/>
      <point x="234" y="360" type="curve" smooth="yes"/>
      <point x="259" y="360"/>
      <point x="295" y="344"/>
      <point x="295" y="344" type="curve"/>
      <point x="315" y="311"/>
      <point x="326" y="264"/>
    </contour>
  </outline>
</glyph>
<glyph name="divide" format="2">
  <advance width="369"/>
  <unicode hex="00F7"/>
  <outline>
    <contour>
      <point x="341" y="260" type="curve"/>
      <point x="331" y="271" type="line"/>
      <point x="40" y="271" type="line"/>
      <point x="35" y="259"/>
      <point x="29" y="245"/>
      <point x="26" y="233" type="curve"/>
      <point x="37" y="222" type="line"/>
      <point x="328" y="222" type="line"/>
      <point x="333" y="232"/>
      <point x="339" y="248"/>
    </contour>
    <contour>
      <point x="219" y="360" type="curve"/>
      <point x="219" y="382"/>
      <point x="209" y="393"/>
      <point x="189" y="393" type="curve" smooth="yes"/>
      <point x="167" y="393"/>
      <point x="149" y="372"/>
      <point x="149" y="346" type="curve" smooth="yes"/>
      <point x="149" y="324"/>
      <point x="158" y="312"/>
      <point x="178" y="312" type="curve" smooth="yes"/>
      <point x="201" y="312"/>
      <point x="219" y="334"/>
    </contour>
    <contour>
      <point x="219" y="149" type="curve"/>
      <point x="219" y="171"/>
      <point x="209" y="182"/>
      <point x="189" y="182" type="curve" smooth="yes"/>
      <point x="167" y="182"/>
      <point x="149" y="161"/>
      <point x="149" y="135" type="curve" smooth="yes"/>
      <point x="149" y="113"/>
      <point x="158" y="101"/>
      <point x="178" y="101" type="curve" smooth="yes"/>
      <point x="201" y="101"/>
      <point x="219" y="123"/>
    </contour>
  </outline>
</glyph>
